<svg width="72" height="72" viewBox="0 0 72 72" fill="none" xmlns="http://www.w3.org/2000/svg">
<g clip-path="url(#clip0)">
<path d="M39.1412 16.0909C39.2519 15.6049 39.2173 15.0967 39.0419 14.6304C38.9245 14.3186 38.7471 14.0332 38.5197 13.7909C38.2923 13.5485 38.0195 13.3539 37.7171 13.2182C37.4147 13.0826 37.0886 13.0087 36.7577 13.0007C36.4268 12.9927 36.0976 13.0509 35.7891 13.1717C35.3278 13.3525 34.9299 13.6667 34.6456 14.0749C34.3613 14.4831 34.2033 14.9669 34.1914 15.4654C34.1796 15.9639 34.3145 16.4548 34.5791 16.8762C34.8437 17.2976 35.2261 17.6307 35.6783 17.8335C36.1305 18.0362 36.6321 18.0996 37.1199 18.0156C37.6078 17.9317 38.0601 17.7041 38.4198 17.3615C38.7795 17.019 39.0305 16.5769 39.1412 16.0909Z" fill="#141516"/>
<path fill-rule="evenodd" clip-rule="evenodd" d="M32.5112 60.2727C31.1998 60.272 29.9035 59.9923 28.7068 59.452C27.5101 58.9118 26.4401 58.1231 25.5668 57.1375L9.8981 39.3807C9.51585 38.9476 9.24366 38.4275 9.10492 37.865C8.96617 37.3026 8.96502 36.7146 9.10156 36.1516C9.2381 35.5886 9.50825 35.0674 9.8888 34.6328C10.2694 34.1982 10.7489 33.8632 11.2864 33.6565L36.8483 23.8246C37.9291 23.4121 39.1279 23.446 40.1841 23.919C41.2403 24.3919 42.0686 25.2657 42.489 26.3504L42.9747 27.6134C43.0967 27.9326 43.3395 28.1901 43.6497 28.3292C43.9599 28.4683 44.3122 28.4777 44.6293 28.3553L47.7035 27.1682C48.0199 27.0446 48.2749 26.7999 48.4129 26.4876C48.5508 26.1753 48.5606 25.8206 48.44 25.5011L47.9511 24.2192C47.5408 23.1322 47.5723 21.9261 48.0386 20.8623C48.505 19.7985 49.3686 18.9627 50.4424 18.536L56.0612 16.3259C56.6004 16.1143 57.1827 16.0384 57.7576 16.1048C58.3324 16.1712 58.8825 16.378 59.3602 16.7071C59.8378 17.0362 60.2285 17.4777 60.4984 17.9934C60.7684 18.5091 60.9093 19.0834 60.9091 19.6664L61 43.2895C60.9989 45.1754 60.4358 47.0176 59.3838 48.5774C58.3317 50.1373 56.8391 51.343 55.0992 52.0384L35.8799 59.616C34.8058 60.0357 33.6633 60.2499 32.5112 60.2475V60.2727ZM12.3832 36.5423C12.3133 36.5693 12.251 36.6129 12.2015 36.6695C12.152 36.726 12.1169 36.7938 12.099 36.867C12.0812 36.9402 12.0811 37.0166 12.099 37.0899C12.1168 37.1631 12.1519 37.2308 12.2014 37.2874L27.8701 55.0442C28.7137 55.9968 29.8261 56.6669 31.0582 56.9649C32.2904 57.2628 33.5835 57.1743 34.7643 56.7113L53.9836 49.1337C55.1391 48.6688 56.1301 47.8663 56.8293 46.8293C57.5285 45.7923 57.9038 44.5683 57.907 43.3147L57.8161 19.6916C57.8161 19.6163 57.7978 19.5421 57.7629 19.4754C57.728 19.4088 57.6775 19.3517 57.6158 19.3091C57.5541 19.2665 57.483 19.2397 57.4087 19.231C57.3344 19.2223 57.2591 19.2319 57.1894 19.2591L51.5706 21.4692C51.2566 21.5947 51.0042 21.8394 50.8676 22.1507C50.7311 22.4619 50.7213 22.8147 50.8404 23.1331L51.3261 24.4024C51.7355 25.4914 51.7019 26.6992 51.2325 27.7633C50.763 28.8274 49.8958 29.662 48.8191 30.0855L45.745 31.2727C44.6641 31.6852 43.4653 31.6513 42.4091 31.1783C41.3529 30.7054 40.5246 29.8316 40.1042 28.7468L39.6185 27.4839C39.4965 27.1654 39.2542 26.9085 38.9448 26.7695C38.6353 26.6304 38.2837 26.6205 37.967 26.7419L12.3926 36.5738L12.3832 36.5423Z" fill="#141516"/>
<path d="M26.7012 19.4012C26.8767 19.8674 26.9112 20.3756 26.8005 20.8616C26.6898 21.3476 26.4388 21.7897 26.0791 22.1323C25.7194 22.4748 25.2671 22.7024 24.7793 22.7864C24.2914 22.8703 23.7898 22.807 23.3376 22.6042C22.8855 22.4014 22.503 22.0684 22.2384 21.6469C21.9738 21.2255 21.8389 20.7346 21.8508 20.2361C21.8626 19.7376 22.0207 19.2538 22.305 18.8456C22.5893 18.4375 22.9871 18.1232 23.4484 17.9425C23.7569 17.8216 24.0861 17.7635 24.417 17.7714C24.748 17.7794 25.074 17.8534 25.3765 17.989C25.6789 18.1246 25.9516 18.3192 26.179 18.5616C26.4064 18.804 26.5839 19.0893 26.7012 19.4012Z" fill="#141516"/>
</g>
<defs>
<clipPath id="clip0">
<rect width="52" height="47.2727" fill="white" transform="translate(9 13)"/>
</clipPath>
</defs>
</svg>
