<svg width="145" height="59" viewBox="0 0 145 59" fill="none" xmlns="http://www.w3.org/2000/svg">
<path d="M99.4261 9.09592C92.6499 4.00394 68.379 -7.79567 11.5606 20.95C8.82663 22.2943 6.42647 24.3293 4.55938 26.8861C-1.81674 35.8175 -3.24199 54.2975 99.3178 50.2584C101.304 50.1862 103.21 49.3832 104.723 47.9805C106.237 46.5778 107.269 44.658 107.653 42.5342C108.861 35.6723 109.053 24.7712 102.568 12.772C101.782 11.3095 100.709 10.0542 99.4261 9.09592V9.09592Z" fill="#DD7C3A"/>
<path d="M80.2311 2.36108C80.2311 2.36108 75.6469 19.2708 78.0974 30.7074Z" fill="#DD7C3A"/>
<path d="M78.089 32.9765C78.252 32.9772 78.4144 32.9559 78.5725 32.913C79.1107 32.7769 79.5772 32.4136 79.8695 31.903C80.1618 31.3923 80.2559 30.7762 80.1311 30.19C77.8307 19.4796 82.1898 3.16891 82.2314 3.00553C82.3638 2.43732 82.2891 1.83538 82.023 1.32582C81.7569 0.816255 81.32 0.438606 80.8039 0.271994C80.2879 0.105381 79.7326 0.162734 79.2545 0.432035C78.7763 0.701337 78.4125 1.16169 78.2391 1.71665C78.039 2.4337 73.5216 19.3344 76.072 31.2247C76.1774 31.7218 76.434 32.1654 76.8002 32.4834C77.1664 32.8015 77.6206 32.9753 78.089 32.9765V32.9765Z" fill="#D86132"/>
<path d="M55.3266 5.42899C55.3266 5.42899 53.1262 22.965 55.5767 35.6723Z" fill="#DD7C3A"/>
<path d="M55.56 37.9414C55.7066 37.9638 55.8553 37.9638 56.0018 37.9414C56.2733 37.8813 56.5311 37.7625 56.7598 37.5922C56.9886 37.4218 57.1836 37.2033 57.3336 36.9495C57.4835 36.6957 57.5853 36.4118 57.6328 36.1144C57.6803 35.8171 57.6727 35.5125 57.6104 35.2184C55.2683 23.0376 57.3687 5.9191 57.3937 5.74665C57.447 5.16243 57.2903 4.57845 56.9566 4.1174C56.6228 3.65636 56.1379 3.35413 55.6038 3.27423C55.0697 3.19433 54.528 3.34297 54.0924 3.68892C53.6568 4.03487 53.3613 4.55121 53.268 5.12944C53.1763 5.86464 51.0426 23.2101 53.5347 36.1533C53.6352 36.6578 53.8906 37.1099 54.2588 37.435C54.627 37.7601 55.086 37.9387 55.56 37.9414V37.9414Z" fill="#D86132"/>
<path d="M31.4225 31.4698C31.4225 31.4698 28.0886 45.6293 35.1064 49.0149Z" fill="#DD7C3A"/>
<path d="M35.098 51.2841C35.573 51.2789 36.032 51.0971 36.3991 50.769C36.7662 50.4408 37.0194 49.9859 37.1166 49.4797C37.2139 48.9734 37.1494 48.4462 36.9339 47.9853C36.7183 47.5244 36.3647 47.1575 35.9315 46.9454C30.6389 44.404 33.3894 32.1687 33.4311 32.0416C33.5063 31.7508 33.5274 31.4465 33.4932 31.1467C33.459 30.8468 33.3702 30.5574 33.2319 30.2955C33.0936 30.0335 32.9087 29.8043 32.688 29.6212C32.4672 29.4381 32.2151 29.3049 31.9465 29.2293C31.6778 29.1538 31.398 29.1374 31.1235 29.1812C30.849 29.225 30.5852 29.328 30.3478 29.4843C30.1103 29.6406 29.9039 29.8469 29.7406 30.0912C29.5774 30.3356 29.4605 30.6129 29.397 30.9071C29.2387 31.5606 25.6714 46.9818 34.2562 51.0935C34.5221 51.2185 34.8085 51.2834 35.098 51.2841Z" fill="#D86132"/>
<path d="M69.3625 53.0994C78.4641 53.1417 88.4658 52.9481 99.3678 52.5185C101.825 52.4331 104.182 51.4406 106.052 49.7038C107.923 47.967 109.195 45.5892 109.661 42.9608C110.97 35.5815 111.103 24.154 104.327 11.6192C103.387 9.87356 102.107 8.3739 100.576 7.22614C92.4499 1.15388 67.4121 -9.85606 10.6521 18.8896C7.61997 20.3933 4.95794 22.6577 2.88409 25.4974C-0.933246 30.8435 -0.26646 35.0823 0.958756 37.6873C5.75127 47.8168 28.2052 52.8997 69.3625 53.0994ZM98.2509 10.9657C99.2727 11.7415 100.126 12.7515 100.751 13.9247C106.877 25.2342 106.769 35.4907 105.594 42.1258C105.307 43.7462 104.521 45.2117 103.367 46.2808C102.212 47.35 100.758 47.9589 99.2427 48.0074C23.4461 50.9936 7.46824 41.5358 4.69275 35.636C3.70924 33.5483 4.21766 31.0977 6.20135 28.3021C7.86522 26.0298 10.0024 24.222 12.4358 23.0285C68.8207 -5.53558 92.3665 6.57263 98.2509 10.9657Z" fill="black"/>
<path d="M103.177 12.7629C103.177 12.7629 121.122 0.899737 138.716 22.4567C138.803 22.5619 138.86 22.6931 138.877 22.8333C138.895 22.9736 138.874 23.1165 138.817 23.2435C138.759 23.3706 138.668 23.476 138.555 23.5461C138.442 23.6161 138.313 23.6477 138.183 23.6367C135.007 23.319 127.998 22.8924 124.214 24.8802C124.105 24.9385 124.013 25.029 123.949 25.1413C123.885 25.2536 123.85 25.3832 123.85 25.5155C123.85 25.6478 123.885 25.7775 123.949 25.8898C124.013 26.0021 124.105 26.0925 124.214 26.1509C128.114 28.2476 141.359 35.9264 142.917 44.3041C142.945 44.4344 142.939 44.5707 142.899 44.6972C142.859 44.8237 142.786 44.9352 142.69 45.0188C142.594 45.1024 142.479 45.1547 142.356 45.1696C142.234 45.1845 142.111 45.1613 142 45.1029C138.791 43.3783 129.165 38.3953 124.13 38.005C123.992 37.9975 123.855 38.0377 123.739 38.12C123.623 38.2022 123.533 38.3223 123.483 38.4631C123.434 38.6039 123.426 38.7582 123.461 38.9041C123.497 39.05 123.573 39.18 123.68 39.2757C126.548 41.6719 132.365 47.8168 129.29 56.3216C129.249 56.4373 129.182 56.5395 129.094 56.6179C129.006 56.6963 128.9 56.7482 128.788 56.7684C128.676 56.7886 128.561 56.7764 128.454 56.7331C128.348 56.6897 128.254 56.6167 128.181 56.5213C125.581 53.1175 115.854 41.1909 107.244 40.9276C105.819 40.9165 104.427 40.4507 103.242 39.5876C102.057 38.7246 101.13 37.5022 100.576 36.0716C97.9925 29.0282 95.3254 17.6189 103.177 12.7629Z" fill="#4DBC33"/>
<path d="M128.64 58.9901C128.792 59.0033 128.945 59.0033 129.098 58.9901C129.568 58.904 130.009 58.6875 130.38 58.3616C130.751 58.0357 131.039 57.6114 131.215 57.1294C133.632 50.44 131.39 45.0575 128.715 41.4541C132.942 43.0371 137.066 44.9294 141.058 47.1179C141.514 47.3676 142.026 47.4711 142.533 47.4165C143.041 47.3618 143.524 47.1513 143.926 46.8093C144.335 46.4697 144.648 46.0107 144.828 45.4854C145.008 44.9601 145.048 44.3901 144.942 43.8413C143.534 36.2804 134.491 29.6636 128.381 25.9875C131.574 25.5639 134.801 25.5334 138 25.8968C138.546 25.9499 139.094 25.8231 139.573 25.5328C140.051 25.2425 140.439 24.8021 140.685 24.2687C140.932 23.7354 141.025 23.1338 140.953 22.542C140.882 21.9502 140.648 21.3955 140.283 20.95C122.238 -1.16064 103.327 10.0581 102.16 10.7842C95.242 15.0502 93.9835 24.3084 98.6176 36.8704C99.3274 38.7072 100.514 40.2789 102.031 41.3928C103.548 42.5068 105.331 43.1148 107.161 43.1424C113.27 43.3239 121.18 50.8938 126.556 57.9191C126.81 58.253 127.128 58.522 127.488 58.7071C127.848 58.8921 128.241 58.9888 128.64 58.9901V58.9901ZM124.072 35.6814C123.501 35.6813 122.944 35.8759 122.48 36.2379C122.016 36.5999 121.667 37.1111 121.484 37.6998C121.3 38.2885 121.29 38.9251 121.455 39.5203C121.62 40.1155 121.953 40.6394 122.405 41.0184C124.906 43.1242 128.648 47.2359 127.989 52.7636C123.514 47.3176 115.246 38.8491 107.294 38.604C106.273 38.6033 105.274 38.2784 104.42 37.669C103.566 37.0596 102.893 36.1923 102.485 35.1731C100.31 29.2824 97.6341 18.7807 104.21 14.7325H104.26C104.902 14.315 119.388 5.20208 134.666 21.1588C130.907 21.0226 126.331 21.2677 123.322 22.8289C122.861 23.0731 122.472 23.4536 122.2 23.9271C121.928 24.4006 121.783 24.9479 121.783 25.5065C121.783 26.065 121.928 26.6124 122.2 27.0858C122.472 27.5593 122.861 27.9399 123.322 28.1841C129.523 31.5152 136.333 36.3894 139.383 41.2181C134.832 38.9399 128.323 36.0354 124.264 35.7177L124.072 35.6814Z" fill="black"/>
</svg>
