<svg width="145" height="59" viewBox="0 0 145 59" fill="none" xmlns="http://www.w3.org/2000/svg">
<path d="M45.5739 9.09594C52.3501 4.00395 76.621 -7.79566 133.439 20.95C136.173 22.2943 138.574 24.3293 140.441 26.8861C146.817 35.8175 148.242 54.2975 45.6822 50.2584C43.6958 50.1862 41.7905 49.3833 40.2769 47.9805C38.7633 46.5778 37.7307 44.658 37.3474 42.5342C36.1389 35.6723 35.9472 24.7713 42.4317 12.772C43.2176 11.3095 44.2906 10.0542 45.5739 9.09594Z" fill="#DD7C3A"/>
<path d="M64.7689 2.36108C64.7689 2.36108 69.3531 19.2708 66.9026 30.7074L64.7689 2.36108Z" fill="#DD7C3A"/>
<path d="M66.911 32.9765C66.748 32.9772 66.5856 32.9559 66.4275 32.913C65.8893 32.7769 65.4228 32.4136 65.1305 31.9029C64.8382 31.3923 64.7441 30.7762 64.8689 30.19C67.1693 19.4796 62.8102 3.16889 62.7686 3.00551C62.6362 2.43731 62.7109 1.83537 62.977 1.3258C63.2431 0.81624 63.68 0.438591 64.1961 0.271978C64.7121 0.105366 65.2674 0.162719 65.7455 0.43202C66.2237 0.701321 66.5875 1.16167 66.7609 1.71663C66.961 2.43368 71.4784 19.3344 68.928 31.2247C68.8226 31.7218 68.566 32.1654 68.1998 32.4834C67.8336 32.8014 67.3794 32.9752 66.911 32.9765Z" fill="#D86132"/>
<path d="M89.6734 5.42899C89.6734 5.42899 91.8738 22.965 89.4233 35.6723L89.6734 5.42899Z" fill="#DD7C3A"/>
<path d="M89.44 37.9414C89.2934 37.9638 89.1447 37.9638 88.9982 37.9414C88.7267 37.8813 88.4689 37.7625 88.2402 37.5922C88.0114 37.4218 87.8164 37.2033 87.6664 36.9495C87.5165 36.6957 87.4147 36.4118 87.3672 36.1145C87.3197 35.8172 87.3273 35.5125 87.3896 35.2185C89.7317 23.0376 87.6313 5.91912 87.6063 5.74666C87.553 5.16244 87.7097 4.57846 88.0434 4.11742C88.3772 3.65637 88.8621 3.35415 89.3962 3.27425C89.9303 3.19435 90.472 3.34299 90.9076 3.68894C91.3432 4.03489 91.6387 4.55122 91.732 5.12945C91.8237 5.86466 93.9574 23.2101 91.4653 36.1533C91.3648 36.6578 91.1094 37.1099 90.7412 37.435C90.373 37.7601 89.914 37.9387 89.44 37.9414Z" fill="#D86132"/>
<path d="M113.578 31.4698C113.578 31.4698 116.911 45.6293 109.894 49.0149L113.578 31.4698Z" fill="#DD7C3A"/>
<path d="M109.902 51.2841C109.427 51.2788 108.968 51.0971 108.601 50.769C108.234 50.4408 107.981 49.9859 107.883 49.4797C107.786 48.9734 107.851 48.4462 108.066 47.9853C108.282 47.5244 108.635 47.1575 109.068 46.9454C114.361 44.404 111.611 32.1687 111.569 32.0416C111.494 31.7508 111.473 31.4465 111.507 31.1467C111.541 30.8468 111.63 30.5574 111.768 30.2955C111.906 30.0335 112.091 29.8043 112.312 29.6212C112.533 29.4381 112.785 29.3049 113.054 29.2293C113.322 29.1538 113.602 29.1374 113.876 29.1812C114.151 29.225 114.415 29.328 114.652 29.4843C114.89 29.6406 115.096 29.8469 115.259 30.0912C115.423 30.3355 115.539 30.6129 115.603 30.907C115.761 31.5606 119.329 46.9817 110.744 51.0934C110.478 51.2185 110.192 51.2834 109.902 51.2841Z" fill="#D86132"/>
<path d="M75.6375 53.0994C66.5359 53.1417 56.5342 52.9481 45.6322 52.5185C43.1754 52.4331 40.8182 51.4406 38.9477 49.7038C37.0772 47.967 35.8045 45.5892 35.3388 42.9608C34.0302 35.5815 33.8968 24.154 40.673 11.6192C41.6129 9.87356 42.8933 8.3739 44.4237 7.22614C52.5501 1.15388 77.5879 -9.85606 134.348 18.8896C137.38 20.3933 140.042 22.6577 142.116 25.4974C145.933 30.8435 145.266 35.0823 144.041 37.6873C139.249 47.8168 116.795 52.8997 75.6375 53.0994ZM46.7491 10.9657C45.7273 11.7415 44.8739 12.7515 44.2487 13.9247C38.1226 25.2342 38.2309 35.4907 39.4061 42.1258C39.6934 43.7462 40.479 45.2117 41.6335 46.2808C42.788 47.35 44.2424 47.9589 45.7573 48.0074C121.554 50.9936 137.532 41.5358 140.307 35.636C141.291 33.5483 140.782 31.0977 138.799 28.3021C137.135 26.0298 134.998 24.222 132.564 23.0285C76.1793 -5.53558 52.6335 6.57263 46.7491 10.9657Z" fill="black"/>
<path d="M41.8232 12.7629C41.8232 12.7629 23.8784 0.899753 6.28363 22.4567C6.19654 22.5619 6.14041 22.6931 6.1225 22.8334C6.10459 22.9736 6.12572 23.1165 6.18316 23.2436C6.2406 23.3706 6.3317 23.476 6.44471 23.5461C6.55771 23.6162 6.68741 23.6477 6.81706 23.6367C9.99262 23.319 17.0022 22.8924 20.7862 24.8802C20.8952 24.9385 20.987 25.029 21.0513 25.1413C21.1155 25.2536 21.1495 25.3833 21.1495 25.5155C21.1495 25.6478 21.1155 25.7775 21.0513 25.8898C20.987 26.0021 20.8952 26.0926 20.7862 26.1509C16.8855 28.2476 3.6415 35.9264 2.08289 44.3042C2.0548 44.4344 2.06119 44.5707 2.10132 44.6972C2.14146 44.8237 2.2137 44.9352 2.30966 45.0188C2.40563 45.1025 2.52139 45.1547 2.64353 45.1696C2.76566 45.1845 2.88916 45.1613 2.99972 45.1029C6.20862 43.3783 15.8353 38.3953 20.8695 38.005C21.0079 37.9975 21.145 38.0377 21.2611 38.12C21.3773 38.2022 21.4667 38.3223 21.5165 38.4631C21.5664 38.6039 21.5742 38.7582 21.5389 38.9041C21.5035 39.05 21.4268 39.18 21.3196 39.2757C18.4524 41.6719 12.6348 47.8168 15.7103 56.3216C15.7507 56.4373 15.8183 56.5395 15.9063 56.6179C15.9943 56.6963 16.0997 56.7482 16.2119 56.7684C16.324 56.7886 16.4391 56.7764 16.5456 56.7331C16.6521 56.6897 16.7463 56.6167 16.8188 56.5213C19.4193 53.1175 29.146 41.1909 37.7558 40.9276C39.1815 40.9166 40.5728 40.4507 41.7579 39.5876C42.943 38.7246 43.8698 37.5022 44.4237 36.0717C47.0075 29.0282 49.6746 17.6189 41.8232 12.7629Z" fill="#4DBC33"/>
<path d="M16.3604 58.9901C16.2078 59.0033 16.0546 59.0033 15.902 58.9901C15.4321 58.904 14.9906 58.6875 14.6198 58.3616C14.249 58.0357 13.9615 57.6114 13.785 57.1294C11.3679 50.4399 13.6099 45.0575 16.2854 41.4541C12.0583 43.0371 7.93433 44.9294 3.94155 47.1179C3.48589 47.3675 2.97447 47.4711 2.46687 47.4164C1.95926 47.3618 1.47635 47.1513 1.07438 46.8093C0.66478 46.4697 0.35189 46.0106 0.171933 45.4854C-0.0080241 44.9601 -0.0476875 44.39 0.0575338 43.8412C1.46612 36.2804 10.5094 29.6636 16.6188 25.9875C13.426 25.5639 10.1995 25.5334 7.00042 25.8968C6.45446 25.9499 5.90643 25.8231 5.42748 25.5328C4.94853 25.2424 4.56078 24.802 4.31456 24.2687C4.06835 23.7354 3.97504 23.1338 4.04675 22.542C4.11845 21.9502 4.35187 21.3955 4.71669 20.95C22.7615 -1.16065 41.6732 10.0581 42.8401 10.7842C49.758 15.0502 51.0165 24.3083 46.3824 36.8704C45.6726 38.7072 44.4864 40.2788 42.9691 41.3928C41.4517 42.5068 39.669 43.1148 37.8392 43.1423C31.7298 43.3239 23.8201 50.8938 18.4441 57.9191C18.1901 58.253 17.8717 58.522 17.5117 58.707C17.1516 58.8921 16.7586 58.9888 16.3604 58.9901ZM20.9279 35.6814C21.4989 35.6813 22.0555 35.8759 22.5198 36.2379C22.984 36.5999 23.3325 37.1111 23.5164 37.6998C23.7003 38.2885 23.7103 38.9251 23.545 39.5203C23.3797 40.1155 23.0474 40.6393 22.5948 41.0184C20.0944 43.1242 16.3521 47.2359 17.0105 52.7636C21.4863 47.3176 29.7544 38.8491 37.7058 38.604C38.727 38.6033 39.7258 38.2784 40.5799 37.669C41.4341 37.0596 42.1066 36.1922 42.515 35.1731C44.6904 29.2823 47.3659 18.7807 40.7897 14.7325H40.7397C40.0979 14.315 25.612 5.20206 10.3343 21.1588C14.0933 21.0226 18.6691 21.2677 21.678 22.8289C22.1393 23.073 22.5283 23.4536 22.8004 23.9271C23.0725 24.4006 23.2167 24.9479 23.2167 25.5065C23.2167 26.065 23.0725 26.6123 22.8004 27.0858C22.5283 27.5593 22.1393 27.9399 21.678 28.1841C15.4769 31.5152 8.66738 36.3893 5.61685 41.2181C10.1676 38.9399 16.6771 36.0354 20.7362 35.7177L20.9279 35.6814Z" fill="black"/>
</svg>
