<svg width="41" height="41" viewBox="0 0 41 41" fill="none" xmlns="http://www.w3.org/2000/svg">
<path fill-rule="evenodd" clip-rule="evenodd" d="M20.27 0C9.08123 0 0.000492375 9.30923 0.000492375 20.7854C-0.029295 25.1103 1.29314 29.3364 3.78292 32.8728C6.27269 36.4092 9.80533 39.0792 13.8869 40.5095C14.9041 40.6938 15.2726 40.0525 15.2726 39.5071C15.2726 38.9617 15.2726 37.7013 15.2726 35.9691C9.63403 37.2222 8.44735 33.183 8.44735 33.183C7.526 30.7802 6.1919 30.1463 6.1919 30.1463C4.35659 28.8564 6.33195 28.8785 6.33195 28.8785C8.36627 29.0259 9.44239 31.0234 9.44239 31.0234C11.2482 34.2002 14.1818 33.2788 15.339 32.7481C15.4201 31.7057 15.8604 30.7236 16.5846 29.9694C12.0885 29.4461 7.35648 27.6623 7.35648 19.702C7.32231 17.6454 8.0675 15.6521 9.44239 14.1223C8.82386 12.3283 8.8948 10.3684 9.6414 8.62375C9.6414 8.62375 11.344 8.06358 15.2137 10.7539C18.5324 9.82011 22.0444 9.82011 25.3632 10.7539C29.2328 8.06358 30.9281 8.62375 30.9281 8.62375C31.6799 10.3668 31.7535 12.3278 31.1344 14.1223C32.5093 15.6521 33.2545 17.6454 33.2204 19.702C33.2277 27.7066 28.4884 29.4387 23.9554 29.9546C24.6924 30.5959 25.3337 31.8637 25.3337 33.8022C25.3337 36.5809 25.3337 38.8216 25.3337 39.5071C25.3337 40.0599 25.7022 40.7085 26.7267 40.5021C30.7975 39.0636 34.3182 36.391 36.7981 32.8568C39.278 29.3226 40.5936 25.1028 40.5616 20.7854C40.5616 9.27975 31.4882 0 20.27 0Z" fill="#191313"/>
</svg>
