<svg width="169" height="169" viewBox="0 0 169 169" fill="none" xmlns="http://www.w3.org/2000/svg">
<path d="M130.996 110.022C146.721 82.0679 122.867 67.1172 122.867 67.1172C117.691 52.9329 116.996 24.7086 106.464 13.6804C99.8437 6.71902 90.6127 0.154391 81.743 2.47185C75.023 4.22121 70.7598 10.6596 68.836 17.3144C63.7869 34.79 64.9701 60.1828 72.2592 77.6494L64.6721 79.3176C59.5598 65.1334 58.8463 44.4205 48.3237 33.3292C41.694 26.3768 32.4721 19.8032 23.6024 22.1297C16.8824 23.87 12.6101 30.3174 10.6953 36.9722C5.64628 54.4478 11.8966 77.2076 19.1856 94.6832C19.1856 94.6832 11.8334 133.043 31.054 140.022L138.466 102.546" fill="white"/>
<path d="M132.721 110.996C140.1 97.1179 140.489 81.6351 129.108 69.8585C124.511 65.0973 124.177 65.8277 122.569 58.8573C119.859 47.1348 118.775 34.9523 114.44 23.6897C108.722 8.60366 86.205 -10.2606 72.0876 6.67395C65.0424 15.1142 64.0669 28.3156 63.814 38.7757C63.4889 52.1664 65.4218 65.6834 70.3444 78.1724L71.7624 75.7558L64.1663 77.424L66.596 78.8397C61.1134 62.5183 61.0231 42.9958 48.0166 30.2543C39.1108 21.5255 24.9663 14.6272 14.805 25.403C4.64371 36.1787 6.04372 54.3126 8.63598 67.6672C10.3431 76.4321 13.956 84.3854 16.3224 92.9158C17.1263 95.8284 16.6115 98.1729 16.3224 101.491C15.3198 111.672 16.0966 146.524 34.1973 141.068C52.2979 135.613 69.9921 128.579 87.8037 122.357L139.026 104.485C141.428 103.646 140.435 99.8051 138.014 100.644L52.2708 130.572L34.414 136.803C33.5108 137.119 31.8489 138.102 30.8824 138.039C27.0527 137.786 23.2682 130.419 22.085 127.028C18.7521 117.515 19.845 107.289 20.7753 97.4966C21.0023 96.2597 21.06 94.9978 20.9469 93.7454C20.3508 89.7597 17.4786 84.8092 16.2321 80.9227C14.9857 77.0363 13.9289 73.2219 13.0618 69.2994C10.9663 59.75 9.83727 49.4612 12.0502 39.8217C15.0579 26.7736 25.7611 19.8934 37.9547 27.1974C56.8321 38.5502 56.525 61.1477 62.7844 79.8046C62.9302 80.3066 63.2637 80.7335 63.7159 80.997C64.1681 81.2605 64.7045 81.3405 65.214 81.2203L72.8011 79.5521C73.3084 79.4165 73.7417 79.0868 74.0071 78.6344C74.2726 78.1821 74.3487 77.6435 74.2192 77.1355C70.1932 66.7287 68.0169 55.7004 67.7882 44.5468C67.5082 33.8793 67.7882 20.4074 73.7224 11.1195C82.6734 -2.90247 99.9611 7.31418 107.088 17.603C112.182 24.9611 113.799 34.7359 115.497 43.3926C116.906 50.5433 116.969 61.319 120.916 67.6041C121.873 69.1281 123.571 70.0388 124.926 71.2832C136.199 81.581 136.153 96.0989 129.289 109.021C128.097 111.275 131.538 113.241 132.739 110.978L132.721 110.996Z" fill="black"/>
<path d="M65.5482 98.1729C67.8876 97.6499 68.9444 95.1521 68.6192 92.9519C68.4543 91.7806 67.8814 90.7047 67.001 89.9132C66.1206 89.1216 64.989 88.665 63.805 88.6235C63.2396 88.6225 62.6804 88.7408 62.1641 88.9707C61.6477 89.2006 61.1859 89.5369 60.8089 89.9576C60.4319 90.3782 60.1483 90.8737 59.9766 91.4115C59.8049 91.9493 59.7491 92.5173 59.8127 93.0781C59.887 94.1966 60.2874 95.269 60.9647 96.1631C61.642 97.0572 62.5665 97.7339 63.6244 98.1098C66.054 98.9123 67.0566 95.08 64.636 94.2774C64.438 94.1671 64.268 94.0128 64.1392 93.8265C63.9896 93.6003 63.8796 93.3502 63.814 93.0871C63.814 92.9699 63.814 92.5731 63.7418 92.6272C63.6695 92.6813 63.4527 92.6272 63.805 92.6272C64.3469 92.6272 64.7082 93.2675 64.7082 93.7364C64.7082 93.8356 64.6269 94.2143 64.6269 94.2414C64.6269 94.2684 64.4373 94.557 64.5547 94.3766C64.6721 94.1963 65.0334 94.2504 64.5005 94.3766C61.9986 94.9447 63.0192 98.7771 65.5121 98.218L65.5482 98.1729Z" fill="black"/>
<path d="M82.1044 94.9447C84.4438 94.4217 85.5005 91.9329 85.1754 89.7327C85.0144 88.5605 84.4441 87.4826 83.5651 86.6892C82.686 85.8957 81.5546 85.4375 80.3702 85.3953C79.8045 85.3944 79.245 85.5128 78.7282 85.7426C78.2115 85.9724 77.7491 86.3086 77.3715 86.729C76.9938 87.1495 76.7092 87.6448 76.5365 88.1826C76.3637 88.7204 76.3066 89.2886 76.3689 89.8499C76.4444 90.9704 76.8463 92.0444 77.5251 92.94C78.2039 93.8355 79.13 94.5135 80.1896 94.8906C82.6102 95.6931 83.6128 91.8517 81.1921 91.0582C80.9965 90.9408 80.8274 90.7842 80.6954 90.5983C80.5441 90.3729 80.4341 90.1226 80.3702 89.8589C80.3702 89.7417 80.3251 89.3449 80.298 89.399C80.2709 89.4531 80.0089 89.399 80.3702 89.399C80.9031 89.399 81.2734 90.0393 81.2734 90.5082C81.2734 90.6074 81.1921 90.9951 81.1921 91.0131C81.1921 91.0312 81.0025 91.3287 81.1199 91.1574C81.2373 90.9861 81.5986 91.0312 81.0657 91.1574C78.5638 91.7165 79.5844 95.5489 82.0773 94.9898L82.1044 94.9447Z" fill="black"/>
<path d="M65.2141 94.4307C67.0205 92.6272 64.2115 89.8228 62.405 91.6263C60.5986 93.4298 63.4076 96.2342 65.2141 94.4307Z" fill="black"/>
<path d="M82.3031 91.7255C84.1095 89.922 81.3005 87.1086 79.494 88.9211C77.6876 90.7336 80.4966 93.529 82.3031 91.7255Z" fill="black"/>
<path d="M167.721 97.9294C157.852 94.6782 147.391 93.6183 137.07 94.8239C126.748 96.0294 116.814 99.4713 107.964 104.909C105.326 106.55 102.743 108.399 99.7534 109.246C91.0554 111.699 81.6889 105.08 72.9999 107.443C66.298 109.246 61.818 115.937 55.1702 117.948C49.9405 119.526 44.3315 117.948 38.9121 117.56C31.6004 117.167 24.3308 118.894 17.9809 122.535C11.6309 126.175 6.47182 131.572 3.12634 138.075L30.4128 168.211L156.458 142.06L167.721 97.9294Z" fill="#F48A42"/>
<path d="M3.60502 137.813C7.43566 130.494 13.6107 124.665 21.1457 121.257C29.5637 117.515 37.1057 118.642 45.876 119.228C51.5257 119.738 57.1633 118.131 61.6915 114.72C65.0424 112.366 68.1857 109.237 72.2502 108.137C76.7211 106.92 81.3999 108.417 85.7986 109.318C90.8115 110.364 95.5534 111.194 100.485 109.363C106.997 106.947 112.507 102.312 119.073 99.787C134.138 94.0657 150.709 93.6522 166.041 98.6147C168.48 99.3902 169.482 95.5488 167.044 94.7824C153.081 90.2885 138.101 90.0062 123.978 93.9708C116.355 96.135 110.059 99.8501 103.204 103.619C93.8102 108.777 86.9457 104.251 77.3715 103.791C70.6334 103.457 66.1263 106.613 60.8786 110.473C51.2863 117.542 43.365 113.593 32.6347 114.377C18.8063 115.387 6.76631 123.845 0.254052 135.865C-0.956271 138.111 2.48502 140.076 3.70437 137.831L3.60502 137.813Z" fill="#DD7C3A"/>
</svg>
