<svg width="97" height="98" viewBox="0 0 97 98" fill="none" xmlns="http://www.w3.org/2000/svg">
<path d="M22.1452 63.474C13.1594 47.3469 26.7904 38.7214 26.7904 38.7214C29.7478 30.5382 30.1452 14.255 36.1633 7.89254C39.9465 3.87636 45.2213 0.089074 50.2897 1.42607C54.1297 2.43532 56.5658 6.14977 57.6652 9.98907C60.5504 20.0712 59.8742 34.7209 55.7091 44.7977L60.0446 45.7602C62.9658 37.5769 63.3736 25.6272 69.3865 19.2284C73.1749 15.2174 78.4446 11.4249 83.5129 12.7671C87.3529 13.7712 89.7942 17.4908 90.8884 21.3301C93.7736 31.4122 90.202 44.5428 86.0368 54.6249C86.0368 54.6249 90.2381 76.7556 79.2549 80.7821L17.8768 59.1613" fill="white"/>
<path d="M21.1593 64.0359C16.9426 56.0295 16.7206 47.0972 23.2238 40.303C25.8509 37.5561 26.0419 37.9775 26.9606 33.9561C28.509 27.1931 29.1284 20.1648 31.6058 13.6671C34.8729 4.96365 47.74 -5.91959 55.8071 3.85035C59.8329 8.71972 60.3903 16.3359 60.5348 22.3706C60.7206 30.096 59.6161 37.8943 56.8032 45.0995L55.9929 43.7053L60.3335 44.6677L58.9451 45.4845C62.078 36.0683 62.1296 24.8053 69.5619 17.4544C74.6509 12.4186 82.7335 8.4388 88.54 14.6556C94.3464 20.8723 93.5464 31.3342 92.0651 39.0388C91.0896 44.0954 89.0251 48.6839 87.6729 53.6053C87.2135 55.2856 87.5077 56.6382 87.6729 58.5527C88.2458 64.4261 87.8019 84.533 77.4587 81.3856C67.1154 78.2382 57.0045 74.1804 46.8264 70.5908L17.5567 60.2798C16.1838 59.796 16.7516 57.5798 18.1348 58.0637L67.1309 75.3301L77.3348 78.9249C77.8509 79.107 78.8006 79.674 79.3529 79.6376C81.5413 79.492 83.7038 75.2417 84.38 73.2856C86.2845 67.7972 85.66 61.8978 85.1284 56.248C84.9987 55.5345 84.9657 54.8064 85.0303 54.0839C85.3709 51.7845 87.0122 48.9284 87.7245 46.6862C88.4367 44.444 89.0406 42.2434 89.5361 39.9804C90.7335 34.4712 91.3787 28.5353 90.1142 22.9741C88.3954 15.4463 82.2793 11.4769 75.3116 15.6908C64.5245 22.2405 64.7 35.2775 61.1232 46.0411C61.0398 46.3307 60.8493 46.577 60.5909 46.7291C60.3325 46.8811 60.026 46.9272 59.7348 46.8579L55.3993 45.8954C55.1095 45.8172 54.8619 45.627 54.7102 45.366C54.5585 45.105 54.515 44.7943 54.589 44.5012C56.8896 38.4973 58.1332 32.1349 58.2638 25.7001C58.4238 19.5457 58.2638 11.7735 54.8729 6.4151C49.758 -1.6745 39.8793 4.21972 35.8071 10.1556C32.8961 14.4006 31.9722 20.04 31.0019 25.0342C30.1967 29.1596 30.1606 35.3764 27.9051 39.0024C27.358 39.8816 26.3877 40.407 25.6135 41.1249C19.1722 47.066 19.198 55.4417 23.1206 62.8966C23.8019 64.1972 21.8354 65.3313 21.149 64.0255L21.1593 64.0359Z" fill="black"/>
<path d="M59.5439 56.6382C58.2072 56.3365 57.6033 54.8954 57.7891 53.6261C57.8833 52.9503 58.2107 52.3296 58.7138 51.873C59.2169 51.4163 59.8635 51.1529 60.5401 51.129C60.8631 51.1284 61.1827 51.1966 61.4777 51.3293C61.7728 51.4619 62.0367 51.6559 62.2521 51.8986C62.4675 52.1413 62.6296 52.4271 62.7277 52.7374C62.8258 53.0477 62.8577 53.3753 62.8214 53.6989C62.7789 54.3442 62.5501 54.9629 62.1631 55.4787C61.7761 55.9945 61.2478 56.3849 60.6433 56.6018C59.2549 57.0648 58.682 54.8538 60.0652 54.3908C60.1784 54.3272 60.2755 54.2382 60.3491 54.1307C60.4346 54.0002 60.4974 53.8559 60.5349 53.7041C60.5349 53.6365 60.5349 53.4076 60.5762 53.4388C60.6175 53.47 60.7414 53.4388 60.5401 53.4388C60.2304 53.4388 60.0239 53.8082 60.0239 54.0787C60.0239 54.1359 60.0704 54.3544 60.0704 54.37C60.0704 54.3856 60.1788 54.5521 60.1117 54.448C60.0446 54.344 59.8381 54.3752 60.1426 54.448C61.5723 54.7758 60.9891 56.9868 59.5646 56.6642L59.5439 56.6382Z" fill="black"/>
<path d="M50.0831 54.7758C48.7464 54.4741 48.1425 53.0382 48.3283 51.7689C48.4203 51.0926 48.7461 50.4708 49.2485 50.013C49.7508 49.5552 50.3973 49.2909 51.0741 49.2665C51.3974 49.266 51.7171 49.3343 52.0124 49.4669C52.3077 49.5995 52.5718 49.7934 52.7877 50.036C53.0035 50.2786 53.1661 50.5643 53.2648 50.8746C53.3635 51.1849 53.3961 51.5126 53.3605 51.8365C53.3174 52.4829 53.0878 53.1026 52.6999 53.6192C52.312 54.1359 51.7828 54.527 51.1773 54.7446C49.7941 55.2076 49.2212 52.9914 50.6044 52.5336C50.7162 52.4659 50.8129 52.3755 50.8883 52.2683C50.9747 52.1382 51.0376 51.9938 51.0741 51.8417C51.0741 51.7741 51.0999 51.5452 51.1154 51.5764C51.1309 51.6076 51.2806 51.5764 51.0741 51.5764C50.7696 51.5764 50.558 51.9457 50.558 52.2163C50.558 52.2735 50.6044 52.4972 50.6044 52.5076C50.6044 52.518 50.7128 52.6897 50.6457 52.5908C50.5786 52.492 50.3722 52.518 50.6767 52.5908C52.1064 52.9134 51.5231 55.1243 50.0986 54.8018L50.0831 54.7758Z" fill="black"/>
<path d="M59.7349 54.4793C58.7026 53.4388 60.3078 51.8209 61.34 52.8613C62.3723 53.9018 60.7671 55.5197 59.7349 54.4793Z" fill="black"/>
<path d="M49.9697 52.9186C48.9375 51.8781 50.5426 50.255 51.5749 51.3006C52.6072 52.3463 51.002 53.959 49.9697 52.9186Z" fill="black"/>
<path d="M1.15943 56.4977C6.79873 54.622 12.7764 54.0106 18.6746 54.7061C24.5728 55.4016 30.2491 57.3873 35.3065 60.5243C36.8136 61.4712 38.2898 62.5376 39.9981 63.0266C44.9685 64.4417 50.3207 60.6232 55.2859 61.9862C59.1156 63.0266 61.6756 66.8868 65.4743 68.0469C68.4627 68.9573 71.6678 68.0469 74.7646 67.8232C78.9427 67.5962 83.0968 68.593 86.7253 70.6931C90.3539 72.7932 93.3019 75.9069 95.2136 79.6584L79.6214 97.0446L7.59557 81.9579L1.15943 56.4977Z" fill="#F48A42"/>
<path d="M94.94 79.5076C92.751 75.2848 89.2224 71.9222 84.9168 69.9561C80.1064 67.7972 75.7968 68.4475 70.7852 68.7856C67.5567 69.0798 64.3353 68.1525 61.7477 66.1845C59.8329 64.8267 58.0368 63.0215 55.7142 62.3868C53.1593 61.6845 50.4858 62.548 47.9722 63.0683C45.1077 63.6717 42.3981 64.1504 39.58 63.0943C35.8587 61.7001 32.7103 59.0261 28.958 57.5694C20.3495 54.2687 10.8808 54.0301 2.11934 56.8931C0.725792 57.3405 0.152885 55.1244 1.54643 54.6822C9.52517 52.0895 18.0854 51.9267 26.1555 54.2139C30.5116 55.4625 34.109 57.6058 38.0264 59.7804C43.3942 62.7561 47.3168 60.1446 52.7877 59.8793C56.6381 59.6868 59.2135 61.5076 62.2122 63.7342C67.6935 67.8128 72.22 65.5342 78.3516 65.9868C86.2535 66.5694 93.1335 71.4492 96.8548 78.3839C97.5464 79.6793 95.58 80.8134 94.8832 79.518L94.94 79.5076Z" fill="#DD7C3A"/>
</svg>
