<svg width="288" height="408" viewBox="0 0 288 408" fill="none" xmlns="http://www.w3.org/2000/svg">
<path d="M41.3651 379.201L48.807 389.197C48.807 389.197 66.342 393.238 67.6443 393.35C68.9466 393.462 76.5002 392.417 76.5002 392.417L41.3651 379.201Z" fill="white"/>
<path d="M144.194 104.717L147.747 108.973L159.431 110.018L216.389 146.606L213.45 150.283L89.3095 103.765L85.9886 96.9043L144.194 104.717Z" fill="white"/>
<path d="M65.6257 157.517L55.3931 147.25L33.2627 140.343L15.9789 141.277L6.81606 149.994L2.6579 165.703L6.69513 182.802L22.3789 199.92L43.1418 218.494L40.8069 230.105L34.5464 259.823L29.8115 305.67L33.4488 352.88L39.4395 381.973L69.9141 391.717L99.9701 395.068L108.1 389.346L104.9 378.006L100.826 365.499L103.812 357.677L111.068 353.281L131.468 355.204L151.096 359.385L156.035 375.253L159.17 390.849L165.068 398.755L180.65 403.561L197.319 405.559L227.887 401.06L243.701 385.389L233.794 366.862L225.227 350.276L217.98 326.755L215.013 297.69L217.915 272.601L228.52 253.934L249.45 231.822L270.715 209.123L283.385 191.734L284.687 177.053L278.045 167.196L265.022 159.561L244.827 157.695L221.989 166.925L210.538 175.634L196.826 196.644C196.826 196.644 170.538 212.67 170.64 212.072C170.743 211.475 158.37 214.611 158.37 214.611L132.631 210.15L106.351 199.155L81.3188 179.283L67.728 161.549L65.6257 157.517Z" fill="white"/>
<path d="M153.617 214.937C160.599 220.437 165.323 228.32 166.891 237.086C159.466 235.6 152.137 233.662 144.947 231.281L132.268 245.99C132.05 246.319 131.718 246.554 131.338 246.653C130.686 246.737 130.221 246.046 129.933 245.458L121.431 228.322C112.069 232.033 102.126 234.056 92.063 234.295C96.5159 223.126 101.89 212.349 108.128 202.076" fill="#4DBC33"/>
<path d="M153.617 214.937C160.599 220.437 165.323 228.32 166.891 237.086C159.466 235.6 152.137 233.662 144.947 231.281L132.268 245.99C132.05 246.319 131.718 246.554 131.338 246.653C130.686 246.737 130.221 246.046 129.933 245.458L121.431 228.322C112.069 232.033 102.126 234.056 92.063 234.295C96.5159 223.126 101.89 212.349 108.128 202.076" stroke="black" stroke-width="0.5" stroke-miterlimit="10"/>
<path d="M152.231 216.319C158.933 221.617 163.478 229.187 165.012 237.609L167.412 235.201C159.991 233.693 152.664 231.752 145.468 229.386C145.134 229.291 144.78 229.288 144.444 229.379C144.108 229.469 143.803 229.649 143.561 229.899L136.798 237.74L133.421 241.66L131.728 243.62C131.375 244.04 129.961 245.076 131.217 244.861C131.849 245.011 131.989 244.861 131.626 244.469L131.059 243.33L129.924 241.044L127.654 236.489L123.096 227.333C122.882 226.953 122.548 226.655 122.148 226.487C121.747 226.318 121.302 226.287 120.882 226.399C111.682 230.028 101.925 232.027 92.0444 232.307L93.9049 234.79C98.3261 223.797 103.634 213.183 109.775 203.056C111.086 200.89 107.71 198.921 106.398 201.077C100.1 211.504 94.6617 222.429 90.1375 233.745C90.0596 234.034 90.0485 234.337 90.105 234.631C90.1615 234.925 90.2841 235.203 90.4635 235.442C90.6429 235.681 90.8743 235.877 91.1402 236.013C91.4061 236.149 91.6995 236.222 91.9979 236.228C102.234 235.966 112.347 233.923 121.886 230.189L119.682 229.255L124.956 239.877L127.654 245.309C128.333 246.681 129.021 248.231 130.677 248.548C132.333 248.865 133.3 247.755 134.259 246.681L138.268 242.014L146.296 232.681L144.435 233.185C151.634 235.548 158.964 237.487 166.389 238.99C166.721 239.073 167.07 239.069 167.4 238.977C167.73 238.884 168.03 238.708 168.272 238.464C168.514 238.221 168.689 237.919 168.779 237.587C168.87 237.256 168.873 236.906 168.789 236.573C167.11 227.484 162.214 219.31 155.003 213.556C153.049 212.007 150.268 214.769 152.212 216.356L152.231 216.319Z" fill="black" stroke="black" stroke-width="0.5" stroke-miterlimit="10"/>
<path d="M153.217 108.945L145.608 107.274" stroke="black" stroke-miterlimit="10"/>
<path d="M153.738 107.059L146.128 105.379C145.875 105.291 145.606 105.257 145.339 105.277C145.071 105.298 144.811 105.373 144.574 105.498C144.337 105.624 144.127 105.797 143.959 106.006C143.791 106.216 143.668 106.458 143.596 106.717C143.525 106.977 143.508 107.248 143.545 107.514C143.582 107.781 143.673 108.037 143.813 108.266C143.952 108.496 144.138 108.695 144.357 108.85C144.576 109.005 144.824 109.113 145.087 109.169L152.696 110.839C152.952 110.955 153.23 111.013 153.511 111.011C153.792 111.008 154.069 110.945 154.324 110.826C154.578 110.706 154.804 110.533 154.986 110.318C155.167 110.102 155.3 109.851 155.376 109.579C155.452 109.308 155.468 109.023 155.425 108.745C155.381 108.466 155.277 108.201 155.122 107.966C154.966 107.731 154.762 107.533 154.523 107.384C154.285 107.236 154.017 107.141 153.738 107.106V107.059Z" stroke="black" stroke-miterlimit="10"/>
<path d="M211.933 177.024C221.115 168.512 232.399 162.529 244.864 160.802C255.915 159.272 270.324 159.972 278.111 169.137C280.042 171.479 281.465 174.2 282.288 177.125C283.111 180.05 283.317 183.115 282.892 186.124C281.962 192.35 278.315 197.68 274.287 202.318C269.636 207.704 264.594 212.8 259.72 217.999L244.101 234.678C239.924 239.149 235.515 243.377 231.292 247.801C227.048 252.314 223.282 257.256 220.054 262.548C218.715 264.695 222.101 266.665 223.431 264.527C226.45 259.578 229.962 254.949 233.915 250.713C237.803 246.635 241.896 242.761 245.757 238.645L262.501 220.78C267.608 215.32 272.929 210.009 277.748 204.297C281.934 199.35 285.646 193.703 286.678 187.17C287.701 180.722 286.266 174.124 282.659 168.689C275.32 157.834 260.994 155.678 248.855 156.481C233.85 157.47 220.157 164.069 209.18 174.215C207.319 175.932 210.11 178.704 211.971 177.015L211.933 177.024Z" fill="black" stroke="black" stroke-width="0.75" stroke-miterlimit="10"/>
<path d="M64.7047 151.935C61.443 148.838 57.7787 146.198 53.8116 144.086C50.3555 142.416 46.7147 141.163 42.9651 140.352C38.1185 139.214 33.1697 137.972 28.1929 137.674C22.8599 137.231 17.5217 138.464 12.9184 141.202C8.97841 143.71 5.8071 147.264 3.75556 151.469C1.40818 156.566 0.534706 162.222 1.23462 167.793C1.76083 173.495 3.12442 179.087 5.28116 184.388C6.30202 186.936 7.76674 189.281 9.60676 191.314C11.4358 193.165 13.3709 194.907 15.4021 196.532C23.7743 203.653 32.2208 210.672 39.8116 218.596C40.7418 219.53 41.6162 220.51 42.4907 221.49C42.8607 221.861 43.3627 222.07 43.886 222.07C44.4094 222.07 44.9113 221.861 45.2814 221.49C45.6514 221.118 45.8593 220.615 45.8593 220.09C45.8593 219.565 45.6514 219.061 45.2814 218.69C38.2209 210.84 30.165 203.952 22.1557 197.12L16.4254 192.229C14.4621 190.712 12.688 188.963 11.1417 187.021C8.22071 182.904 6.96489 177.687 5.95093 172.852C4.85325 167.625 4.36022 162.09 5.83 156.882C7.00423 152.771 9.3441 149.09 12.5649 146.289C15.9435 143.455 20.1487 141.801 24.5464 141.575C29.4952 141.276 34.286 142.443 39.0953 143.442C42.748 144.149 46.3356 145.161 49.8209 146.466L50.0907 146.578C50.0907 146.578 49.8581 146.475 50.0907 146.578L50.7047 146.849C51.1233 147.035 51.5326 147.231 51.9419 147.446C52.7605 147.857 53.5512 148.305 54.3326 148.771C56.0273 149.81 57.6468 150.967 59.1791 152.234C60.1094 153.009 61.0396 153.821 61.9698 154.642C62.3433 155.007 62.8439 155.211 63.3652 155.211C63.8865 155.211 64.3871 155.007 64.7606 154.642C64.9451 154.459 65.0915 154.241 65.1915 154.001C65.2915 153.76 65.3429 153.502 65.3429 153.242C65.3429 152.982 65.2915 152.724 65.1915 152.484C65.0915 152.243 64.9451 152.025 64.7606 151.842L64.7047 151.935Z" fill="black" stroke="black" stroke-width="0.75" stroke-miterlimit="10"/>
<path d="M240.25 385.491C235.431 393.042 228.771 398.391 219.999 400.481C214.711 401.579 209.351 402.297 203.961 402.628C198.327 403.194 192.65 403.21 187.012 402.675C182.352 402.173 177.742 401.271 173.236 399.977C169.71 398.969 165.589 397.737 163.384 394.582C161.214 391.534 159.787 388.018 159.217 384.315C158.808 381.067 158.398 377.782 157.868 374.58C157.327 370.593 156.392 366.669 155.077 362.867C154.054 360.132 152.51 356.706 149.394 355.922C146.947 355.297 145.905 359.087 148.352 359.703C148.629 359.767 148.886 359.902 149.096 360.095C149.466 360.442 149.779 360.845 150.026 361.289C150.799 362.615 151.406 364.032 151.831 365.508C152.932 369.173 153.75 372.917 154.277 376.708C154.752 379.733 155.04 382.775 155.496 385.799C156.258 390.011 158.012 393.98 160.612 397.373C163.133 400.668 167.245 402.236 171.087 403.421C175.604 404.788 180.228 405.771 184.91 406.361C190.659 407.08 196.468 407.192 202.24 406.697C208.013 406.345 213.759 405.65 219.45 404.616C224.347 403.704 229 401.771 233.106 398.941C237.314 395.831 240.886 391.936 243.627 387.47C244.985 385.333 241.599 383.363 240.25 385.491Z" fill="black" stroke="black" stroke-width="0.75" stroke-miterlimit="10"/>
<path d="M220.054 262.549C211.85 277.212 212.315 295.058 213.85 311.289C215.58 329.499 219.924 347.196 229.18 363.091C231.757 367.506 234.566 371.79 237.385 376.055L239.366 379.042C240.055 380.087 240.929 381.105 240.994 382.411C240.907 383.641 240.591 384.844 240.064 385.958C239.236 388.348 243.013 389.374 243.785 387.004C244.799 384.073 245.376 381.403 243.692 378.547C241.413 374.692 238.696 371.08 236.296 367.272C231.286 359.665 227.207 351.479 224.147 342.893C221.301 334.297 219.346 325.43 218.315 316.432C217.209 308.055 216.761 299.604 216.975 291.156C217.301 281.972 218.901 272.657 223.431 264.555C224.659 262.353 221.282 260.374 220.054 262.577V262.549Z" fill="black" stroke="black" stroke-width="0.75" stroke-miterlimit="10"/>
<path d="M41.9976 219.577C38.7697 231.29 35.8302 243.088 33.4673 255.044C31.4355 265.159 29.9172 275.371 28.9185 285.64C28.0428 294.909 27.7012 304.221 27.8952 313.529C28.0906 322.751 28.8255 331.954 29.9138 341.11C30.4999 346.048 31.1883 350.976 31.9418 355.895C32.7697 361.261 33.5046 366.684 34.7325 371.976C35.9604 377.269 38.1185 382.813 42.1279 386.789C45.7093 390.336 50.407 392.51 55.1512 393.845C60.3362 395.146 65.6302 395.961 70.9652 396.281C77.5389 396.847 84.1281 397.143 90.7328 397.168C93.9979 397.168 97.2444 397.121 100.537 397C103.115 397.027 105.603 396.05 107.477 394.274C109.165 392.573 110.143 390.29 110.212 387.89C110.296 385.09 108.817 382.365 107.747 379.826C105.551 374.646 102.826 368.868 103.412 363.081C103.522 361.907 103.915 360.776 104.556 359.787C105.07 359.068 105.722 358.459 106.472 357.995C108.245 356.991 110.212 356.383 112.24 356.212C116.891 355.717 121.635 356.212 126.193 356.651C131.366 357.148 136.513 357.802 141.635 358.611C143.837 358.947 146.038 359.317 148.24 359.721C148.74 359.844 149.268 359.77 149.716 359.515C150.164 359.26 150.498 358.843 150.649 358.349C150.781 357.848 150.712 357.315 150.456 356.865C150.2 356.415 149.779 356.083 149.282 355.941C139.451 354.047 129.507 352.8 119.514 352.208C114.91 351.965 110.091 351.946 105.793 353.86C103.663 354.775 101.887 356.361 100.733 358.377C99.2631 361.065 99.1607 364.229 99.5514 367.216C100.324 373.19 103.003 378.557 105.226 384.082C105.477 384.707 105.747 385.342 105.951 385.996C106.11 386.452 106.198 386.931 106.212 387.414C106.247 388.251 106.091 389.084 105.756 389.85C105.384 390.692 104.803 391.423 104.068 391.973C103.334 392.524 102.47 392.876 101.561 392.996C100.398 393.164 98.6863 393.117 97.3468 393.154C95.6816 393.154 94.0165 393.22 92.3607 393.22C89.0862 393.22 85.849 393.22 82.5467 393.061C76.4164 392.837 70.2489 392.454 64.1559 391.642C59.42 391.164 54.7926 389.919 50.4535 387.956C46.1446 385.839 42.7066 382.281 40.7325 377.894C38.3976 372.882 37.7371 367.207 36.8441 361.803C36.0255 356.884 35.2534 351.965 34.5836 347.028C33.3557 338.03 32.4348 328.818 32.0162 319.68C31.5913 310.594 31.6783 301.492 32.2766 292.416C32.9532 282.693 34.1487 273.012 35.8581 263.417C37.8488 252.123 40.4162 240.932 43.3 229.816C44.1 226.704 44.9248 223.634 45.7744 220.603C46.4442 218.167 42.6767 217.122 41.9976 219.558V219.577Z" fill="black" stroke="black" stroke-width="0.75" stroke-miterlimit="10"/>
<path d="M153.868 109.551C154.259 101.907 157.794 94.7668 161.952 88.3453C170.631 74.9422 182.687 63.3871 197.403 57.2736C212.12 51.16 229.627 50.9547 243.617 58.6083C251.171 62.6964 257.766 69.4166 259.655 77.8169C262.287 89.5306 255.506 101.151 248.417 110.821C238.718 124.079 227.88 136.459 216.027 147.819" fill="white"/>
<path d="M153.868 109.551C154.259 101.907 157.794 94.7668 161.952 88.3453C170.631 74.9422 182.687 63.3871 197.403 57.2736C212.12 51.16 229.627 50.9547 243.617 58.6083C251.171 62.6964 257.766 69.4166 259.655 77.8169C262.287 89.5306 255.506 101.151 248.417 110.821C238.718 124.079 227.88 136.459 216.027 147.819" stroke="black" stroke-width="0.75" stroke-miterlimit="10"/>
<path d="M155.822 109.551C156.296 101.907 159.933 94.9629 164.063 88.6814C167.841 82.9179 172.271 77.6122 177.263 72.8701C187.273 63.4245 199.924 56.5363 213.719 55.0522C227.208 53.5495 242.166 56.9843 251.71 67.2513C254.073 69.7046 255.871 72.6469 256.98 75.8717C258.089 79.0965 258.481 82.5256 258.129 85.9186C257.31 93.4788 253.283 100.432 249.069 106.583C239.161 121.032 227.264 134.304 214.65 146.401C212.789 148.146 215.58 150.918 217.44 149.201C229.617 137.553 240.729 124.834 250.641 111.194C255.357 104.661 259.831 97.4736 261.524 89.484C262.342 85.8855 262.415 82.157 261.74 78.529C261.064 74.9009 259.655 71.4502 257.599 68.39C249.227 56.1163 233.543 50.6561 219.18 50.7961C204.101 50.9734 189.943 57.0963 178.417 66.6633C172.16 71.925 166.646 78.0167 162.026 84.7705C156.901 92.1628 152.51 100.404 151.942 109.561C151.784 112.09 155.663 112.081 155.849 109.561L155.822 109.551Z" fill="black" stroke="black" stroke-width="0.75" stroke-miterlimit="10"/>
<path d="M85.7095 98.2295C78.7885 73.9154 84.9281 47.2212 97.6817 25.4271C104.193 14.2267 114.212 3.14767 127.114 3.02633C140.017 2.90499 150.891 14.5534 154.194 27.1911C157.496 39.8289 155.124 53.1667 152.687 66.0098L145.096 106.499" fill="white"/>
<path d="M85.7095 98.2295C78.7885 73.9154 84.9281 47.2212 97.6817 25.4271C104.193 14.2267 114.212 3.14767 127.114 3.02633C140.017 2.90499 150.891 14.5534 154.194 27.1911C157.496 39.8289 155.124 53.1667 152.687 66.0098L145.096 106.499" stroke="black" stroke-width="0.75" stroke-miterlimit="10"/>
<path d="M87.5979 97.7164C83.5141 83.1559 84.1281 67.746 88.0537 53.2229C90.0064 45.9781 92.7095 38.9583 96.1189 32.2782C99.2538 26.1273 102.863 20.1444 107.589 15.0576C111.97 10.3908 117.356 6.42395 123.766 5.22925C129.831 4.10921 135.961 6.07861 140.78 9.81207C152.659 19.015 154.733 34.5182 153.403 48.5934C152.473 58.0297 150.408 67.3633 148.659 76.669L143.17 105.911C142.705 108.375 146.473 109.439 146.947 106.957L152.128 79.3197C153.794 70.4248 155.682 61.5858 156.854 52.5695C158.873 37.2343 157.645 20.5551 145.98 9.17738C141.254 4.56656 135.124 1.36512 128.463 1.02911C121.468 0.674428 114.91 3.59586 109.533 7.89867C104.017 12.3135 99.6538 18.1657 96.0817 24.2046C92.0111 31.1067 88.672 38.4174 86.1188 46.0173C80.4165 62.9299 78.9374 81.4385 83.7839 98.7524C84.463 101.179 88.2398 100.152 87.5607 97.7164H87.5979Z" fill="black" stroke="black" stroke-width="0.75" stroke-miterlimit="10"/>
<path d="M86.0258 98.5659C71.7187 106.08 59.0954 122.833 60.2954 138.943C60.9466 147.67 64.3326 156.024 68.9001 163.481C80.4164 182.345 99.2165 195.813 119.31 204.932C132.138 210.747 146.073 215.059 160.11 213.958C175.71 212.735 190.51 204.624 200.538 192.584C210.566 180.543 215.822 164.76 215.785 149.061" fill="white"/>
<path d="M86.0258 98.5659C71.7187 106.08 59.0954 122.833 60.2954 138.943C60.9466 147.67 64.3326 156.024 68.9001 163.481C80.4164 182.345 99.2165 195.813 119.31 204.932C132.138 210.747 146.073 215.059 160.11 213.958C175.71 212.735 190.51 204.624 200.538 192.584C210.566 180.543 215.822 164.76 215.785 149.061" stroke="black" stroke-width="0.75" stroke-miterlimit="10"/>
<path d="M85.0397 96.8765C70.4164 104.651 57.3186 121.144 58.314 138.467C59.4024 157.387 72.2676 174.495 86.0909 186.423C93.0581 192.369 100.643 197.545 108.714 201.861C117.478 206.726 126.766 210.572 136.398 213.323C146.194 216.002 156.473 216.973 166.501 215.059C175.376 213.324 183.75 209.612 191.003 204.195C206.306 192.836 215.496 175.055 217.366 156.173C217.602 153.809 217.716 151.438 217.71 149.061C217.71 146.541 213.803 146.531 213.803 149.061C213.803 167.038 206.78 184.977 193.412 197.176C186.846 203.27 178.927 207.707 170.311 210.117C161.694 212.528 152.63 212.843 143.868 211.036C134.333 209.244 125.189 205.688 116.482 201.46C108.768 197.756 101.42 193.327 94.5375 188.234C80.6862 177.893 67.8675 163.397 63.4675 146.233C62.1335 141.551 61.8162 136.637 62.5373 131.822C63.3438 127.469 64.892 123.289 67.1141 119.464C71.8033 111.315 78.678 104.65 86.956 100.227C89.1793 99.0419 87.2072 95.6538 84.9839 96.8391L85.0397 96.8765Z" fill="black" stroke="black" stroke-width="0.75" stroke-miterlimit="10"/>
<path d="M136.119 141.286C134.761 140.352 135.598 137.786 137.217 137.842C138.835 137.898 139.468 140.567 138.054 141.361" fill="white"/>
<path d="M137.114 139.568L137.021 139.503L137.421 139.811C137.329 139.737 137.244 139.652 137.17 139.559L137.477 139.96C137.395 139.851 137.326 139.732 137.273 139.606L137.468 140.072C137.412 139.935 137.375 139.79 137.356 139.643L137.421 140.166C137.398 139.977 137.398 139.785 137.421 139.596L137.356 140.119C137.385 139.904 137.441 139.694 137.524 139.494L137.319 139.97C137.398 139.795 137.495 139.63 137.607 139.475L137.3 139.867C137.401 139.738 137.516 139.622 137.645 139.522L137.245 139.83C137.354 139.747 137.472 139.678 137.598 139.624L137.133 139.82C137.249 139.771 137.371 139.736 137.496 139.718L136.975 139.792C137.104 139.774 137.236 139.774 137.366 139.792L136.845 139.718C136.969 139.736 137.091 139.771 137.207 139.82L136.742 139.624C136.866 139.676 136.982 139.746 137.087 139.83L136.687 139.522C136.803 139.612 136.909 139.715 137.003 139.83L136.696 139.438C136.808 139.587 136.902 139.75 136.975 139.923L136.77 139.447C136.852 139.644 136.908 139.851 136.938 140.063L136.873 139.54C136.891 139.739 136.891 139.939 136.873 140.138L136.938 139.615C136.916 139.775 136.875 139.931 136.817 140.082L137.012 139.615C136.959 139.737 136.894 139.852 136.817 139.96L137.124 139.559C137.043 139.658 136.953 139.749 136.854 139.83L137.254 139.522L137.077 139.634C136.629 139.892 136.296 140.313 136.147 140.81C136.078 141.058 136.058 141.319 136.09 141.575C136.121 141.831 136.203 142.079 136.33 142.304C136.457 142.528 136.627 142.725 136.83 142.884C137.034 143.042 137.266 143.159 137.514 143.227C138.025 143.352 138.563 143.278 139.021 143.022C139.567 142.691 140.017 142.222 140.324 141.662C140.631 141.101 140.785 140.469 140.77 139.83C140.767 139.26 140.647 138.698 140.417 138.178C140.333 137.948 140.224 137.729 140.091 137.524C139.921 137.259 139.722 137.015 139.496 136.796C139.266 136.584 139.009 136.402 138.733 136.255C138.38 136.067 137.995 135.947 137.598 135.9C137.189 135.841 136.773 135.857 136.37 135.947C136.045 136.013 135.732 136.126 135.44 136.283C134.921 136.598 134.484 137.034 134.166 137.552C133.996 137.829 133.856 138.123 133.747 138.43C133.681 138.582 133.634 138.742 133.607 138.906C133.431 139.585 133.431 140.298 133.607 140.978C133.701 141.309 133.846 141.624 134.035 141.911C134.316 142.326 134.677 142.682 135.096 142.956C135.317 143.087 135.562 143.172 135.817 143.207C136.071 143.242 136.33 143.226 136.578 143.16C136.826 143.094 137.059 142.979 137.263 142.823C137.467 142.666 137.638 142.47 137.766 142.247C137.898 142.021 137.983 141.771 138.017 141.511C138.05 141.251 138.031 140.987 137.961 140.735C137.803 140.245 137.472 139.83 137.031 139.568H137.114Z" fill="black"/>
<path d="M136.947 141.155C136.975 141.21 137.015 141.257 137.065 141.292C137.115 141.327 137.173 141.349 137.234 141.357C137.295 141.364 137.356 141.356 137.413 141.334C137.47 141.312 137.521 141.276 137.561 141.23C137.151 141.326 136.72 141.266 136.352 141.062C136.456 141.186 136.59 141.282 136.741 141.341C136.891 141.401 137.054 141.423 137.215 141.404C137.376 141.386 137.53 141.328 137.663 141.236C137.797 141.143 137.905 141.019 137.98 140.875" fill="white"/>
<path d="M135.263 142.144C135.258 142.16 135.258 142.176 135.263 142.191L135.57 142.592C135.709 142.734 135.865 142.856 136.035 142.956C136.388 143.166 136.788 143.281 137.198 143.292C137.316 143.306 137.434 143.306 137.552 143.292C137.671 143.284 137.789 143.265 137.905 143.236C138.176 143.163 138.428 143.029 138.64 142.844C138.872 142.683 139.065 142.473 139.207 142.228L139.403 141.762L139.477 141.239L139.403 140.716C139.347 140.469 139.229 140.241 139.059 140.054C138.973 139.907 138.851 139.785 138.705 139.699C138.586 139.58 138.439 139.494 138.277 139.447C138.123 139.362 137.951 139.317 137.775 139.316C137.522 139.247 137.256 139.247 137.003 139.316H136.835L137.356 139.242C137.211 139.26 137.064 139.26 136.919 139.242L137.44 139.316C137.283 139.291 137.13 139.247 136.984 139.186L137.449 139.382L137.301 139.316L136.835 139.111C136.58 139.041 136.31 139.041 136.054 139.111C135.881 139.108 135.71 139.153 135.561 139.242C135.322 139.319 135.107 139.457 134.938 139.643L134.631 140.044L134.435 140.511C134.366 140.768 134.366 141.038 134.435 141.295C134.447 141.554 134.527 141.805 134.668 142.023C134.782 142.195 134.909 142.357 135.049 142.508C135.202 142.65 135.363 142.781 135.533 142.9C135.96 143.17 136.452 143.318 136.956 143.33H137.217C137.475 143.321 137.731 143.281 137.98 143.208C138.215 143.132 138.443 143.032 138.659 142.91C138.867 142.78 139.058 142.623 139.226 142.443C139.403 142.263 139.554 142.059 139.673 141.836C139.809 141.617 139.889 141.367 139.905 141.108C139.975 140.852 139.975 140.581 139.905 140.324C139.846 140.074 139.725 139.842 139.552 139.652C139.416 139.439 139.227 139.265 139.003 139.148L138.538 138.952C138.197 138.859 137.837 138.859 137.496 138.952L137.031 139.148C136.741 139.32 136.501 139.565 136.333 139.858C136.302 139.916 136.268 139.972 136.231 140.026L136.538 139.634C136.492 139.69 136.439 139.741 136.38 139.783L136.78 139.475C136.712 139.529 136.636 139.573 136.556 139.606L137.031 139.4C136.945 139.439 136.854 139.464 136.761 139.475L137.282 139.41H136.994L137.514 139.475C137.422 139.467 137.331 139.445 137.245 139.41L137.719 139.606C137.652 139.577 137.589 139.54 137.533 139.494L137.924 139.802C137.873 139.76 137.826 139.713 137.784 139.662L138.091 140.063L135.412 142.751C135.652 142.874 135.901 142.98 136.156 143.068C136.263 143.102 136.372 143.127 136.482 143.143C136.752 143.194 137.026 143.222 137.301 143.227L137.701 143.18L138.119 143.115L135.914 140.231L136.221 139.83L136.166 139.876L136.566 139.568H136.501L136.966 139.372C136.932 139.378 136.897 139.378 136.863 139.372L137.384 139.307H137.282L137.803 139.382H137.691L138.166 139.578H138.082L138.482 139.886L138.78 140.278C138.775 140.253 138.775 140.228 138.78 140.203C138.657 139.98 138.482 139.79 138.268 139.652C138.082 139.479 137.854 139.357 137.607 139.298C137.352 139.228 137.082 139.228 136.826 139.298C136.569 139.306 136.318 139.383 136.1 139.522L135.7 139.83C135.464 140.073 135.291 140.371 135.198 140.698L135.133 141.22C135.133 141.568 135.227 141.91 135.403 142.21L135.263 142.144Z" fill="black"/>
<path d="M156.901 143.153C155.552 142.266 156.38 139.652 157.998 139.708C159.617 139.764 160.249 142.443 158.835 143.227" fill="white"/>
<path d="M157.887 141.417L157.803 141.351L158.194 141.659C158.103 141.586 158.019 141.504 157.942 141.417L158.249 141.809C158.167 141.699 158.098 141.58 158.045 141.454L158.24 141.93C158.184 141.789 158.147 141.642 158.128 141.491L158.203 142.014C158.175 141.828 158.175 141.64 158.203 141.454L158.128 141.977C158.156 141.761 158.212 141.551 158.296 141.351L158.101 141.818C158.173 141.642 158.267 141.476 158.38 141.323L158.082 141.725C158.174 141.592 158.287 141.475 158.417 141.379L158.026 141.678C158.132 141.595 158.248 141.526 158.37 141.473L157.905 141.669C158.022 141.624 158.144 141.593 158.268 141.575L157.747 141.641C157.88 141.622 158.014 141.622 158.147 141.641L157.626 141.575C157.75 141.593 157.872 141.624 157.989 141.669L157.515 141.473C157.638 141.524 157.754 141.593 157.859 141.678L157.468 141.37C157.582 141.464 157.685 141.57 157.775 141.687L157.515 141.286C157.625 141.437 157.719 141.6 157.794 141.771L157.515 141.286C157.598 141.483 157.655 141.69 157.682 141.902L157.608 141.379C157.635 141.577 157.635 141.778 157.608 141.977L157.682 141.454C157.657 141.611 157.613 141.765 157.552 141.911L157.756 141.445C157.703 141.568 157.634 141.684 157.552 141.79L157.859 141.398C157.781 141.494 157.694 141.582 157.598 141.659L157.989 141.351L157.812 141.473C157.589 141.601 157.394 141.773 157.238 141.977C157.083 142.182 156.969 142.416 156.904 142.665C156.839 142.915 156.824 143.174 156.86 143.43C156.896 143.685 156.983 143.93 157.115 144.151C157.366 144.603 157.783 144.938 158.277 145.085C158.786 145.218 159.326 145.148 159.784 144.889C160.333 144.559 160.785 144.089 161.094 143.526C161.403 142.964 161.558 142.329 161.542 141.687C161.534 141.119 161.414 140.557 161.189 140.035C161.101 139.811 160.992 139.595 160.863 139.391C160.69 139.126 160.488 138.882 160.259 138.663C160.032 138.448 159.779 138.263 159.505 138.112C159.145 137.933 158.759 137.813 158.361 137.758C157.958 137.688 157.546 137.688 157.142 137.758C156.816 137.823 156.502 137.94 156.212 138.103C155.668 138.416 155.208 138.859 154.873 139.391C154.702 139.667 154.561 139.962 154.454 140.269C154.386 140.424 154.336 140.587 154.305 140.754C154.146 141.435 154.166 142.145 154.361 142.817C154.448 143.149 154.589 143.464 154.78 143.75C155.06 144.166 155.421 144.521 155.84 144.795C156.289 145.055 156.821 145.127 157.323 144.996C157.824 144.865 158.254 144.542 158.519 144.095C158.777 143.636 158.847 143.094 158.715 142.583C158.55 142.095 158.221 141.679 157.784 141.407L157.887 141.417Z" fill="black"/>
<path d="M157.729 143.003C157.756 143.057 157.795 143.103 157.844 143.138C157.893 143.173 157.95 143.195 158.009 143.203C158.068 143.212 158.129 143.205 158.185 143.185C158.242 143.165 158.292 143.131 158.333 143.087C157.925 143.179 157.498 143.116 157.133 142.91C157.238 143.034 157.372 143.13 157.522 143.19C157.673 143.249 157.836 143.271 157.997 143.252C158.158 143.234 158.312 143.176 158.445 143.084C158.578 142.991 158.687 142.868 158.761 142.723" fill="white"/>
<path d="M156.035 144.002V144.048L156.342 144.44C156.479 144.583 156.632 144.708 156.798 144.814C157.151 145.023 157.552 145.136 157.961 145.14C158.082 145.149 158.203 145.149 158.324 145.14C158.443 145.128 158.561 145.106 158.677 145.075C158.95 145.006 159.203 144.872 159.412 144.683C159.639 144.521 159.832 144.314 159.98 144.076L160.175 143.6L160.24 143.087L160.175 142.564C160.116 142.314 159.994 142.083 159.822 141.892C159.736 141.746 159.614 141.624 159.468 141.538C159.351 141.416 159.203 141.329 159.04 141.286C158.89 141.2 158.72 141.155 158.547 141.155C158.291 141.085 158.022 141.085 157.766 141.155H157.608L158.129 141.09C157.98 141.104 157.83 141.104 157.682 141.09L158.203 141.164C158.049 141.144 157.899 141.103 157.756 141.043L158.222 141.239L158.073 141.164L157.608 140.968C157.352 140.899 157.082 140.899 156.826 140.968C156.653 140.969 156.484 141.014 156.333 141.099C156.091 141.179 155.873 141.321 155.701 141.51L155.394 141.902L155.198 142.378C155.129 142.631 155.129 142.899 155.198 143.152C155.216 143.413 155.296 143.666 155.431 143.89C155.552 144.048 155.673 144.226 155.812 144.375C155.966 144.516 156.131 144.644 156.305 144.758C156.516 144.887 156.74 144.99 156.975 145.066C157.218 145.135 157.467 145.178 157.719 145.196H157.989C158.244 145.179 158.497 145.136 158.742 145.066C158.98 144.995 159.209 144.895 159.422 144.767C159.633 144.641 159.827 144.487 159.998 144.31C160.178 144.131 160.326 143.922 160.435 143.694C160.58 143.478 160.661 143.226 160.668 142.966C160.738 142.709 160.738 142.438 160.668 142.182C160.612 141.935 160.494 141.706 160.324 141.519C160.186 141.307 159.997 141.134 159.775 141.015L159.31 140.81C158.969 140.716 158.609 140.716 158.268 140.81L157.803 141.015C157.508 141.18 157.264 141.422 157.096 141.715C157.071 141.779 157.037 141.839 156.994 141.892L157.301 141.491C157.258 141.548 157.208 141.598 157.152 141.64L157.542 141.332C157.477 141.385 157.405 141.429 157.329 141.463L157.794 141.267C157.71 141.302 157.623 141.327 157.533 141.342L158.054 141.267C157.955 141.281 157.855 141.281 157.756 141.267L158.277 141.342C158.188 141.327 158.101 141.302 158.017 141.267L158.482 141.463L158.296 141.36L158.696 141.668C158.642 141.626 158.595 141.575 158.556 141.519L158.863 141.92L156.194 144.608C156.431 144.739 156.68 144.845 156.938 144.926C157.04 144.964 157.146 144.989 157.254 145C157.526 145.061 157.804 145.089 158.082 145.084C158.212 145.094 158.343 145.094 158.473 145.084C158.617 145.073 158.76 145.051 158.901 145.019L156.696 142.135L157.003 141.734V141.79L157.394 141.482H157.338L157.803 141.276C157.769 141.285 157.734 141.285 157.701 141.276L158.222 141.211H158.11L158.631 141.276C158.597 141.286 158.562 141.286 158.529 141.276L158.994 141.472L158.919 141.426L159.31 141.734L159.263 141.687L159.57 142.088C159.551 142.062 159.536 142.034 159.524 142.004C159.405 141.781 159.232 141.592 159.022 141.454C158.822 141.29 158.591 141.172 158.342 141.106C158.093 141.04 157.833 141.028 157.58 141.071C157.319 141.084 157.066 141.164 156.845 141.304L156.454 141.612C156.214 141.853 156.04 142.152 155.952 142.48L155.877 142.994C155.877 143.345 155.97 143.689 156.147 143.992L156.035 144.002Z" fill="black"/>
<path d="M176.864 157.666L160.119 156.369C159.719 156.357 159.322 156.428 158.95 156.575C158.578 156.723 158.24 156.945 157.956 157.228C157.672 157.511 157.449 157.849 157.3 158.221C157.15 158.593 157.078 158.992 157.087 159.393V162.707C157.102 163.484 156.814 164.236 156.284 164.803C155.753 165.37 155.023 165.706 154.249 165.74H145.421C145.038 165.729 144.661 165.642 144.312 165.483C143.963 165.323 143.649 165.096 143.389 164.813C143.129 164.531 142.928 164.199 142.798 163.837C142.668 163.475 142.611 163.091 142.631 162.707L142.696 157.853C142.731 157.117 142.487 156.396 142.012 155.834C141.537 155.273 140.867 154.913 140.138 154.829L104.789 152.094C104.329 152.087 103.874 152.185 103.458 152.382C103.042 152.578 102.677 152.868 102.39 153.229C102.103 153.589 101.903 154.011 101.804 154.462C101.706 154.912 101.712 155.38 101.821 155.828C104.651 168.653 111.687 180.156 121.803 188.495C126.845 192.537 132.705 195.645 138.984 196.14C143.011 196.337 147.042 195.838 150.901 194.665C158.873 192.49 166.78 188.794 172.491 182.335C177.71 176.427 180.78 167.877 179.394 160.009C179.294 159.391 178.99 158.824 178.532 158.4C178.073 157.975 177.486 157.717 176.864 157.666Z" fill="#F4628F" stroke="black" stroke-width="0.5" stroke-miterlimit="10"/>
<path d="M176.863 155.706L161.915 154.549C161.31 154.502 160.696 154.409 160.054 154.409C158.903 154.398 157.785 154.792 156.893 155.522C156.001 156.251 155.392 157.271 155.17 158.404C154.891 159.748 155.17 161.139 155.022 162.483C154.873 163.827 154.296 163.78 153.263 163.78H148.966C147.794 163.911 146.612 163.911 145.44 163.78C144.333 163.5 144.584 162.287 144.594 161.353C144.594 160.121 144.705 158.861 144.594 157.62C144.398 154.465 142.035 153.018 139.198 152.804L133.17 152.337L114.11 150.862L106.826 150.302C105.207 150.172 103.607 149.892 102.119 150.797C99.7003 152.253 99.477 154.913 100.091 157.405C100.717 159.978 101.512 162.507 102.472 164.975C104.409 170.025 106.999 174.798 110.175 179.171C116.417 187.684 125.524 195.972 136.221 197.792C142.147 198.819 148.128 197.633 153.794 195.851C158.99 194.307 163.889 191.897 168.287 188.72C176.854 182.307 182.771 171.77 181.31 160.803C181.003 158.404 179.868 156.182 177.245 155.772C174.789 155.389 173.729 159.169 176.212 159.561C178.231 159.869 177.663 163.957 177.561 165.488C177.366 168.034 176.789 170.536 175.85 172.908C173.964 177.6 170.881 181.711 166.91 184.827C162.948 187.897 158.476 190.239 153.701 191.744C148.482 193.489 142.733 194.954 137.217 194.012C127.356 192.332 118.854 184.678 113.179 176.773C110.217 172.662 107.803 168.182 105.998 163.444C105.116 161.131 104.38 158.765 103.793 156.36C103.514 155.23 103.365 154.101 104.798 154.073C106.231 154.045 107.477 154.278 108.779 154.381L116.593 154.988L133.998 156.332L139.291 156.733C140.975 156.864 140.621 158.423 140.603 159.972C140.499 161.215 140.517 162.466 140.659 163.705C140.842 164.772 141.376 165.746 142.175 166.473C142.974 167.201 143.992 167.639 145.068 167.719C147.347 167.878 149.673 167.719 151.952 167.719C152.882 167.766 153.815 167.741 154.742 167.644C155.779 167.47 156.732 166.966 157.461 166.206C158.19 165.446 158.655 164.471 158.789 163.425C158.966 162.203 158.789 160.943 158.901 159.692C158.956 158.759 159.375 158.301 160.315 158.348C165.329 158.619 170.333 159.123 175.338 159.505L176.761 159.617C179.375 159.823 179.366 155.893 176.863 155.706Z" fill="black" stroke="black" stroke-width="0.5" stroke-miterlimit="10"/>
<path d="M146.445 107.181C148.148 107.711 149.886 108.125 151.645 108.422C152.528 108.571 153.505 107.33 152.268 107.125C150.648 106.845 149.048 106.461 147.477 105.977C146.714 105.734 145.366 106.854 146.445 107.181Z" fill="black"/>
<path d="M145.421 108.786C147.338 109.066 149.232 109.487 151.087 110.046L151.738 108.973C150.15 109.036 148.566 108.769 147.087 108.189C146.878 108.109 146.653 108.08 146.431 108.106C146.209 108.132 145.997 108.212 145.812 108.338C145.598 108.487 145.245 108.945 145.673 109.113C147.523 109.821 149.499 110.139 151.477 110.046C151.97 110.046 153.059 109.243 152.128 108.973C150.139 108.381 148.109 107.938 146.054 107.647C145.301 107.545 144.194 108.581 145.384 108.758L145.421 108.786Z" fill="black"/>
</svg>
