<svg width="41" height="42" viewBox="0 0 41 42" fill="none" xmlns="http://www.w3.org/2000/svg">
<path fill-rule="evenodd" clip-rule="evenodd" d="M20.24 10.6511C18.1816 10.6511 16.1694 11.2615 14.4579 12.4051C12.7464 13.5486 11.4125 15.1741 10.6248 17.0758C9.83704 18.9775 9.63093 21.0701 10.0325 23.0889C10.4341 25.1078 11.4253 26.9622 12.8808 28.4177C14.3363 29.8732 16.1908 30.8645 18.2096 31.266C20.2285 31.6676 22.321 31.4615 24.2228 30.6738C26.1245 29.8861 27.7499 28.5521 28.8935 26.8406C30.0371 25.1291 30.6475 23.1169 30.6475 21.0585C30.6475 19.6918 30.3783 18.3385 29.8552 17.0758C29.3322 15.8131 28.5656 14.6658 27.5992 13.6994C26.6328 12.7329 25.4855 11.9663 24.2228 11.4433C22.9601 10.9203 21.6067 10.6511 20.24 10.6511ZM20.24 27.8175C18.9032 27.8175 17.5964 27.4211 16.4849 26.6784C15.3734 25.9357 14.5071 24.8801 13.9955 23.6451C13.484 22.41 13.3501 21.051 13.6109 19.7399C13.8717 18.4288 14.5154 17.2245 15.4607 16.2792C16.4059 15.334 17.6103 14.6903 18.9214 14.4295C20.2325 14.1687 21.5915 14.3025 22.8265 14.8141C24.0616 15.3257 25.1172 16.192 25.8599 17.3035C26.6025 18.415 26.999 19.7217 26.999 21.0585C26.9999 21.9464 26.8258 22.8258 26.4864 23.6462C26.1471 24.4667 25.6493 25.2122 25.0215 25.84C24.3936 26.4678 23.6482 26.9657 22.8277 27.305C22.0072 27.6443 21.1279 27.8185 20.24 27.8175Z" fill="black"/>
<path d="M33.4926 10.2381C33.4926 11.5814 32.4036 12.6704 31.0602 12.6704C29.7169 12.6704 28.6279 11.5814 28.6279 10.2381C28.6279 8.89471 29.7169 7.80572 31.0602 7.80572C32.4036 7.80572 33.4926 8.89471 33.4926 10.2381Z" fill="black"/>
<path fill-rule="evenodd" clip-rule="evenodd" d="M20.24 0.737305C14.7341 0.737305 14.0486 0.737305 11.8816 0.862607C10.2012 0.895802 8.53868 1.21485 6.96534 1.80606C5.6263 2.32457 4.41022 3.11683 3.39488 4.13218C2.37953 5.14753 1.58726 6.36361 1.06875 7.70264C0.476857 9.27835 0.157806 10.9434 0.125302 12.6263C0.0221122 14.7859 0 15.4714 0 20.9773C0 26.4833 0 27.1761 0.125302 29.3357C0.157806 31.0186 0.476857 32.6837 1.06875 34.2594C1.58726 35.5984 2.37953 36.8145 3.39488 37.8298C4.41022 38.8452 5.6263 39.6374 6.96534 40.156C8.53968 40.7436 10.2016 41.0625 11.8816 41.0994C14.0486 41.1952 14.7341 41.2173 20.24 41.2173C25.746 41.2173 26.4388 41.2173 28.5984 41.0994C30.2809 41.0632 31.9454 40.7443 33.5221 40.156C34.8611 39.6374 36.0772 38.8452 37.0925 37.8298C38.1079 36.8145 38.9001 35.5984 39.4186 34.2594C40.007 32.6827 40.3259 31.0182 40.3621 29.3357C40.4579 27.1761 40.48 26.4833 40.48 20.9773C40.48 15.4714 40.48 14.7859 40.3621 12.6263C40.3259 10.9438 40.007 9.27935 39.4186 7.70264C38.9001 6.36361 38.1079 5.14753 37.0925 4.13218C36.0772 3.11683 34.8611 2.32457 33.5221 1.80606C31.9464 1.21416 30.2813 0.895111 28.5984 0.862607C26.4388 0.759417 25.746 0.737305 20.24 0.737305ZM20.24 4.44478C25.6575 4.44478 26.2914 4.44478 28.4289 4.56271C29.7164 4.57989 30.9911 4.82184 32.1953 5.27767C33.0652 5.61349 33.8554 6.12719 34.5154 6.7859C35.1754 7.44462 35.6906 8.23384 36.0281 9.10308C36.4865 10.3074 36.7358 11.5812 36.7652 12.8695C36.861 15.007 36.8831 15.6483 36.8831 21.0584C36.8831 26.4685 36.8831 27.1171 36.7652 29.2546C36.7361 30.5406 36.4868 31.812 36.0281 33.0137C35.6892 33.8871 35.172 34.6803 34.5096 35.3427C33.8472 36.0052 33.054 36.5223 32.1806 36.8612C30.9777 37.3246 29.703 37.5741 28.4142 37.5983C26.284 37.6941 25.6428 37.7162 20.2253 37.7162C14.8078 37.7162 14.1739 37.7162 12.0364 37.5983C10.7477 37.5727 9.47324 37.3233 8.26996 36.8612C7.39658 36.5223 6.6034 36.0052 5.94096 35.3427C5.27852 34.6803 4.76136 33.8871 4.42244 33.0137C3.97982 31.8091 3.74553 30.5379 3.72959 29.2546C3.63377 27.1171 3.61166 26.4759 3.61166 21.0584C3.61166 15.6409 3.61166 15.007 3.72959 12.8695C3.74584 11.5839 3.98011 10.3103 4.42244 9.10308C4.75067 8.21426 5.27464 7.41067 5.95555 6.75182C6.61177 6.09225 7.40774 5.58847 8.2847 5.27767C9.48798 4.81559 10.7624 4.56619 12.0511 4.5406C14.1887 4.44478 14.8299 4.42267 20.24 4.42267V4.44478Z" fill="black"/>
</svg>
