<svg width="386" height="407" viewBox="0 0 386 407" fill="none" xmlns="http://www.w3.org/2000/svg">
<path d="M238.757 171.188C238.757 171.188 290.503 131.902 310.127 163.153C334.315 201.654 278.006 230.101 266.412 241.714C253.003 255.131 253.003 253.455 247.678 264.918C231.703 299.294 227.753 349.097 227.152 374.364C226.261 411.963 196.662 404.776 172.733 401.51C153.108 398.835 160.247 352.094 127.235 361.333C109.532 366.296 115.64 373.15 115.64 391.069C115.64 408.987 62.2843 406.108 54.9734 400.619C48.0918 395.473 31.2798 351.901 54.9734 277.422C61.2108 257.785 49.9491 245.978 46.9431 241.714C36.2075 226.534 0.908673 188.763 2.33651 173.863C4.11863 155.117 26.4166 144.407 43.3681 150.648C55.0915 154.945 86.4395 189.064 86.4395 189.064" fill="white"/>
<path d="M81.6729 407C92.0113 407 102.79 405.657 109.704 402.187C116.446 398.803 117.863 394.27 117.863 391.069C117.863 386.772 117.541 383.237 117.251 380.079C116.306 369.873 116.027 366.801 127.836 363.482C145.228 358.615 150.102 370.647 155.266 383.388C159.077 392.744 163.006 402.434 172.443 403.723C174.128 403.949 175.846 404.207 177.585 404.454C192.465 406.602 209.33 409.073 219.722 400.297C225.938 395.033 229.105 386.567 229.385 374.418C229.76 358.4 232.358 303.215 249.696 265.917C253.733 257.226 254.431 256.549 261.119 250.082C262.923 248.342 265.156 246.172 267.99 243.347C271.235 240.437 274.656 237.728 278.232 235.236C297.277 221.185 332.737 195.005 312.017 162.014C310.05 158.72 307.395 155.891 304.234 153.72C301.073 151.549 297.48 150.087 293.702 149.435C269.858 145.084 238.725 168.46 237.404 169.459C236.968 169.828 236.69 170.351 236.627 170.92C236.564 171.488 236.722 172.059 237.067 172.515C237.413 172.97 237.919 173.276 238.483 173.369C239.047 173.462 239.626 173.335 240.099 173.015C240.41 172.789 270.996 149.832 292.907 153.828C296.078 154.361 299.094 155.582 301.743 157.407C304.392 159.231 306.609 161.614 308.238 164.388C326.757 193.877 294.722 217.521 275.58 231.648C271.821 234.26 268.235 237.113 264.844 240.188C262.042 242.992 259.82 245.141 258.027 246.87C251.114 253.563 250.051 254.594 245.66 264.058C227.957 302.195 225.327 358.142 224.94 374.385C224.682 385.192 222.031 392.573 216.845 396.945C207.978 404.465 192.851 402.23 178.197 400.103L173.012 399.362C166.141 398.427 162.856 390.338 159.377 381.765C154.235 369.089 147.826 353.308 126.612 359.206C111.217 363.503 111.84 370.282 112.785 380.509C113.064 383.57 113.386 387.04 113.386 391.09C113.386 393.958 111.518 396.29 107.685 398.223C93.407 405.378 61.0497 402.413 56.2831 398.846C53.8568 397.042 47.8341 385.955 45.7085 364.824C43.9264 347.174 44.4524 317.804 57.0775 278.121C63.068 259.267 53.7495 247.042 49.7773 241.821C49.3694 241.295 49.0151 240.844 48.7037 240.446C45.9125 236.493 41.5753 231.132 36.551 224.945C23.3998 208.745 3.52816 184.262 4.49437 174.1C5.20292 166.752 9.40056 160.306 16.3036 155.945C24.2479 150.949 34.2965 149.735 42.5308 152.722C51.7312 156.116 76.1226 181.179 84.7433 190.547C84.9414 190.762 85.1799 190.936 85.4451 191.059C85.7104 191.182 85.9973 191.251 86.2894 191.263C86.5815 191.275 86.873 191.229 87.1475 191.128C87.4219 191.028 87.6738 190.874 87.8888 190.675C88.1038 190.477 88.2777 190.239 88.4005 189.973C88.5234 189.708 88.5928 189.421 88.6047 189.128C88.6167 188.836 88.571 188.544 88.4703 188.27C88.3695 187.995 88.2157 187.743 88.0177 187.528C86.7294 186.121 56.165 152.99 44.0767 148.532C34.5649 145.03 23.0134 146.384 13.931 152.12C5.81486 157.234 0.876459 164.872 0.0498144 173.605C-1.0989 185.594 17.8495 208.938 33.0727 227.695C38.054 233.829 42.3482 239.125 45.0536 242.949C45.3542 243.39 45.7407 243.895 46.1809 244.464C50.0457 249.534 58.0652 260.062 52.7833 276.692C28.3382 353.545 46.3419 396.923 53.567 402.381C57.099 405.002 69.0585 407 81.6729 407Z" fill="#141516"/>
<path d="M130.391 233.259C130.058 235.193 127.686 247.364 119.011 255.991C118.946 256.054 118.9 256.136 118.88 256.225C118.861 256.314 118.868 256.407 118.901 256.492C118.935 256.578 118.993 256.651 119.068 256.703C119.143 256.755 119.231 256.784 119.323 256.786C123.231 256.786 136.264 256.259 141.653 249.169C141.696 249.109 141.752 249.061 141.817 249.027C141.883 248.993 141.955 248.976 142.029 248.976C142.102 248.976 142.175 248.993 142.24 249.027C142.305 249.061 142.362 249.109 142.404 249.169C144.015 251.661 150.424 261.974 150.37 268.42C150.366 268.508 150.388 268.594 150.433 268.67C150.477 268.745 150.543 268.806 150.621 268.845C150.7 268.883 150.788 268.898 150.875 268.888C150.962 268.877 151.044 268.842 151.111 268.785C154.332 266.175 166.076 256.173 166.742 248.933C166.748 248.842 166.78 248.755 166.835 248.682C166.89 248.609 166.966 248.555 167.052 248.525C167.138 248.495 167.231 248.491 167.319 248.514C167.407 248.537 167.487 248.586 167.547 248.654C170.081 251.554 178.347 260.137 189.265 262.103C189.347 262.119 189.43 262.112 189.508 262.084C189.586 262.056 189.654 262.008 189.707 261.944C189.759 261.88 189.794 261.804 189.807 261.722C189.82 261.641 189.811 261.557 189.781 261.48C188.353 257.677 182.04 240.21 182.523 229.446C182.53 229.333 182.494 229.222 182.422 229.134C182.351 229.046 182.249 228.989 182.137 228.973L154.546 224.429C154.468 224.413 154.388 224.413 154.31 224.429L130.692 232.873C130.612 232.904 130.542 232.957 130.489 233.025C130.436 233.093 130.402 233.174 130.391 233.259Z" fill="#4DBC33"/>
<path d="M149.63 270.859C149.17 270.64 148.782 270.294 148.512 269.862C148.242 269.43 148.101 268.93 148.105 268.42C148.105 264.37 144.884 257.677 141.728 252.37C135.373 258.343 124.154 259.063 119.291 259.02C118.758 259.018 118.238 258.858 117.796 258.56C117.354 258.263 117.01 257.84 116.808 257.347C116.606 256.854 116.554 256.312 116.66 255.789C116.765 255.267 117.023 254.787 117.401 254.412C125.689 246.172 127.933 234.215 128.137 232.926C128.215 232.457 128.418 232.017 128.724 231.652C129.029 231.288 129.427 231.012 129.876 230.853L153.494 222.409C153.919 222.248 154.378 222.204 154.826 222.28L182.427 226.825C183.076 226.929 183.664 227.27 184.078 227.781C184.492 228.293 184.703 228.939 184.671 229.596C184.209 239.984 190.522 257.377 191.799 260.75C191.963 261.197 192.007 261.679 191.926 262.149C191.845 262.618 191.642 263.058 191.337 263.425C191.035 263.789 190.641 264.067 190.196 264.23C189.75 264.392 189.27 264.433 188.804 264.349C179.485 262.683 172.121 256.668 168.03 252.532C165.207 259.6 156.49 267.249 152.442 270.536C152.047 270.858 151.569 271.061 151.063 271.12C150.557 271.179 150.045 271.092 149.587 270.869L149.63 270.859ZM169.19 247.225C171.165 249.481 177.778 256.442 186.528 259.181C184.209 252.596 180.312 240.135 180.237 230.971L154.6 226.749L132.367 234.699C130.886 241.857 127.823 248.592 123.402 254.412C129.844 253.864 136.736 251.952 139.849 247.848C140.111 247.501 140.453 247.222 140.845 247.035C141.238 246.848 141.669 246.758 142.104 246.774C142.533 246.787 142.953 246.904 143.327 247.116C143.701 247.327 144.018 247.626 144.251 247.987C145.915 250.555 150.692 258.397 152.174 264.982C158.068 259.826 164.101 253.165 164.498 248.761C164.557 248.088 164.865 247.462 165.362 247.005C165.858 246.548 166.508 246.293 167.182 246.29C167.558 246.285 167.931 246.358 168.277 246.506C168.623 246.654 168.934 246.874 169.19 247.15V247.225Z" fill="black"/>
<path d="M284.695 203.481C285.221 203.479 285.738 203.346 286.2 203.093C286.661 202.839 287.052 202.474 287.336 202.031L350.472 103.048C350.714 102.703 350.885 102.312 350.972 101.899C351.059 101.486 351.062 101.059 350.981 100.645C350.899 100.231 350.734 99.8379 350.496 99.4892C350.259 99.1405 349.953 98.8436 349.597 98.6164C349.242 98.3891 348.844 98.2363 348.428 98.1671C348.012 98.0979 347.586 98.1137 347.176 98.2136C346.766 98.3135 346.381 98.4954 346.043 98.7484C345.706 99.0013 345.423 99.3201 345.211 99.6855L282.064 198.668C281.766 199.141 281.599 199.686 281.581 200.245C281.563 200.804 281.696 201.358 281.964 201.849C282.232 202.34 282.627 202.75 283.107 203.037C283.587 203.324 284.135 203.477 284.695 203.481Z" fill="#141516"/>
<path d="M368.229 70.1431L317.696 109.966L383.774 112.415L325.35 69.8638L349.967 137.467L368.229 70.1431Z" fill="#FFFF66"/>
<path d="M347.874 138.23L338.663 112.942L317.599 112.158C317.144 112.141 316.704 111.985 316.34 111.71C315.976 111.436 315.706 111.055 315.565 110.621C315.425 110.188 315.421 109.721 315.554 109.285C315.688 108.848 315.952 108.464 316.311 108.183L332.329 95.5496L323.246 70.5945C323.078 70.1452 323.06 69.6536 323.194 69.193C323.327 68.7324 323.607 68.3275 323.989 68.0387C324.372 67.7499 324.838 67.5927 325.318 67.5906C325.797 67.5885 326.264 67.7416 326.65 68.027L347.756 83.389L366.833 68.3493C367.202 68.0602 367.653 67.8947 368.121 67.8763C368.59 67.8578 369.052 67.9873 369.443 68.2463C369.833 68.5054 370.133 68.8809 370.298 69.3197C370.464 69.7585 370.487 70.2383 370.365 70.6912L363.763 95.0447L385.073 110.568C385.462 110.847 385.751 111.245 385.896 111.702C386.041 112.159 386.034 112.65 385.877 113.103C385.721 113.556 385.422 113.946 385.025 114.215C384.629 114.484 384.156 114.618 383.677 114.596L358.706 113.672L352.114 138.015C351.988 138.472 351.721 138.877 351.35 139.172C350.98 139.467 350.526 139.638 350.053 139.659H349.957C349.506 139.66 349.065 139.524 348.693 139.269C348.321 139.014 348.035 138.652 347.874 138.23ZM343.494 113.157L349.656 130.13L354.144 113.576L343.494 113.157ZM359.919 109.289L376.549 109.913L362.528 99.6963L359.919 109.289ZM347.874 89.0288L337.643 97.0858L341.883 108.645L355.389 109.15L358.706 96.9032L347.874 89.0288ZM323.848 107.957L337.031 108.452L333.95 100.051L323.848 107.957ZM329.956 75.9658L336.032 92.6706L344.127 86.3002L329.956 75.9658ZM351.545 86.1498L359.951 92.2731L364.342 76.0732L351.545 86.1498Z" fill="#141516"/>
<path d="M229.32 130.023C229.279 129.982 229.246 129.934 229.224 129.88C229.202 129.826 229.191 129.769 229.191 129.711C229.245 125.027 229.782 27.8386 176.308 5.09648C123.027 -17.5275 150.435 99.202 161.621 121.966C161.661 122.052 161.672 122.15 161.653 122.243C161.634 122.337 161.586 122.422 161.516 122.487C161.445 122.551 161.356 122.592 161.261 122.602C161.167 122.613 161.071 122.593 160.988 122.546C158.347 120.977 152.399 118.904 143.94 124.297C143.875 124.341 143.8 124.367 143.722 124.372C143.643 124.377 143.565 124.361 143.495 124.326C143.425 124.291 143.366 124.238 143.323 124.173C143.281 124.107 143.256 124.031 143.253 123.953C142.662 114.779 135.738 26.3132 86.0208 8.64155C33.8241 -9.92172 60.2553 125.274 74.4156 142.355C74.4673 142.421 74.5005 142.5 74.5118 142.583C74.5231 142.666 74.5121 142.75 74.48 142.828C72.4832 147.125 47.0505 205.135 111.089 226.781C176.651 249.008 296.59 199.817 229.32 130.023Z" fill="white"/>
<path d="M110.38 228.962C90.0574 222.098 76.4554 210.915 69.9388 195.746C60.2768 173.122 69.5309 148.704 72.0108 142.957C65.9989 134.524 58.9026 109.655 55.2417 83.7434C52.5149 64.4066 49.627 29.6542 61.0175 13.3361C65.0649 7.52437 72.8267 1.64815 86.7831 6.60051C134.46 23.5524 143.757 102.758 145.282 121.031C150.467 118.399 154.729 118.292 157.885 119.001C148.738 95.947 132.12 25.5398 151.047 5.50475C157.091 -0.940828 165.894 -1.70355 177.199 3.0984C230.222 25.6579 231.467 118.968 231.446 129.024C258.07 156.954 253.314 179.224 244.597 192.996C228.751 218.026 186.345 234.506 146.956 234.506C134.545 234.645 122.193 232.773 110.38 228.962ZM227.012 129.69C227.066 125.597 227.635 29.3319 175.481 7.22357C165.937 3.1736 159.023 3.61405 154.321 8.57715C146.742 16.6019 144.841 36.6262 148.953 64.9652C152.313 87.9652 159.195 111.986 163.65 121.063C163.909 121.582 163.992 122.171 163.887 122.741C163.782 123.312 163.495 123.832 163.068 124.225C162.642 124.618 162.1 124.861 161.523 124.919C160.946 124.976 160.367 124.845 159.871 124.544C157.563 123.169 152.571 121.557 145.174 126.252C144.781 126.503 144.33 126.647 143.864 126.671C143.399 126.694 142.935 126.596 142.519 126.386C142.103 126.175 141.749 125.86 141.492 125.471C141.235 125.082 141.083 124.633 141.052 124.168C140.429 114.371 133.537 27.9569 85.3015 10.8224C76.1118 7.59957 69.3698 9.21096 64.6998 15.9036C57.0239 26.9041 55.1988 51.408 59.6863 83.131C63.6907 111.449 71.3559 135.222 76.1655 141.012C76.4909 141.399 76.6983 141.87 76.7631 142.371C76.8278 142.872 76.7471 143.381 76.5305 143.838C75.2637 146.599 64.3778 171.393 74.0721 193.995C80.0625 207.96 92.7735 218.295 111.84 224.751C132.055 231.583 159.313 231.712 184.767 225.106C210.812 218.349 231.242 205.769 240.84 190.622C252.198 172.682 247.667 152.271 227.753 131.602C227.509 131.348 227.318 131.048 227.191 130.72C227.064 130.392 227.003 130.042 227.012 129.69Z" fill="#141516"/>
<path d="M149.393 162.53C143.016 162.53 143.006 152.614 149.393 152.614C155.781 152.614 155.77 162.53 149.393 162.53Z" fill="#141516"/>
<path d="M169.458 158.19C163.081 158.19 163.071 148.285 169.458 148.285C175.846 148.285 175.835 158.19 169.458 158.19Z" fill="#141516"/>
<path d="M121.803 176.055L158.304 168.535C159.109 168.365 159.948 168.504 160.656 168.924C161.364 169.344 161.888 170.014 162.126 170.802L163.833 176.431C164.097 177.259 164.677 177.949 165.447 178.351C166.217 178.754 167.115 178.836 167.945 178.579L173.591 176.871C174.421 176.609 175.112 176.029 175.515 175.258C175.917 174.487 175.998 173.587 175.739 172.757L174.515 168.696C174.379 168.248 174.34 167.775 174.4 167.31C174.461 166.845 174.62 166.399 174.867 166C175.114 165.602 175.443 165.26 175.832 164.999C176.221 164.738 176.661 164.563 177.124 164.485L195.374 161.456C196.189 161.317 197.027 161.491 197.719 161.943C198.412 162.395 198.908 163.092 199.11 163.894C201.708 174.196 207.344 208.541 168.46 213.31C128.287 218.241 121.932 190.654 119.237 180.094C119.126 179.66 119.106 179.207 119.177 178.765C119.247 178.322 119.408 177.898 119.648 177.52C119.888 177.142 120.204 176.817 120.574 176.565C120.945 176.313 121.363 176.139 121.803 176.055Z" fill="#F4628F"/>
<path d="M117.251 181.158L117.133 180.664C116.95 179.939 116.914 179.185 117.029 178.447C117.143 177.709 117.405 177.001 117.798 176.366C118.192 175.732 118.712 175.185 119.325 174.758C119.938 174.331 120.631 174.034 121.363 173.885L157.864 166.365C159.22 166.069 160.638 166.298 161.833 167.005C163.028 167.713 163.911 168.847 164.305 170.179L166.012 175.797C166.096 176.064 166.282 176.288 166.528 176.42C166.775 176.553 167.064 176.584 167.333 176.506L172.98 174.798C173.25 174.716 173.478 174.531 173.613 174.282C173.748 174.032 173.779 173.739 173.699 173.466L172.464 169.405C172.237 168.653 172.172 167.86 172.275 167.081C172.378 166.302 172.645 165.553 173.06 164.885C173.474 164.217 174.026 163.646 174.679 163.208C175.331 162.77 176.069 162.477 176.844 162.347L195.095 159.318C196.46 159.097 197.859 159.395 199.016 160.152C200.174 160.909 201.008 162.071 201.354 163.411C203.082 170.243 206.142 187.56 197.242 200.559C191.52 208.927 181.955 213.976 168.814 215.599C165.712 215.985 162.589 216.183 159.463 216.189C126.151 216.136 119.774 191.084 117.251 181.158ZM195.793 163.669L177.542 166.698C177.392 166.724 177.25 166.782 177.124 166.867C176.998 166.952 176.892 167.063 176.812 167.192C176.734 167.322 176.684 167.466 176.666 167.616C176.647 167.766 176.661 167.918 176.705 168.062L177.929 172.123C178.14 172.818 178.213 173.548 178.143 174.271C178.072 174.994 177.86 175.695 177.518 176.336C177.176 176.977 176.711 177.544 176.149 178.004C175.588 178.465 174.941 178.81 174.246 179.02L168.599 180.728C167.197 181.153 165.684 181.004 164.391 180.313C163.099 179.622 162.134 178.446 161.707 177.043L160 171.414C159.921 171.161 159.751 170.947 159.523 170.812C159.295 170.677 159.025 170.632 158.766 170.684L122.264 178.203C122.124 178.232 121.991 178.289 121.873 178.37C121.755 178.452 121.654 178.555 121.577 178.676C121.5 178.8 121.449 178.938 121.427 179.082C121.405 179.226 121.412 179.373 121.448 179.514L121.577 180.019C124.293 190.686 130.649 215.684 168.234 211.065C180.044 209.615 188.557 205.2 193.528 197.948C201.408 186.443 198.584 170.662 196.995 164.41C196.932 164.176 196.792 163.969 196.597 163.825C196.402 163.681 196.164 163.607 195.922 163.615L195.793 163.669Z" fill="black"/>
</svg>
