<svg width="487" height="522" viewBox="0 0 487 522" fill="none" xmlns="http://www.w3.org/2000/svg">
<path d="M392.398 192.238C392.398 192.238 411.328 157.547 433.434 159.991C455.539 162.434 450.905 190.39 450.905 190.39L442.611 217.083L373.447 215.245L392.347 192.217" fill="white"/>
<path d="M442.662 219.414H442.601L373.437 217.566C373.006 217.556 372.586 217.425 372.225 217.188C371.865 216.951 371.578 216.618 371.398 216.226C371.218 215.834 371.152 215.4 371.207 214.972C371.263 214.545 371.437 214.141 371.711 213.808L390.487 190.893C392.234 187.751 410.948 155.145 433.65 157.66C439.919 158.358 444.841 160.997 448.263 165.504C455.632 175.216 453.299 190.092 453.186 190.718C453.173 190.827 453.149 190.933 453.114 191.037L444.821 217.73C444.689 218.204 444.408 218.624 444.019 218.927C443.631 219.23 443.155 219.401 442.662 219.414ZM378.267 213.089L440.956 214.763L448.705 189.866C448.911 188.398 450.452 175.976 444.595 168.307C441.964 164.847 438.12 162.814 433.156 162.27C412.859 160.011 394.587 192.998 394.402 193.326C394.33 193.449 394.248 193.573 394.166 193.686L378.267 213.089Z" fill="#141516"/>
<path d="M66.332 471.961C64.6363 471.961 -58.3168 497.134 41.0713 513.787C140.459 530.439 209.027 508.335 210.733 494.219C212.018 483.613 157.139 471.807 128.25 467.639C99.362 463.47 66.332 471.961 66.332 471.961Z" fill="white"/>
<path d="M109.927 522C86.72 521.931 63.559 519.943 40.6808 516.056C11.9054 511.23 -0.642725 505.532 0.0252743 497.576C0.37469 493.336 4.24909 486.663 33.6102 477.7C44.1905 474.486 54.9306 471.824 65.7873 469.723C67.6371 469.261 99.8039 461.232 128.569 465.37C146.387 467.973 164.036 471.624 181.423 476.304C210.404 484.404 213.528 490.287 213.025 494.506C212.686 497.258 210.692 500.019 207.095 502.719C193.982 512.493 158.66 522 109.927 522ZM66.4964 474.25C55.5415 476.399 44.7054 479.113 34.0316 482.381C6.89026 490.79 4.66017 496.518 4.61906 498.079C4.57795 499.64 7.12663 505.758 41.4515 511.508C123.79 525.306 186.264 512.534 204.33 499.013C207.681 496.508 208.349 494.763 208.441 493.942C208.441 493.736 208.739 488.716 180.18 480.739C162.987 476.116 145.538 472.507 127.922 469.928C99.845 465.873 67.2877 474.107 66.9075 474.189C66.7733 474.225 66.6353 474.246 66.4964 474.25Z" fill="#141516"/>
<path d="M66.332 469.199C64.6363 469.199 -58.3168 494.362 41.0713 511.015C140.459 527.667 209.027 505.574 210.733 491.508C212.018 480.903 157.139 469.096 128.25 464.928C99.362 460.76 66.332 469.199 66.332 469.199Z" fill="white"/>
<path d="M109.927 519.228C86.7228 519.152 63.5652 517.157 40.691 513.263C11.9156 508.438 -0.632471 502.74 0.0355282 494.783C0.384943 490.543 4.25934 483.87 33.6205 474.907C44.2008 471.694 54.9409 469.031 65.7975 466.93C67.6474 466.458 99.8141 458.44 128.579 462.577C146.395 465.176 164.04 468.827 181.423 473.511C210.404 481.611 213.528 487.494 213.025 491.714C212.686 494.465 210.692 497.217 207.095 499.927C193.982 509.732 158.66 519.228 109.927 519.228ZM66.4861 471.489C55.53 473.632 44.6936 476.346 34.0213 479.62C6.89023 488.028 4.66014 493.757 4.61903 495.307C4.57793 496.857 7.15744 502.997 41.4515 508.746C123.79 522.544 186.264 509.773 204.33 496.241C207.681 493.747 208.349 492.001 208.441 491.18C208.441 490.975 208.739 485.954 180.18 477.967C162.985 473.354 145.536 469.745 127.921 467.156C99.8449 463.111 67.2877 471.345 66.9074 471.427C66.7722 471.458 66.6348 471.479 66.4964 471.489H66.4861Z" fill="#141516"/>
<path d="M160.469 394.91L119.895 357.14L129.114 339.635L242.55 323.055L249.004 341.473L189.059 401.358L160.469 394.91Z" fill="white"/>
<path d="M249.004 324.892C272.98 358.977 291.191 398.37 293.267 405.998C296.031 416.131 294.192 458.501 280.359 462.187C266.526 465.873 227.793 469.558 230.557 454.826C232.551 444.221 237.874 435.042 240.711 430.73C240.874 430.487 240.966 430.204 240.977 429.911C240.987 429.619 240.916 429.33 240.77 429.076C240.625 428.822 240.412 428.613 240.154 428.474C239.897 428.334 239.605 428.27 239.313 428.287L210.764 429.868C210.377 429.888 210.01 430.049 209.735 430.322C209.46 430.595 209.296 430.96 209.274 431.346C208.976 436.726 207.516 455.74 201.967 455.74C195.513 455.74 153.09 462.187 150.325 451.14C150.325 451.14 148.486 440.083 154.015 437.321C159.544 434.56 153.182 396.122 153.182 396.122" fill="white"/>
<path d="M252.899 467.741C243.732 467.741 235.11 466.437 230.937 462.608C229.808 461.595 228.967 460.302 228.502 458.859C228.036 457.416 227.961 455.876 228.286 454.395C230.177 444.354 234.904 435.596 238.018 430.658L211.545 432.126C210.517 449.333 207.29 458.049 201.967 458.049C200.877 458.049 198.431 458.265 195.338 458.553C173.757 460.513 150.613 461.766 148.064 451.695C148.059 451.633 148.059 451.571 148.064 451.51C147.848 450.216 146.153 438.789 152.894 435.309C155.135 432.742 153.686 413.236 150.921 396.491C150.87 396.192 150.878 395.886 150.945 395.59C151.012 395.294 151.137 395.014 151.313 394.767C151.489 394.52 151.713 394.31 151.97 394.149C152.228 393.988 152.515 393.88 152.815 393.831C153.114 393.781 153.421 393.791 153.716 393.861C154.012 393.93 154.291 394.058 154.537 394.235C154.784 394.413 154.992 394.637 155.151 394.896C155.31 395.155 155.416 395.442 155.464 395.742C155.464 395.834 157.087 405.546 157.981 415.474C159.687 434.344 157.581 438.061 155.053 439.375C151.846 440.976 152.206 448.122 152.596 450.668C152.977 451.961 155.32 454.774 168.413 455.257C177.436 455.575 187.939 454.61 194.937 453.974C198.267 453.666 200.672 453.45 201.977 453.45C203.282 453.45 206.088 446.736 206.992 431.223C207.034 430.266 207.431 429.359 208.105 428.677C208.779 427.996 209.683 427.59 210.64 427.537L239.179 425.997C239.898 425.952 240.615 426.109 241.249 426.45C241.883 426.791 242.408 427.303 242.766 427.927C243.131 428.555 243.313 429.273 243.291 429.998C243.269 430.724 243.045 431.429 242.643 432.034C239.786 436.377 234.719 445.165 232.818 455.288C232.636 456.003 232.657 456.754 232.879 457.457C233.1 458.161 233.513 458.789 234.072 459.271C240.793 465.431 267.472 463.275 279.763 460.01C281.736 459.477 283.576 457.752 285.241 454.877C292.537 442.198 293.092 414.16 291.037 406.624C288.981 399.089 270.699 359.798 247.113 326.268C246.762 325.768 246.623 325.15 246.728 324.548C246.833 323.946 247.173 323.411 247.673 323.06C248.173 322.708 248.793 322.57 249.395 322.675C249.997 322.78 250.533 323.119 250.885 323.619C274.522 357.242 293.113 396.697 295.487 405.413C297.748 413.677 297.223 443.266 289.238 457.136C286.936 461.129 284.1 463.583 280.945 464.435C271.755 466.611 262.344 467.72 252.899 467.741Z" fill="#141516"/>
<path d="M122.66 351.606C122.66 351.606 88.5404 384.777 106.063 412.415C123.585 440.052 156.779 391.225 156.779 391.225" fill="white"/>
<path d="M119.412 423.184H119.176C113.154 423.092 108.097 419.878 104.151 413.647C85.8376 384.757 119.638 351.37 121.087 349.994C121.525 349.568 122.114 349.333 122.725 349.341C123.336 349.348 123.919 349.598 124.345 350.035C124.772 350.472 125.007 351.06 124.999 351.671C124.992 352.281 124.742 352.863 124.304 353.29C123.975 353.608 91.7365 385.485 108.046 411.213C111.129 416.121 114.818 418.534 119.248 418.605H119.464C135.228 418.605 154.713 390.239 154.909 389.951C155.252 389.446 155.782 389.098 156.383 388.984C156.983 388.869 157.604 388.998 158.11 389.341C158.616 389.684 158.964 390.213 159.079 390.813C159.193 391.413 159.065 392.034 158.721 392.539C157.838 393.781 137.674 423.184 119.412 423.184Z" fill="#141516"/>
<path d="M179.81 376.482C179.81 376.482 153.09 429.919 192.718 420.7C232.345 411.481 243.434 359.901 243.434 343.321" fill="white"/>
<path d="M184.527 424.067C178.926 424.067 174.753 422.353 172.051 418.934C162.514 406.85 176.161 378.628 177.775 375.455C178.068 374.947 178.544 374.57 179.106 374.401C179.668 374.233 180.274 374.285 180.799 374.547C181.324 374.809 181.729 375.262 181.931 375.812C182.133 376.363 182.117 376.969 181.886 377.508C177.929 385.424 169.101 407.774 175.658 416.08C178.422 419.571 183.982 420.371 192.214 418.462C229.55 409.787 241.153 360.343 241.153 343.321C241.132 343.005 241.176 342.689 241.282 342.391C241.388 342.093 241.555 341.82 241.771 341.589C241.987 341.358 242.249 341.174 242.539 341.048C242.83 340.922 243.143 340.857 243.46 340.857C243.776 340.857 244.09 340.922 244.38 341.048C244.671 341.174 244.932 341.358 245.148 341.589C245.365 341.82 245.531 342.093 245.638 342.391C245.744 342.689 245.788 343.005 245.767 343.321C245.767 356.667 236.415 412.918 193.262 422.948C190.402 423.651 187.472 424.026 184.527 424.067Z" fill="#141516"/>
<path d="M190.302 344.891C190.302 344.891 203.508 354.881 205.368 358.238C205.368 358.238 190.23 362.345 187.487 359.265C187.487 359.265 186.572 370.003 183.252 371.862C183.252 371.862 175.678 361.503 174.784 361.739C174.784 361.739 168.053 372.149 160.201 371.41C160.201 371.41 159.287 351.082 156.779 348.895L177.528 339.656L190.302 344.891Z" fill="#4DBC33"/>
<path d="M183.252 374.11C182.89 374.11 182.532 374.025 182.209 373.861C181.886 373.696 181.606 373.458 181.392 373.166C179.265 370.26 176.716 367.006 175.123 365.106C172.451 368.422 166.717 374.285 159.986 373.648C159.438 373.588 158.931 373.334 158.554 372.933C158.177 372.533 157.956 372.011 157.93 371.461C157.54 362.683 156.347 352.222 155.207 350.497C154.938 350.234 154.737 349.909 154.622 349.551C154.507 349.193 154.481 348.812 154.547 348.442C154.613 348.072 154.768 347.723 155 347.426C155.231 347.13 155.531 346.894 155.875 346.739L176.624 337.5C176.91 337.378 177.217 337.315 177.528 337.315C177.839 337.315 178.147 337.378 178.433 337.5L191.207 342.766C191.39 342.84 191.563 342.936 191.721 343.054C193.992 344.779 205.42 353.515 207.403 357.078C207.573 357.384 207.671 357.724 207.69 358.073C207.709 358.422 207.648 358.771 207.513 359.093C207.377 359.415 207.17 359.702 206.907 359.933C206.644 360.164 206.333 360.332 205.995 360.425C201.381 361.667 194.146 363.248 189.46 362.478C188.864 366.4 187.487 372.139 184.414 373.853C184.055 374.037 183.655 374.126 183.252 374.11ZM159.862 350.025C161.28 354.285 162.01 361.975 162.39 368.977C167.015 368.032 171.393 362.725 172.852 360.466C173.16 359.992 173.632 359.648 174.178 359.501C175.617 359.111 176.459 358.875 183.294 368.012C184.32 365.121 184.959 362.107 185.195 359.049C185.23 358.601 185.398 358.172 185.675 357.818C185.953 357.464 186.329 357.199 186.757 357.057C187.186 356.917 187.647 356.904 188.083 357.02C188.519 357.137 188.912 357.378 189.213 357.714C190.241 358.495 195.482 358.084 201.134 356.883C198.175 354.06 193.016 349.871 189.141 346.935L177.559 342.171L159.862 350.025Z" fill="black"/>
<path d="M239.796 329.492C274.738 305.324 241.759 264.648 239.868 262.359C239.837 262.329 239.813 262.291 239.799 262.25C239.784 262.209 239.78 262.166 239.786 262.123C239.868 259.135 241.122 206.273 224.103 182.115C206.581 157.239 155.865 137.887 148.486 171.058C141.549 202.238 175.37 258.663 179.44 265.305C179.472 265.363 179.488 265.428 179.486 265.493C179.484 265.559 179.463 265.623 179.427 265.678C179.391 265.733 179.341 265.777 179.281 265.806C179.222 265.834 179.156 265.846 179.09 265.839C176.788 265.552 169.728 265.049 166.419 269.063C166.378 269.112 166.324 269.149 166.264 269.17C166.203 269.191 166.138 269.194 166.075 269.181C166.012 269.167 165.955 269.136 165.909 269.092C165.862 269.047 165.829 268.991 165.813 268.929C163.613 261.034 142.278 188.758 98.6837 192.248C52.7562 195.914 77.2872 269.063 110.286 285.109C110.333 285.13 110.374 285.161 110.407 285.2C110.44 285.239 110.464 285.285 110.477 285.334C110.49 285.383 110.492 285.435 110.482 285.485C110.472 285.535 110.451 285.582 110.42 285.623C106.833 290.458 67.0925 346.195 138.342 351.616C210.209 357.078 238.995 330.252 239.765 329.523L239.796 329.492Z" fill="white"/>
<path d="M157.118 354.645C151.158 354.645 144.841 354.398 138.168 353.906C115.764 352.212 101.674 345.364 96.2789 333.568C88.2732 316.114 101.942 293.723 107.234 286.105C96.9572 280.346 87.1325 269.237 80.0825 255.223C72.5906 240.337 69.5898 224.958 71.861 213.038C74.4507 199.312 83.9261 191.109 98.5193 189.938C140.49 186.561 162.339 249.392 167.21 265.408C169.781 264.012 172.67 263.304 175.596 263.355C167.375 249.382 139.791 199.61 146.256 170.565C148.547 160.227 155.001 153.728 164.888 151.747C185.287 147.64 213.98 163.728 226.004 180.791C242.643 204.404 242.314 253.057 242.129 261.476C245.49 265.685 260.535 285.818 257.75 306.115C256.362 316.186 250.813 324.656 241.245 331.319C238.964 333.373 214.361 354.645 157.118 354.645ZM101.705 194.415C100.76 194.415 99.8142 194.415 98.8481 194.528C86.1562 195.554 78.5821 202.063 76.352 213.89C71.9637 237.103 89.9175 272.646 111.293 283.025C111.646 283.193 111.957 283.438 112.204 283.74C112.451 284.043 112.627 284.397 112.72 284.776C112.814 285.155 112.822 285.55 112.744 285.933C112.666 286.315 112.504 286.676 112.27 286.988C110.214 289.74 92.5587 314.359 100.472 331.658C105.117 341.812 117.943 347.746 138.497 349.316C209.006 354.665 237.001 328.948 238.183 327.849C238.277 327.761 238.377 327.679 238.481 327.603C247 321.699 251.943 314.256 253.146 305.478C255.89 285.571 238.81 264.71 238.08 263.827C237.668 263.332 237.449 262.705 237.463 262.061C237.535 259.823 238.84 207.053 222.202 183.44C210.003 166.11 182.564 152.897 165.761 156.254C157.684 157.866 152.627 163.019 150.726 171.551C143.974 201.889 177.549 257.79 181.392 264.094C181.657 264.519 181.795 265.011 181.791 265.512C181.787 266.013 181.641 266.502 181.37 266.923C181.099 267.345 180.714 267.681 180.259 267.892C179.805 268.104 179.3 268.182 178.803 268.118C175.021 267.656 170.242 268.046 168.197 270.531C167.884 270.905 167.474 271.185 167.012 271.342C166.55 271.499 166.053 271.526 165.577 271.42C165.101 271.314 164.663 271.079 164.311 270.741C163.959 270.403 163.707 269.975 163.582 269.504C161.414 261.732 141.497 194.415 101.705 194.415Z" fill="#141516"/>
<path d="M139.73 322.182L165.833 305.879C166.373 305.543 167.022 305.43 167.644 305.564C168.265 305.698 168.81 306.069 169.163 306.597L171.886 310.704C172.075 310.989 172.321 311.231 172.609 311.415C172.897 311.598 173.221 311.72 173.559 311.771C173.897 311.822 174.242 311.802 174.571 311.712C174.901 311.622 175.208 311.464 175.473 311.248L181.639 306.217C181.889 306.014 182.097 305.763 182.249 305.478C182.401 305.194 182.495 304.882 182.526 304.561C182.556 304.24 182.523 303.917 182.427 303.609C182.331 303.301 182.175 303.015 181.968 302.768L180.693 301.238C180.474 300.973 180.313 300.665 180.22 300.334C180.128 300.002 180.107 299.655 180.159 299.315C180.21 298.974 180.333 298.649 180.519 298.359C180.705 298.07 180.95 297.823 181.238 297.635L195.688 288.251C196.164 287.945 196.733 287.814 197.296 287.881C197.858 287.949 198.38 288.21 198.771 288.621C203.036 293.128 215.316 306.833 213.025 312.952C210.26 320.324 232.386 323.085 224.093 330.457C215.799 337.828 207.496 330.457 205.594 324.923C203.693 319.389 187.158 347.951 163.171 343.403C144.2 339.758 139.668 329.184 138.599 324.923C138.461 324.406 138.497 323.857 138.701 323.362C138.905 322.866 139.267 322.452 139.73 322.182Z" fill="#F4628F"/>
<path d="M168.505 346.124C166.605 346.121 164.709 345.939 162.842 345.58C142.628 341.699 137.664 330.18 136.462 325.406C136.221 324.443 136.29 323.429 136.659 322.507C137.028 321.586 137.678 320.804 138.517 320.272L164.61 303.969C165.657 303.308 166.922 303.084 168.133 303.345C169.344 303.606 170.404 304.332 171.085 305.365L173.808 309.472C173.819 309.488 173.832 309.501 173.848 309.512C173.864 309.523 173.882 309.53 173.9 309.534C173.918 309.541 173.938 309.545 173.957 309.545C173.976 309.545 173.996 309.541 174.013 309.534L180.18 304.503C180.19 304.473 180.19 304.441 180.18 304.411C180.19 304.377 180.19 304.341 180.18 304.308L178.905 302.788C178.475 302.276 178.157 301.678 177.974 301.034C177.792 300.39 177.747 299.714 177.844 299.052C177.941 298.39 178.178 297.755 178.538 297.191C178.898 296.626 179.373 296.144 179.933 295.776L194.382 286.393C195.314 285.787 196.43 285.526 197.534 285.658C198.639 285.789 199.662 286.304 200.425 287.111C208.513 295.663 217.639 307.234 215.162 313.804C214.607 315.293 217.269 317.049 220.815 319.184C224.36 321.32 227.916 323.465 228.224 326.843C228.399 328.712 227.515 330.529 225.604 332.223C220.979 336.329 216.591 336.268 213.713 335.508C211.606 334.868 209.657 333.794 207.989 332.357C206.322 330.92 204.974 329.15 204.032 327.161C203.005 327.931 201.566 329.215 200.322 330.354C193.951 336.011 182.656 346.124 168.505 346.124ZM140.994 324.133C140.968 324.148 140.949 324.172 140.939 324.2C140.93 324.228 140.931 324.259 140.942 324.287C141.97 328.208 146.081 337.633 163.716 341.062C178.32 343.865 190.21 333.208 197.311 326.843C201.371 323.209 203.405 321.381 205.677 321.987C206.201 322.129 206.681 322.404 207.068 322.785C207.455 323.166 207.737 323.641 207.886 324.163C208.479 325.758 209.424 327.199 210.652 328.377C211.88 329.556 213.358 330.442 214.977 330.97C217.567 331.668 220.116 330.898 222.613 328.701C223.456 327.952 223.733 327.408 223.713 327.182C223.61 326.155 220.414 324.194 218.513 323.075C214.258 320.519 208.965 317.326 210.918 312.141C212.089 309.061 206.417 300.006 197.147 290.202C197.121 290.18 197.088 290.168 197.054 290.168C197.021 290.168 196.988 290.18 196.962 290.202L182.574 299.585C182.557 299.594 182.542 299.607 182.531 299.623C182.52 299.64 182.514 299.658 182.513 299.678C182.505 299.696 182.501 299.715 182.501 299.734C182.501 299.754 182.505 299.773 182.513 299.791L183.777 301.31C184.178 301.792 184.48 302.348 184.665 302.947C184.851 303.546 184.916 304.176 184.856 304.8C184.797 305.424 184.615 306.03 184.32 306.583C184.026 307.137 183.624 307.627 183.139 308.024L176.973 313.045C176.459 313.465 175.862 313.774 175.222 313.951C174.581 314.128 173.91 314.169 173.253 314.071C172.6 313.969 171.975 313.735 171.416 313.381C170.857 313.028 170.377 312.564 170.005 312.018L167.292 307.911C167.266 307.887 167.231 307.873 167.195 307.873C167.159 307.873 167.124 307.887 167.097 307.911L140.994 324.205V324.133Z" fill="black"/>
<path d="M133.43 315.026C138.774 315.026 138.784 306.731 133.43 306.731C128.076 306.731 128.086 315.026 133.43 315.026Z" fill="#141516"/>
<path d="M148.188 304.852C153.532 304.852 153.532 296.557 148.188 296.557C142.844 296.557 142.833 304.852 148.188 304.852Z" fill="#141516"/>
<path d="M75.1906 455.688C82.7031 450.555 109.618 438.677 172.349 468.162C175.367 469.538 178.014 471.615 180.067 474.219C187.075 483.316 188.576 502.083 75.1187 497.473C72.922 497.389 70.8186 496.564 69.1519 495.132C67.4852 493.7 66.3534 491.746 65.9414 489.588C64.6362 482.628 64.4718 471.56 71.7068 459.415C72.5773 457.93 73.7673 456.657 75.1906 455.688Z" fill="#DD7C3A"/>
<path d="M96.4536 448.953C96.4536 448.953 101.448 466.14 98.6837 477.7L96.4536 448.953Z" fill="#DD7C3A"/>
<path d="M98.6837 480.041C98.5038 480.04 98.3246 480.019 98.1493 479.979C97.5541 479.835 97.0403 479.462 96.7205 478.94C96.4007 478.419 96.301 477.792 96.4433 477.197C99.0331 466.345 94.2852 449.765 94.2338 449.6C94.1494 449.31 94.1232 449.005 94.1566 448.705C94.1899 448.404 94.2823 448.113 94.4283 447.848C94.5743 447.583 94.7711 447.349 95.0075 447.16C95.2439 446.971 95.5153 446.83 95.8061 446.746C96.097 446.662 96.4016 446.636 96.7026 446.669C97.0035 446.702 97.295 446.795 97.5603 446.94C97.8256 447.086 98.0595 447.283 98.2487 447.519C98.438 447.755 98.5788 448.026 98.6631 448.317C98.8789 449.036 103.802 466.212 100.924 478.264C100.806 478.77 100.52 479.22 100.113 479.542C99.7068 479.865 99.2029 480.04 98.6837 480.041Z" fill="#D86132"/>
<path d="M123.996 452.198C123.996 452.198 126.349 470 123.585 482.884L123.996 452.198Z" fill="#DD7C3A"/>
<path d="M123.585 485.194C123.424 485.209 123.262 485.209 123.102 485.194C122.504 485.064 121.982 484.702 121.651 484.188C121.32 483.675 121.206 483.051 121.334 482.453C123.985 470.133 121.725 452.68 121.704 452.547C121.624 451.941 121.787 451.328 122.159 450.843C122.531 450.357 123.081 450.04 123.687 449.959C124.294 449.879 124.907 450.043 125.393 450.414C125.879 450.786 126.197 451.335 126.277 451.941C126.38 452.69 128.651 470.297 125.835 483.418C125.718 483.926 125.432 484.378 125.022 484.701C124.613 485.024 124.106 485.198 123.585 485.194Z" fill="#D86132"/>
<path d="M150.325 478.747C150.325 478.747 153.994 493.12 146.163 496.529L150.325 478.747Z" fill="#DD7C3A"/>
<path d="M146.173 498.89C145.641 498.895 145.124 498.715 144.709 498.382C144.294 498.049 144.008 497.582 143.899 497.062C143.79 496.541 143.865 495.999 144.111 495.527C144.357 495.056 144.759 494.684 145.248 494.475C151.117 491.919 148.126 479.486 148.095 479.363C148.02 479.07 148.004 478.765 148.047 478.465C148.09 478.166 148.192 477.877 148.346 477.617C148.501 477.357 148.705 477.13 148.948 476.948C149.191 476.767 149.466 476.635 149.76 476.56C150.053 476.485 150.359 476.469 150.659 476.512C150.959 476.555 151.247 476.657 151.508 476.811C151.768 476.966 151.996 477.17 152.177 477.412C152.359 477.655 152.491 477.93 152.566 478.223C152.73 478.891 156.604 494.558 147.088 498.695C146.8 498.823 146.489 498.89 146.173 498.89Z" fill="#D86132"/>
<path d="M108.241 500.512C98.1767 500.512 87.105 500.266 75.0262 499.773C72.3138 499.67 69.7172 498.648 67.6629 496.875C65.6085 495.103 64.2187 492.685 63.7216 490.02C62.3034 482.525 62.2109 470.924 69.7645 458.193C70.8128 456.424 72.2372 454.907 73.9369 453.748C82.96 447.588 110.708 436.582 173.376 466.068C176.699 467.616 179.608 469.927 181.865 472.813C186.058 478.264 185.308 482.556 183.92 485.205C178.659 495.451 153.778 500.512 108.241 500.512ZM76.4856 457.598C75.3453 458.376 74.3908 459.396 73.6902 460.585C66.8664 472.043 66.9486 482.453 68.2126 489.167C68.5209 490.814 69.3827 492.306 70.6554 493.396C71.9282 494.486 73.5354 495.11 75.2112 495.163C159.061 498.572 176.778 489.003 179.882 483.079C180.971 480.964 180.426 478.459 178.237 475.626C176.408 473.314 174.055 471.47 171.372 470.246C109.156 440.997 82.9909 453.173 76.4856 457.598Z" fill="black"/>
<path d="M71.0182 459.394C71.0182 459.394 51.2146 447.27 31.6474 469.117C31.5493 469.224 31.4858 469.358 31.4655 469.502C31.4451 469.645 31.4687 469.792 31.5332 469.922C31.5977 470.052 31.7001 470.159 31.8268 470.23C31.9536 470.301 32.0988 470.331 32.2434 470.318C35.7581 470.01 43.548 469.61 47.6588 471.612C47.7804 471.67 47.883 471.762 47.9548 471.877C48.0266 471.991 48.0646 472.123 48.0646 472.258C48.0646 472.393 48.0266 472.526 47.9548 472.64C47.883 472.754 47.7804 472.846 47.6588 472.905C43.3322 475.01 28.6465 482.741 26.8892 491.211C26.8561 491.344 26.8623 491.485 26.9071 491.616C26.9519 491.746 27.0333 491.861 27.1417 491.946C27.25 492.032 27.3807 492.085 27.5182 492.098C27.6557 492.111 27.7941 492.085 27.9168 492.022C31.4727 490.297 42.1504 485.287 47.7205 484.917C47.8742 484.906 48.0274 484.945 48.1574 485.028C48.2874 485.11 48.3873 485.233 48.4426 485.376C48.4978 485.52 48.5054 485.678 48.4642 485.826C48.423 485.974 48.3352 486.106 48.2138 486.2C45.0279 488.613 38.5637 494.824 41.9243 503.469C41.9695 503.586 42.0444 503.69 42.1417 503.77C42.2391 503.85 42.3555 503.904 42.4797 503.926C42.604 503.947 42.7317 503.937 42.8505 503.894C42.9693 503.852 43.075 503.78 43.1575 503.684C46.0556 500.245 56.8567 488.182 66.3834 487.956C67.9647 487.957 69.5117 487.495 70.8325 486.626C72.1534 485.758 73.1899 484.521 73.8136 483.069C76.7219 475.934 79.6817 464.343 71.0182 459.394Z" fill="#4DBC33"/>
<path d="M42.6437 506.189C42.4727 506.205 42.3008 506.205 42.1298 506.189C41.6109 506.098 41.1241 505.876 40.7157 505.543C40.3073 505.211 39.991 504.779 39.797 504.29C37.1558 497.494 39.6531 492.042 42.6334 488.387C37.9529 489.983 33.3833 491.886 28.9548 494.085C28.4383 494.349 27.8569 494.459 27.2795 494.403C26.7022 494.346 26.1532 494.125 25.6977 493.767C25.2422 493.408 24.8994 492.926 24.7098 492.378C24.5202 491.83 24.4919 491.24 24.6282 490.677C26.2212 483.008 36.2617 476.303 43.0342 472.638C39.5039 472.204 35.9357 472.169 32.3976 472.536C31.7947 472.592 31.189 472.464 30.6605 472.169C30.1321 471.874 29.7057 471.425 29.4378 470.883C29.1721 470.338 29.0733 469.727 29.1537 469.126C29.2341 468.525 29.4903 467.961 29.89 467.505C49.9608 445.155 70.8333 456.633 72.1179 457.372C79.7639 461.735 81.1102 471.139 75.9203 483.86C75.1274 485.726 73.8045 487.32 72.1151 488.444C70.4257 489.568 68.4439 490.173 66.4142 490.184C59.6622 490.348 50.8755 497.986 44.9046 505.091C44.6306 505.427 44.2863 505.7 43.8958 505.89C43.5052 506.08 43.0779 506.182 42.6437 506.189ZM47.7821 482.576C48.4171 482.573 49.0369 482.77 49.5535 483.14C50.07 483.509 50.457 484.031 50.6595 484.632C50.862 485.233 50.8698 485.883 50.6816 486.489C50.4935 487.095 50.119 487.626 49.6114 488.007C46.8161 490.133 42.6745 494.28 43.3836 499.896C48.3679 494.424 57.5452 485.831 66.3422 485.626C67.473 485.629 68.5803 485.304 69.5292 484.689C70.4781 484.075 71.2276 483.198 71.6862 482.166C74.1219 476.191 77.1227 465.554 69.8672 461.417H69.8158C69.1067 460.986 53.1158 451.664 36.1384 467.782C40.3005 467.659 45.3876 467.946 48.6865 469.538C49.1963 469.787 49.6259 470.174 49.9264 470.655C50.2268 471.136 50.3861 471.691 50.3861 472.258C50.3861 472.825 50.2268 473.381 49.9264 473.862C49.6259 474.343 49.1963 474.73 48.6865 474.979C41.7599 478.357 34.1755 483.264 30.8047 488.12C35.8609 485.831 43.0753 482.915 47.5663 482.617L47.7821 482.576Z" fill="black"/>
<path d="M364.27 114.849C364.27 114.849 459.26 253.961 468.478 257.626C473.092 259.464 487.84 251.178 484.161 245.645C480.482 240.111 381.792 102.857 381.792 102.857L364.27 114.849Z" fill="white"/>
<path d="M470.05 260.192C469.223 260.208 468.401 260.069 467.625 259.782C465.868 259.083 461.223 257.225 411.03 186.191C386.365 151.346 362.605 116.491 362.369 116.142C362.198 115.893 362.078 115.613 362.015 115.317C361.953 115.021 361.95 114.716 362.007 114.42C362.063 114.123 362.178 113.84 362.344 113.588C362.51 113.335 362.725 113.118 362.975 112.949L380.446 100.968C380.945 100.631 381.555 100.501 382.149 100.606C382.742 100.712 383.27 101.044 383.622 101.533C387.66 107.138 482.362 238.889 486.031 244.392C487.624 246.784 487.233 249.761 485.003 252.605C481.807 256.496 474.839 260.192 470.05 260.192ZM367.476 115.434C403.847 168.625 462.548 252.123 469.362 255.572C471.263 256.322 478.344 253.519 481.417 249.71C482.372 248.529 482.65 247.657 482.239 247C478.848 241.866 392.963 122.415 381.237 106.101L367.476 115.434Z" fill="#141516"/>
<path d="M405.08 220.913C405.08 220.913 416.282 195.082 439.888 186.704C462.877 178.553 492.67 205.482 436.383 265.552C434.904 267.137 433.936 269.129 433.602 271.271C433.269 273.412 433.586 275.604 434.513 277.564C445.304 300.479 458.232 312.408 475.857 316.576C491.108 320.201 469.403 362.632 449.61 358.064C441.748 356.246 437.205 354.296 434.338 354.85C432.957 355.104 431.707 355.83 430.803 356.904C425.109 363.977 425.993 367.478 432.622 370.558C437.318 372.714 447.421 374.511 443.926 378.32C439.672 382.95 431.718 389.223 424.534 394.561C419.602 398.22 413.787 400.509 407.682 401.194C401.577 401.88 395.399 400.937 389.777 398.463C316.667 366.318 328.671 284.771 328.671 284.771" fill="white"/>
<path d="M403.847 403.74C398.705 403.74 393.619 402.67 388.914 400.598C350.294 383.617 335.361 352.92 329.637 330.149C325.843 315.234 324.764 299.759 326.451 284.463C326.54 283.858 326.865 283.314 327.355 282.949C327.846 282.584 328.461 282.429 329.067 282.517C329.672 282.606 330.217 282.931 330.582 283.421C330.947 283.911 331.103 284.525 331.014 285.13C329.458 299.884 330.519 314.797 334.148 329.184C342.134 360.764 361.187 383.381 390.774 396.389C396.024 398.693 401.79 399.569 407.487 398.929C413.185 398.289 418.612 396.155 423.219 392.744C432.344 385.968 438.737 380.63 442.2 376.892C441.172 376.051 437.966 374.962 436.178 374.346C434.667 373.865 433.182 373.306 431.728 372.673C429.21 371.513 425.767 369.593 424.955 366.082C424.267 363.115 425.541 359.86 429.066 355.528C430.3 354.015 432.029 352.986 433.948 352.622C436.373 352.15 439.137 352.92 443.32 354.08C445.304 354.624 447.544 355.24 450.175 355.856C461.901 358.556 475.24 341.391 478.159 328.937C478.95 325.601 479.628 319.851 475.374 318.845C456.742 314.41 443.515 301.988 432.478 278.549C431.334 276.182 430.932 273.525 431.325 270.926C431.717 268.326 432.886 265.906 434.677 263.981C474.757 221.18 466.536 200.595 463.113 195.308C458.602 188.429 449.353 185.78 440.628 188.881C418.275 196.807 407.269 221.58 407.166 221.826C407.046 222.104 406.872 222.355 406.655 222.566C406.437 222.777 406.181 222.943 405.899 223.054C405.618 223.166 405.317 223.221 405.014 223.216C404.711 223.212 404.412 223.147 404.134 223.027C403.856 222.907 403.605 222.734 403.394 222.517C403.183 222.3 403.017 222.043 402.905 221.762C402.794 221.481 402.738 221.18 402.743 220.878C402.748 220.575 402.812 220.277 402.932 219.999C403.405 218.911 414.812 193.142 439.086 184.538C449.825 180.729 461.284 184.117 466.967 192.751C472.003 200.441 479.3 223.079 438.038 267.102C436.869 268.347 436.103 269.916 435.841 271.603C435.578 273.29 435.832 275.017 436.568 276.557C446.948 298.61 459.177 310.252 476.36 314.328C482.218 315.724 484.582 321.566 482.527 329.964C479.145 344.337 464.028 363.782 449.014 360.312C446.28 359.675 443.988 359.039 441.964 358.484C438.665 357.571 436.054 356.842 434.698 357.109C433.844 357.275 433.074 357.732 432.519 358.402C430.083 361.4 429.004 363.618 429.323 365.004C429.59 366.133 431.008 367.293 433.537 368.464C434.564 368.956 436.034 369.439 437.545 369.963C441.902 371.451 446.013 372.868 446.794 375.866C446.957 376.581 446.932 377.326 446.719 378.028C446.506 378.731 446.114 379.365 445.581 379.87C441.933 383.833 435.304 389.397 425.86 396.409C419.495 401.141 411.78 403.71 403.847 403.74Z" fill="#141516"/>
<path d="M380.867 270.541C380.867 270.541 384.557 281.598 384.557 285.284C384.557 285.284 393.806 274.227 392.861 266.855C392.48 263.775 402.922 271.085 405.059 267.944C405.059 267.944 401.76 259.433 402.079 258.56C402.079 258.56 401.205 249.854 401.164 241.98C401.164 241.98 386.489 242.246 384.536 239.557L373.499 259.381L380.867 270.541Z" fill="#4DBC33"/>
<path d="M384.557 287.584C384.254 287.585 383.954 287.526 383.674 287.411C383.394 287.296 383.14 287.127 382.926 286.913C382.712 286.699 382.542 286.445 382.427 286.165C382.312 285.886 382.253 285.586 382.255 285.284C382.255 282.923 380.199 275.746 378.781 271.557L371.587 260.644C371.354 260.294 371.223 259.886 371.206 259.466C371.19 259.046 371.29 258.629 371.495 258.262L382.532 238.437C382.72 238.1 382.99 237.815 383.317 237.609C383.644 237.403 384.017 237.282 384.403 237.257C384.776 237.233 385.151 237.299 385.494 237.449C385.837 237.599 386.139 237.829 386.376 238.119C387.619 239.064 394.484 239.793 401.164 239.669C401.778 239.664 402.368 239.9 402.809 240.327C403.028 240.538 403.203 240.792 403.323 241.072C403.443 241.353 403.506 241.654 403.507 241.959C403.507 249.628 404.412 258.231 404.412 258.324C404.428 258.471 404.428 258.619 404.412 258.765C405.193 261.597 406.14 264.381 407.248 267.102C407.38 267.452 407.426 267.828 407.384 268.199C407.341 268.571 407.21 268.926 407.002 269.237C404.823 272.42 400.26 270.716 396.601 269.35L395.224 268.847C394.649 276.588 387.28 285.643 386.366 286.742C386.146 287.007 385.869 287.221 385.556 287.367C385.243 287.512 384.902 287.586 384.557 287.584ZM376.191 259.279L382.799 269.268C382.906 269.439 382.992 269.622 383.056 269.812C383.313 270.572 384.865 275.274 385.903 279.535C388.39 275.736 391.042 270.674 390.569 267.143C390.49 266.641 390.543 266.127 390.723 265.652C390.903 265.176 391.204 264.756 391.596 264.432C393.179 263.19 395.276 263.97 398.163 265.038C399.403 265.526 400.669 265.944 401.956 266.291C400.054 261.157 399.695 259.361 399.746 258.478C399.602 256.999 399.027 250.716 398.873 244.3C393.981 244.3 388.698 243.94 385.41 242.708L376.191 259.279Z" fill="black"/>
<path d="M277.584 223.561C277.584 223.561 237.011 161.829 277.584 119.458C318.158 77.0884 318.168 193.152 318.168 193.152C318.168 193.152 323.697 186.704 334.765 186.704C334.765 186.704 327.571 152.825 347.231 125.105C354.455 114.627 365.14 107.023 377.414 103.627C396.159 98.6687 420.413 103.699 383.642 186.663C383.642 186.663 430.669 205.092 406.693 239.177C406.693 239.177 373.19 286.598 324.396 281.937C315.551 281.095 307.119 277.795 300.056 272.409C292.994 267.023 287.583 259.768 284.439 251.466C281.159 242.437 278.86 233.082 277.584 223.561Z" fill="white"/>
<path d="M331.014 284.596C328.722 284.596 326.451 284.483 324.18 284.267C314.888 283.417 306.025 279.962 298.613 274.301C291.2 268.639 285.539 261.001 282.281 252.267C279.006 243.24 276.695 233.894 275.385 224.383C268.494 213.075 263.356 200.79 260.144 187.947C253.31 160.022 258.767 135.792 275.93 117.867C284.244 109.181 291.797 106.122 298.385 108.761C307.778 112.528 314.335 128.021 317.911 154.827C319.318 165.967 320.158 177.172 320.429 188.398C323.955 186.203 327.953 184.876 332.093 184.528C330.808 175.842 328.373 147.815 345.381 123.76C352.938 112.871 364.076 104.973 376.859 101.441C387.465 98.6377 395.574 100.075 400.311 105.619C409.828 116.758 405.378 142.897 386.725 185.513C392.891 188.357 410.115 197.474 414.719 212.761C417.391 221.641 415.336 230.984 408.615 240.542C401.939 249.424 394.096 257.366 385.297 264.155C367.99 277.604 349.379 284.596 331.014 284.596ZM293.637 112.457C289.526 112.457 284.727 115.331 279.249 121.05C263.001 138.02 258.079 160.155 264.615 186.848C267.741 199.349 272.759 211.3 279.496 222.288C279.681 222.57 279.8 222.889 279.845 223.222C281.11 232.576 283.366 241.768 286.577 250.644C289.536 258.57 294.674 265.501 301.401 270.639C308.127 275.777 316.169 278.913 324.601 279.689C326.79 279.894 328.938 279.986 331.055 279.986C374.475 279.986 404.484 238.335 404.802 237.893C410.66 229.557 412.5 221.549 410.259 214.095C405.388 197.905 383.015 188.942 382.789 188.85C382.498 188.737 382.233 188.566 382.01 188.347C381.787 188.128 381.612 187.866 381.494 187.577C381.375 187.291 381.314 186.984 381.314 186.674C381.314 186.363 381.375 186.056 381.494 185.77C404.412 134.078 402.428 115.28 396.725 108.607C393.179 104.5 386.869 103.545 377.969 105.896C366.232 109.154 356.01 116.42 349.081 126.429C330.243 153.061 336.913 185.914 336.985 186.242C337.058 186.576 337.054 186.923 336.974 187.255C336.894 187.588 336.739 187.898 336.522 188.162C336.307 188.43 336.035 188.646 335.726 188.795C335.416 188.944 335.078 189.022 334.734 189.025C324.951 189.025 320.079 194.445 319.874 194.671C319.564 195.023 319.155 195.272 318.701 195.386C318.246 195.501 317.768 195.474 317.329 195.31C316.89 195.147 316.511 194.854 316.242 194.47C315.973 194.086 315.828 193.63 315.825 193.162C315.825 173.019 312.372 119.356 296.627 113.083C295.679 112.686 294.664 112.474 293.637 112.457Z" fill="#141516"/>
<path d="M304.273 242.513L333.367 230.543C333.997 230.278 334.704 230.257 335.348 230.485C335.993 230.713 336.529 231.173 336.851 231.775L339.102 236.066C339.27 236.384 339.5 236.666 339.778 236.896C340.056 237.125 340.377 237.297 340.722 237.402C341.067 237.507 341.429 237.543 341.787 237.507C342.146 237.472 342.494 237.366 342.812 237.195L347.231 234.896C347.554 234.735 347.841 234.513 348.078 234.241C348.314 233.969 348.494 233.654 348.608 233.312C348.721 232.97 348.766 232.61 348.74 232.251C348.713 231.892 348.616 231.542 348.454 231.22L346.851 228.14C346.674 227.791 346.574 227.408 346.557 227.017C346.541 226.626 346.608 226.236 346.755 225.873C346.902 225.51 347.125 225.183 347.409 224.914C347.694 224.644 348.032 224.439 348.403 224.311L363.047 218.931C363.689 218.689 364.399 218.696 365.036 218.95C365.674 219.205 366.192 219.689 366.49 220.307C370.138 228.233 379.778 255.152 348.31 265.244C315.814 275.674 306.555 254.341 302.794 246.22C302.639 245.88 302.554 245.513 302.545 245.141C302.536 244.768 302.603 244.397 302.741 244.051C302.88 243.705 303.087 243.39 303.35 243.126C303.613 242.861 303.927 242.653 304.273 242.513Z" fill="#F4628F"/>
<path d="M332.155 270.346C311.385 270.346 304.006 254.371 300.862 247.544L300.687 247.164C300.402 246.554 300.245 245.893 300.226 245.22C300.206 244.547 300.325 243.878 300.574 243.253C300.828 242.61 301.209 242.025 301.694 241.532C302.18 241.04 302.76 240.651 303.4 240.388L332.484 228.417C333.646 227.923 334.952 227.886 336.141 228.312C337.33 228.739 338.314 229.597 338.896 230.717L341.157 235.039C341.181 235.083 341.213 235.123 341.252 235.154C341.291 235.186 341.335 235.21 341.383 235.224C341.506 235.272 341.641 235.272 341.764 235.224L346.183 232.924C346.301 232.864 346.393 232.761 346.44 232.637C346.475 232.544 346.475 232.442 346.44 232.349L344.836 229.269C344.509 228.64 344.32 227.948 344.282 227.24C344.245 226.531 344.36 225.823 344.621 225.163C344.884 224.485 345.289 223.871 345.808 223.361C346.327 222.851 346.949 222.458 347.632 222.206L362.287 216.837C363.472 216.394 364.78 216.411 365.953 216.887C367.125 217.362 368.076 218.26 368.617 219.403C371.032 224.66 376.068 238.171 370.755 250.203C367.24 258.16 359.944 263.981 349.05 267.471C343.601 269.298 337.902 270.268 332.155 270.346ZM334.436 232.637C334.372 232.622 334.305 232.622 334.241 232.637L305.188 244.649C305.122 244.671 305.063 244.707 305.013 244.755C304.963 244.803 304.925 244.861 304.9 244.926C304.878 244.974 304.866 245.027 304.866 245.08C304.866 245.133 304.878 245.186 304.9 245.234L305.075 245.614C308.816 253.714 317.562 272.676 347.622 263.067C357.2 259.987 363.561 255.028 366.511 248.324C371.073 237.976 366.562 225.964 364.404 221.282C364.352 221.19 364.267 221.121 364.166 221.088C364.065 221.056 363.955 221.063 363.859 221.108L349.204 226.487C349.136 226.511 349.073 226.549 349.02 226.599C348.967 226.648 348.925 226.708 348.896 226.775C348.873 226.823 348.861 226.875 348.861 226.929C348.861 226.982 348.873 227.035 348.896 227.083L350.499 230.163C350.808 230.75 350.995 231.395 351.046 232.057C351.097 232.719 351.012 233.384 350.797 234.013C350.384 235.281 349.486 236.336 348.3 236.949L343.87 239.238C342.689 239.856 341.313 239.985 340.037 239.598C339.395 239.404 338.799 239.082 338.285 238.651C337.771 238.221 337.35 237.69 337.047 237.093L334.827 232.801C334.783 232.741 334.723 232.694 334.654 232.665C334.586 232.636 334.51 232.626 334.436 232.637Z" fill="black"/>
<path d="M304.448 235.111C309.792 235.111 309.802 226.826 304.448 226.826C299.094 226.826 299.104 235.111 304.448 235.111Z" fill="#141516"/>
<path d="M322.022 228.51C327.366 228.51 327.376 220.225 322.022 220.225C316.667 220.225 316.678 228.51 322.022 228.51Z" fill="#141516"/>
<path d="M360.499 116.974C352.585 65.9389 316.739 54.3479 316.739 54.3479C306.267 54.7996 300.389 63.5878 300.389 63.5878C288.283 61.4421 283.154 72.9612 283.154 72.9612C270.113 72.4376 264.954 85.4864 264.954 85.4864L263.464 89.9421C272.343 140.885 308.179 153.595 308.179 153.595C318.62 152.927 324.324 144.026 324.324 144.026C336.451 145.926 341.353 134.294 341.353 134.294C354.384 134.55 360.211 119.818 360.211 119.818L360.499 116.974Z" fill="#DB523B"/>
<path d="M308.179 155.833C307.916 155.835 307.655 155.79 307.408 155.699C305.897 155.165 270.195 142.004 261.162 90.3218C261.1 89.9469 261.132 89.5625 261.254 89.2027L262.734 84.7471C262.73 84.7095 262.73 84.6717 262.734 84.6341C262.96 84.0592 268.273 71.0309 281.685 70.6408C284.192 66.2467 290.153 60.1689 299.299 61.1134C301.458 58.4955 307.387 52.4587 316.575 52.0583C316.847 52.0497 317.118 52.0879 317.377 52.1713C318.897 52.6538 354.671 64.7375 362.708 116.584C362.729 116.778 362.729 116.974 362.708 117.169L362.41 119.992C362.388 120.203 362.339 120.41 362.266 120.608C362.009 121.245 356.1 135.741 342.74 136.501C340.325 140.956 334.518 147.168 325.331 146.408C323.275 149.077 317.428 155.248 308.261 155.833H308.179ZM265.838 90.1267C273.998 135.608 304.551 149.58 308.528 151.213C317.387 150.381 322.33 142.825 322.381 142.743C322.624 142.367 322.97 142.069 323.379 141.887C323.788 141.704 324.241 141.645 324.683 141.716C334.827 143.297 339.071 133.76 339.225 133.349C339.405 132.925 339.708 132.565 340.094 132.315C340.481 132.064 340.933 131.934 341.394 131.942C351.773 132.158 357.117 121.08 357.96 119.191L358.176 117.015C350.92 70.9591 320.151 58.1053 316.411 56.7091C307.48 57.3251 302.352 64.8094 302.3 64.9223C302.057 65.3004 301.709 65.5991 301.298 65.7815C300.887 65.964 300.432 66.0222 299.988 65.949C289.855 64.1523 285.446 73.5976 285.261 73.998C285.074 74.4186 284.763 74.773 284.371 75.0147C283.979 75.2565 283.522 75.3744 283.062 75.3532C272.127 74.922 267.513 85.4246 267.112 86.3794L265.838 90.1267Z" fill="black"/>
<path d="M323.995 145.915C323.484 145.916 322.988 145.746 322.584 145.434C322.181 145.122 321.892 144.684 321.765 144.191C312.834 109.603 281.962 74.6757 281.685 74.3779C281.276 73.9218 281.065 73.3222 281.099 72.7109C281.133 72.0996 281.408 71.5267 281.865 71.1183C282.321 70.7099 282.921 70.4993 283.533 70.533C284.145 70.5667 284.719 70.8419 285.128 71.298C286.422 72.7558 317.048 107.385 326.235 143.072C326.385 143.664 326.294 144.291 325.982 144.816C325.67 145.341 325.162 145.722 324.57 145.874C324.381 145.914 324.188 145.927 323.995 145.915Z" fill="black"/>
<path d="M341.394 136.901C340.825 136.904 340.275 136.696 339.851 136.316C339.428 135.937 339.161 135.413 339.102 134.848C335.618 96.7899 299.639 65.8876 299.279 65.5796C298.813 65.1848 298.523 64.6212 298.473 64.0127C298.423 63.4043 298.616 62.8009 299.012 62.3353C299.407 61.8697 299.971 61.58 300.58 61.53C301.189 61.4799 301.793 61.6736 302.259 62.0684C303.801 63.3723 340.047 94.5107 343.685 134.437C343.743 135.04 343.559 135.641 343.173 136.109C342.788 136.576 342.233 136.872 341.63 136.932L341.394 136.901Z" fill="black"/>
<path d="M345.731 39.9747C354.63 90.9277 390.641 101.718 390.641 101.718C401.082 101.04 406.786 92.1391 406.786 92.1391C418.913 94.0282 423.794 82.3859 423.794 82.3859C436.835 82.6426 441.727 69.4603 441.727 69.4603L443.115 64.9738C433.259 14.1441 397.239 2.23486 397.239 2.23486C386.818 3.11779 381.309 12.1523 381.309 12.1523C369.162 10.4994 364.507 22.2649 364.507 22.2649C351.486 22.2649 345.957 37.1514 345.957 37.1514L345.731 39.9747Z" fill="#DB523B"/>
<path d="M390.641 104.059C390.418 104.059 390.197 104.028 389.983 103.966C388.452 103.504 352.503 92.1699 343.459 40.4161C343.434 40.2219 343.434 40.0252 343.459 39.8309L343.696 36.9974C343.711 36.7867 343.756 36.5793 343.829 36.3814C344.066 35.7449 349.667 21.1047 363.027 20.0576C365.359 15.5505 371.084 9.21607 380.22 9.791C382.275 7.08062 387.928 0.787222 397.074 0.00696288C397.383 -0.0170858 397.694 0.021306 397.989 0.11988C399.51 0.622942 435.407 13.0455 445.417 64.6042C445.489 64.9765 445.468 65.3611 445.355 65.7232L443.927 70.1892C443.931 70.2267 443.931 70.2646 443.927 70.3021C443.711 70.8873 438.675 84.0388 425.294 84.6753C422.879 89.131 417.073 95.3422 407.896 94.5928C405.84 97.2621 399.993 103.432 390.836 104.028L390.641 104.059ZM348.053 39.9131C356.203 85.8765 387.157 98.104 390.928 99.4591C399.828 98.6481 404.792 91.0508 404.843 90.9687C405.087 90.5961 405.432 90.3012 405.838 90.1192C406.245 89.9372 406.695 89.8757 407.135 89.942C417.412 91.5436 421.626 81.7288 421.677 81.5748C421.856 81.1504 422.158 80.7895 422.545 80.5387C422.932 80.2879 423.385 80.1589 423.845 80.1683C434.718 80.3941 439.261 69.5937 439.549 68.7929L440.741 64.9327C431.687 19.421 400.948 6.1977 396.94 4.65771C388.113 5.68437 383.324 13.3535 383.272 13.4254C383.04 13.8093 382.7 14.117 382.294 14.3104C381.889 14.5037 381.436 14.5744 380.991 14.5136C370.765 13.1276 366.685 23.0862 366.603 23.1888C366.436 23.6195 366.143 23.9896 365.761 24.2499C365.379 24.5102 364.928 24.6486 364.465 24.6467C354.086 24.6467 348.978 35.868 348.187 37.7571L348.053 39.9131Z" fill="black"/>
<path d="M423.588 84.891C423.27 84.891 422.955 84.8254 422.663 84.6982C422.372 84.571 422.109 84.385 421.893 84.1518C420.567 82.7247 389.315 48.6911 379.418 13.1482C379.337 12.857 379.315 12.5527 379.351 12.2527C379.388 11.9527 379.484 11.6629 379.632 11.3998C379.781 11.1366 379.981 10.9054 380.219 10.7192C380.457 10.533 380.73 10.3956 381.021 10.3147C381.313 10.2338 381.618 10.211 381.918 10.2478C382.218 10.2845 382.508 10.3799 382.772 10.5286C383.035 10.6773 383.267 10.8764 383.453 11.1145C383.639 11.3526 383.777 11.625 383.858 11.9163C393.457 46.3708 424.966 80.7022 425.284 81.0308C425.49 81.253 425.649 81.5136 425.754 81.7976C425.859 82.0816 425.906 82.3834 425.894 82.6857C425.881 82.988 425.809 83.285 425.682 83.5594C425.554 83.8339 425.374 84.0806 425.151 84.2852C424.726 84.6787 424.167 84.8953 423.588 84.891Z" fill="black"/>
<path d="M406.405 94.2848C405.874 94.287 405.359 94.1057 404.946 93.7715C403.384 92.4882 366.593 62.0786 362.163 22.1828C362.13 21.8821 362.155 21.5778 362.239 21.2871C362.323 20.9964 362.464 20.7251 362.653 20.4887C362.842 20.2523 363.076 20.0553 363.341 19.9091C363.606 19.7629 363.897 19.6704 364.198 19.6367C364.499 19.603 364.804 19.6288 365.095 19.7127C365.386 19.7966 365.657 19.937 365.894 20.1257C366.131 20.3145 366.328 20.548 366.474 20.8128C366.62 21.0777 366.713 21.3688 366.747 21.6694C370.96 59.6557 407.495 89.901 407.855 90.1987C408.227 90.4993 408.497 90.9079 408.627 91.3681C408.757 91.8283 408.74 92.3175 408.58 92.7682C408.42 93.2188 408.124 93.6087 407.733 93.884C407.341 94.1594 406.874 94.3066 406.395 94.3054L406.405 94.2848Z" fill="black"/>
<path d="M347.621 43.8349C355.843 56.0624 375.554 86.4104 382.943 97.7857C383.928 99.2871 384.383 101.074 384.236 102.863C384.089 104.652 383.348 106.341 382.131 107.662C378.478 111.28 374.279 114.301 369.686 116.615C367.932 117.54 365.899 117.793 363.972 117.323C362.044 116.854 360.355 115.696 359.224 114.068L322.813 61.709C322.095 60.6846 321.629 59.5063 321.45 58.2687C321.272 57.0312 321.386 55.7691 321.785 54.584C323.286 50.1694 327.427 43.5577 338.753 40.5188C340.392 40.0814 342.128 40.1657 343.718 40.7601C345.307 41.3545 346.672 42.4293 347.621 43.8349Z" fill="#DB523B"/>
<path d="M365.904 119.859C364.22 119.859 362.561 119.453 361.068 118.673C359.575 117.893 358.294 116.765 357.333 115.383L320.912 63.0231C319.978 61.6961 319.37 60.1685 319.136 58.5635C318.902 56.9585 319.049 55.321 319.566 53.7832C321.056 49.4405 325.434 41.6481 338.126 38.2396C340.233 37.6704 342.466 37.7742 344.512 38.5364C346.558 39.2986 348.313 40.681 349.533 42.49C357.631 54.584 376.952 84.2646 384.875 96.4716C386.15 98.3984 386.742 100.696 386.555 102.999C386.369 105.301 385.416 107.474 383.848 109.171C380.014 113.278 374.598 116.553 370.796 118.586C369.294 119.404 367.615 119.841 365.904 119.859ZM340.859 42.5516C340.338 42.5491 339.82 42.6183 339.318 42.7569C329.226 45.4673 325.382 51.0934 323.902 55.3335C323.627 56.1805 323.554 57.0799 323.688 57.9603C323.822 58.8407 324.159 59.6778 324.673 60.4051L361.084 112.765C361.894 113.931 363.104 114.76 364.485 115.095C365.865 115.429 367.321 115.247 368.576 114.582C372.101 112.713 377.024 109.726 380.415 106.102C381.283 105.157 381.81 103.95 381.913 102.672C382.015 101.394 381.687 100.119 380.98 99.0485C373.057 86.8518 353.757 57.1917 345.669 45.1285C345.14 44.3381 344.425 43.6897 343.586 43.2404C342.747 42.791 341.811 42.5545 340.859 42.5516Z" fill="black"/>
</svg>
