<svg width="52" height="48" viewBox="0 0 52 48" fill="none" xmlns="http://www.w3.org/2000/svg">
<g clip-path="url(#clip0)">
<path d="M30.1412 3.09088C30.2519 2.60486 30.2173 2.0967 30.0419 1.63043C29.9245 1.31858 29.7471 1.03324 29.5197 0.790857C29.2923 0.548478 29.0195 0.353864 28.7171 0.21825C28.4147 0.0826356 28.0886 0.00870523 27.7577 0.00072351C27.4268 -0.00725821 27.0976 0.0508681 26.7891 0.171747C26.3278 0.352482 25.9299 0.666735 25.6456 1.07491C25.3613 1.48308 25.2033 1.9669 25.1914 2.46541C25.1796 2.96392 25.3145 3.45481 25.5791 3.87622C25.8437 4.29763 26.2261 4.63071 26.6783 4.83347C27.1305 5.03624 27.6321 5.09962 28.1199 5.01564C28.6078 4.93166 29.0601 4.70407 29.4198 4.36154C29.7795 4.01902 30.0305 3.57689 30.1412 3.09088Z" fill="#141516"/>
<path fill-rule="evenodd" clip-rule="evenodd" d="M23.5112 47.2727C22.1999 47.272 20.9035 46.9923 19.7068 46.452C18.5101 45.9118 17.4401 45.1231 16.5668 44.1375L0.898104 26.3807C0.515851 25.9476 0.243661 25.4275 0.104917 24.865C-0.0338275 24.3026 -0.0349796 23.7146 0.10156 23.1516C0.2381 22.5886 0.50825 22.0674 0.888804 21.6328C1.26936 21.1982 1.74894 20.8632 2.28635 20.6565L27.8483 10.8246C28.9291 10.4121 30.1279 10.446 31.1841 10.919C32.2403 11.3919 33.0686 12.2657 33.489 13.3504L33.9747 14.6134C34.0967 14.9326 34.3395 15.1901 34.6497 15.3292C34.9599 15.4683 35.3122 15.4777 35.6293 15.3553L38.7035 14.1682C39.0199 14.0446 39.2749 13.7999 39.4129 13.4876C39.5508 13.1753 39.5606 12.8206 39.44 12.5011L38.9511 11.2192C38.5408 10.1322 38.5723 8.9261 39.0386 7.86228C39.505 6.79846 40.3686 5.96267 41.4424 5.53605L47.0612 3.32592C47.6004 3.11429 48.1827 3.0384 48.7576 3.10482C49.3324 3.17124 49.8825 3.37798 50.3602 3.70709C50.8378 4.0362 51.2285 4.47775 51.4984 4.99343C51.7684 5.50912 51.9093 6.08337 51.9091 6.66637L52 30.2895C51.9989 32.1754 51.4358 34.0176 50.3838 35.5774C49.3317 37.1373 47.8391 38.343 46.0992 39.0384L26.8799 46.616C25.8058 47.0357 24.6633 47.2499 23.5112 47.2475V47.2727ZM3.38316 23.5423C3.31332 23.5693 3.25099 23.6129 3.20152 23.6695C3.15204 23.726 3.11687 23.7938 3.09902 23.867C3.08116 23.9402 3.08115 24.0166 3.09898 24.0899C3.1168 24.1631 3.15195 24.2308 3.2014 24.2874L18.8701 42.0442C19.7137 42.9968 20.8261 43.6669 22.0582 43.9649C23.2904 44.2628 24.5835 44.1743 25.7643 43.7113L44.9836 36.1337C46.1391 35.6688 47.1301 34.8663 47.8293 33.8293C48.5285 32.7923 48.9038 31.5683 48.907 30.3147L48.8161 6.69163C48.8161 6.61627 48.7978 6.54206 48.7629 6.4754C48.728 6.40875 48.6775 6.35167 48.6158 6.30908C48.5541 6.26649 48.483 6.23968 48.4087 6.23097C48.3344 6.22226 48.2591 6.2319 48.1894 6.25908L42.5706 8.4692C42.2566 8.59471 42.0042 8.83943 41.8676 9.15065C41.7311 9.46188 41.7213 9.8147 41.8404 10.1331L42.3261 11.4024C42.7355 12.4914 42.7019 13.6992 42.2325 14.7633C41.763 15.8274 40.8958 16.662 39.8191 17.0855L36.745 18.2727C35.6641 18.6852 34.4653 18.6513 33.4091 18.1783C32.3529 17.7054 31.5246 16.8316 31.1042 15.7468L30.6185 14.4839C30.4965 14.1654 30.2542 13.9085 29.9448 13.7695C29.6353 13.6304 29.2837 13.6205 28.967 13.7419L3.39256 23.5738L3.38316 23.5423Z" fill="#141516"/>
<path d="M17.7012 6.40115C17.8767 6.86742 17.9112 7.37558 17.8005 7.8616C17.6898 8.34761 17.4388 8.78974 17.0791 9.13226C16.7194 9.47479 16.2671 9.70238 15.7793 9.78636C15.2914 9.87034 14.7898 9.80696 14.3376 9.6042C13.8855 9.40143 13.503 9.06835 13.2384 8.64694C12.9738 8.22553 12.8389 7.73464 12.8508 7.23613C12.8626 6.73762 13.0207 6.2538 13.305 5.84563C13.5893 5.43745 13.9871 5.1232 14.4484 4.94247C14.7569 4.82159 15.0861 4.76347 15.417 4.77145C15.748 4.77943 16.074 4.85336 16.3765 4.98897C16.6789 5.12459 16.9516 5.3192 17.179 5.56158C17.4064 5.80396 17.5839 6.08931 17.7012 6.40115Z" fill="#141516"/>
</g>
<defs>
<clipPath id="clip0">
<rect width="52" height="47.2727" fill="white"/>
</clipPath>
</defs>
</svg>
