<svg width="538" height="548" viewBox="0 0 538 548" fill="none" xmlns="http://www.w3.org/2000/svg">
<path d="M419.11 443.408C314.065 487.794 193.024 438.418 148.704 333.168C104.383 227.917 141.344 101.547 246.389 57.1615C291.029 38.2216 340.913 35.701 387.229 50.045C353.095 31.9274 315.364 21.6541 276.775 19.9709C238.186 18.2876 199.707 25.2366 164.131 40.3135C31.4683 96.3771 -18.4198 254.627 37.5238 387.574C93.4674 520.522 246.389 582.864 379.062 526.8C422.683 508.379 460.475 478.402 488.382 440.086C516.29 401.77 533.26 356.562 537.471 309.313C529.048 339.133 514.035 366.671 493.546 389.884C473.056 413.098 447.615 431.391 419.11 443.408Z" fill="white"/>
<path d="M277.791 548C226.408 547.908 176.188 532.665 133.388 504.172C90.5873 475.679 57.0991 435.195 37.0955 387.764C23.3566 355.231 15.7226 320.437 14.5766 285.129C13.3741 251.088 18.487 217.12 29.6556 184.949C52.9812 118.126 100.688 66.5936 163.972 39.8543C199.606 24.7375 238.154 17.7691 276.813 19.4559C315.472 21.1427 353.27 31.4424 387.458 49.6058C387.567 49.664 387.651 49.7609 387.693 49.8776C387.735 49.9943 387.732 50.1225 387.685 50.2372C387.637 50.3519 387.549 50.4448 387.437 50.4978C387.325 50.5509 387.198 50.5602 387.079 50.5241C340.868 36.3037 291.138 38.8156 246.588 57.6206C196.909 78.5809 159.779 119.403 142.011 172.493C125.02 223.296 127.619 281.785 149.162 332.978C165.73 372.372 194.097 405.637 230.343 428.178C266.59 450.719 308.927 461.423 351.506 458.811C394.084 456.198 434.803 440.399 468.035 413.596C501.267 386.793 525.373 350.308 537.022 309.183C537.055 309.063 537.132 308.96 537.237 308.893C537.342 308.827 537.468 308.802 537.59 308.824C537.712 308.848 537.821 308.916 537.897 309.016C537.972 309.115 538.008 309.239 537.998 309.363C532.116 374.487 502.171 435.061 454.035 479.207C405.898 523.354 343.042 547.888 277.791 548ZM265.491 20.2016C230.748 20.2169 196.36 27.2117 164.361 40.7726C101.336 67.4021 53.8079 118.725 30.6018 185.278C7.89369 250.295 10.533 322.069 38.0118 387.385C60.4038 440.589 99.783 484.842 149.974 513.202C200.165 541.563 258.329 552.428 315.345 544.093C372.362 535.759 425.005 508.696 465.021 467.149C505.037 425.602 530.161 371.921 536.455 314.523C527.547 343.353 512.44 369.876 492.199 392.224C471.958 414.571 447.073 432.199 419.299 443.868L419.11 443.409L419.299 443.868C368.738 465.238 311.777 465.607 260.945 444.892C210.114 424.177 169.575 384.075 148.246 333.407C137.34 307.565 131.163 279.967 130.01 251.932C128.8 224.904 132.551 197.884 141.075 172.213C158.923 118.814 196.261 77.8023 246.199 56.7024C289.309 38.5022 337.297 35.4661 382.348 48.0887C346.103 29.7774 306.082 20.2267 265.491 20.2016Z" fill="white"/>
<path d="M27.7334 277.164C22.382 277.161 17.1455 275.608 12.655 272.691C8.16441 269.774 4.61137 265.617 2.42395 260.723C0.23652 255.829 -0.491951 250.405 0.326294 245.105C1.14454 239.805 3.47458 234.855 7.0357 230.852C10.5968 226.849 15.237 223.964 20.3973 222.543C25.5575 221.122 31.0176 221.227 36.1197 222.845C41.2217 224.463 45.748 227.526 49.1532 231.663C52.5584 235.8 54.6971 240.835 55.3118 246.163C56.1554 253.489 54.0607 260.85 49.4884 266.629C44.916 272.407 38.2406 276.128 30.9304 276.974C29.8695 277.101 28.8019 277.165 27.7334 277.164ZM27.8031 223.546C26.8048 223.548 25.8074 223.605 24.8152 223.715C19.7574 224.302 14.9865 226.378 11.1059 229.681C7.22523 232.984 4.40906 237.366 3.01342 242.273C1.61777 247.18 1.70533 252.392 3.26501 257.249C4.82469 262.106 7.78646 266.391 11.7759 269.561C15.7653 272.732 20.6031 274.646 25.6778 275.061C30.7525 275.476 35.8361 274.374 40.2859 271.894C44.7357 269.415 48.3518 265.668 50.6771 261.129C53.0025 256.59 53.9325 251.461 53.3497 246.392C52.6252 240.112 49.6259 234.317 44.9207 230.106C40.2154 225.894 34.1316 223.56 27.823 223.546H27.8031Z" fill="#F48A42"/>
<path d="M306.525 530.753C303.051 530.747 299.652 529.735 296.739 527.838C293.825 525.942 291.521 523.241 290.104 520.062C288.687 516.883 288.217 513.362 288.751 509.921C289.285 506.481 290.8 503.269 293.114 500.672C295.428 498.074 298.442 496.203 301.793 495.283C305.144 494.363 308.688 494.433 312 495.486C315.312 496.538 318.249 498.528 320.459 501.215C322.668 503.902 324.055 507.172 324.453 510.631C324.991 515.38 323.627 520.15 320.659 523.892C317.692 527.635 313.365 530.044 308.627 530.593C307.93 530.686 307.228 530.74 306.525 530.753ZM306.525 496.637C305.909 496.634 305.294 496.671 304.683 496.747C301.534 497.112 298.564 498.403 296.148 500.459C293.733 502.515 291.979 505.243 291.11 508.297C290.241 511.352 290.295 514.596 291.266 517.619C292.237 520.643 294.08 523.31 296.564 525.284C299.047 527.257 302.058 528.448 305.217 528.707C308.376 528.965 311.541 528.279 314.31 526.735C317.08 525.192 319.331 522.859 320.778 520.034C322.225 517.208 322.804 514.016 322.441 510.86C321.985 506.952 320.116 503.346 317.187 500.725C314.258 498.104 310.472 496.65 306.545 496.637H306.525Z" fill="#F48A42"/>
<path d="M440.423 501.997C449.824 501.997 457.444 494.36 457.444 484.94C457.444 475.519 449.824 467.882 440.423 467.882C431.023 467.882 423.402 475.519 423.402 484.94C423.402 494.36 431.023 501.997 440.423 501.997Z" fill="#F48A42"/>
<path d="M158.674 542.75C149.336 542.734 140.202 540.014 132.372 534.916C124.542 529.818 118.35 522.561 114.541 514.017C110.732 505.474 109.469 496.009 110.905 486.763C112.34 477.517 116.412 468.883 122.631 461.903C128.849 454.923 136.949 449.893 145.954 447.42C154.96 444.947 164.486 445.135 173.387 447.963C182.288 450.791 190.183 456.137 196.122 463.358C202.06 470.579 205.789 479.367 206.859 488.663C208.314 501.441 204.653 514.276 196.679 524.354C188.705 534.431 177.068 540.928 164.321 542.42C162.446 542.639 160.561 542.749 158.674 542.75ZM158.853 447.7C157.046 447.699 155.24 447.803 153.445 448.01C141.466 449.402 130.501 455.418 122.876 464.78C115.251 474.143 111.567 486.114 112.606 498.154C113.645 510.194 119.325 521.354 128.44 529.265C137.556 537.177 149.389 541.217 161.428 540.528C173.467 539.84 184.765 534.476 192.923 525.576C201.08 516.676 205.456 504.941 205.121 492.861C204.786 480.781 199.766 469.307 191.128 460.876C182.489 452.444 170.912 447.718 158.853 447.7Z" fill="#F48A42"/>
<path d="M114.721 439.167C119.424 439.167 123.237 435.346 123.237 430.633C123.237 425.92 119.424 422.099 114.721 422.099C110.018 422.099 106.206 425.92 106.206 430.633C106.206 435.346 110.018 439.167 114.721 439.167Z" fill="#F48A42"/>
<path d="M110.18 264.059C107.556 264.048 105.028 263.076 103.07 261.325C101.113 259.575 99.8615 257.168 99.5528 254.557C99.3086 252.445 99.695 250.307 100.663 248.415C101.631 246.523 103.138 244.961 104.992 243.927C106.846 242.893 108.964 242.433 111.079 242.606C113.194 242.778 115.21 243.576 116.873 244.897C118.535 246.218 119.77 248.004 120.419 250.028C121.069 252.052 121.105 254.224 120.523 256.269C119.941 258.314 118.767 260.14 117.149 261.516C115.531 262.892 113.543 263.756 111.435 263.999C111.018 264.044 110.599 264.064 110.18 264.059ZM110.18 244.556C108.412 244.557 106.686 245.097 105.231 246.103C103.776 247.109 102.661 248.535 102.032 250.191C101.404 251.847 101.292 253.655 101.712 255.376C102.132 257.097 103.063 258.649 104.383 259.828C105.703 261.006 107.349 261.755 109.103 261.975C110.857 262.195 112.637 261.876 114.206 261.06C115.775 260.244 117.06 258.969 117.89 257.405C118.72 255.841 119.056 254.061 118.855 252.301C118.6 250.179 117.581 248.223 115.989 246.801C114.397 245.378 112.342 244.587 110.21 244.576L110.18 244.556Z" fill="#F48A42"/>
<path d="M180.007 72.0034C178.486 72.0089 176.985 71.6486 175.631 70.9525C174.277 70.2565 173.11 69.2451 172.227 68.0033C171.343 66.7614 170.771 65.3254 170.556 63.8158C170.341 62.3061 170.491 60.7669 170.993 59.3274C171.495 57.8878 172.334 56.59 173.441 55.5428C174.547 54.4955 175.887 53.7296 177.35 53.3091C178.813 52.8886 180.354 52.826 181.846 53.1264C183.338 53.4268 184.736 54.0815 185.923 55.0356C186.905 55.809 187.723 56.7702 188.33 57.8635C188.937 58.9567 189.32 60.1601 189.459 61.4035C189.733 63.9051 189.009 66.4138 187.443 68.3814C185.877 70.3489 183.598 71.6152 181.103 71.9035C180.74 71.9567 180.374 71.9901 180.007 72.0034ZM180.007 54.9457C179.718 54.9457 179.43 54.9457 179.131 54.9956C177.153 55.2285 175.347 56.2372 174.11 57.8011C172.872 59.365 172.303 61.3565 172.527 63.3398C172.762 65.323 173.771 67.1323 175.333 68.3724C176.895 69.6124 178.884 70.1822 180.864 69.9572C182.842 69.7244 184.647 68.7156 185.885 67.1518C187.122 65.5879 187.691 63.5963 187.467 61.6131C187.257 59.7804 186.384 58.0885 185.013 56.8578C183.642 55.6272 181.868 54.9433 180.027 54.9358L180.007 54.9457Z" fill="#F48A42"/>
<path d="M70.9485 189.091C76.9937 189.091 81.8942 184.18 81.8942 178.122C81.8942 172.064 76.9937 167.153 70.9485 167.153C64.9034 167.153 60.0028 172.064 60.0028 178.122C60.0028 184.18 64.9034 189.091 70.9485 189.091Z" fill="#F48A42"/>
<path d="M244.616 485.449C250.661 485.449 255.561 480.538 255.561 474.479C255.561 468.421 250.661 463.51 244.616 463.51C238.571 463.51 233.67 468.421 233.67 474.479C233.67 480.538 238.571 485.449 244.616 485.449Z" fill="#F48A42"/>
<path d="M185.983 408.774C196.055 408.774 204.219 400.592 204.219 390.499C204.219 380.406 196.055 372.224 185.983 372.224C175.911 372.224 167.747 380.406 167.747 390.499C167.747 400.592 175.911 408.774 185.983 408.774Z" fill="#F48A42"/>
<path d="M151.871 169.768C170.001 169.768 184.698 155.039 184.698 136.87C184.698 118.701 170.001 103.973 151.871 103.973C133.741 103.973 119.044 118.701 119.044 136.87C119.044 155.039 133.741 169.768 151.871 169.768Z" fill="#F48A42"/>
<path d="M223.083 43.8568C235.168 43.8568 244.964 34.0391 244.964 21.9284C244.964 9.81766 235.168 0 223.083 0C210.998 0 201.201 9.81766 201.201 21.9284C201.201 34.0391 210.998 43.8568 223.083 43.8568Z" fill="#F48A42"/>
<path d="M71.6059 363.051C88.3937 363.051 102.003 349.413 102.003 332.589C102.003 315.765 88.3937 302.127 71.6059 302.127C54.8181 302.127 41.2089 315.765 41.2089 332.589C41.2089 349.413 54.8181 363.051 71.6059 363.051Z" fill="#F48A42"/>
<path d="M262.055 455.655L266.906 462.203C266.906 462.203 278.399 464.848 279.256 464.928C280.112 465.007 285.062 464.299 285.062 464.299L262.055 455.655Z" fill="white"/>
<path d="M329.472 275.906L331.803 278.691L339.462 279.38L376.811 303.344L374.889 305.75L293.488 275.288L291.317 270.786L329.472 275.906Z" fill="white"/>
<path d="M277.961 310.451L271.248 303.694L256.737 299.172L245.403 299.771L239.427 305.52L236.698 315.801L239.347 326.999L249.625 338.208L263.23 350.375L261.697 357.981L257.583 377.404L254.476 407.437L256.866 438.378L260.85 457.432L280.829 463.81L300.529 466.006L305.868 462.263L303.766 454.837L301.087 446.642L303.079 441.522L307.84 438.647L321.206 439.935L334.074 442.67L337.311 453.08L339.362 463.291L343.237 468.471L353.455 471.615L364.411 472.922L384.45 469.978L394.798 459.717L388.304 447.571L382.687 436.711L377.936 421.3L375.894 402.276L377.797 385.848L384.769 373.601L398.513 359.148L412.457 344.287L420.773 332.898L421.619 323.286L417.267 316.829L408.752 311.838L395.505 310.6L380.566 316.649L373.046 322.358L364.082 336.112C364.082 336.112 346.792 346.602 346.792 346.213C346.792 345.824 338.745 347.87 338.745 347.87L321.813 344.955L304.603 337.769L288.189 324.794L279.275 313.166L277.961 310.451Z" fill="white"/>
<path d="M335.647 348.089C340.229 351.688 343.331 356.85 344.362 362.592C339.493 361.616 334.687 360.346 329.97 358.789L321.654 368.421C321.516 368.641 321.298 368.798 321.046 368.86C320.618 368.91 320.319 368.461 320.13 368.081L314.553 356.853C308.412 359.284 301.891 360.609 295.291 360.765C298.215 353.452 301.74 346.395 305.828 339.665" fill="#4DBC33"/>
<path d="M335.647 348.089C340.229 351.688 343.331 356.85 344.362 362.592C339.493 361.616 334.687 360.346 329.97 358.789L321.654 368.421C321.516 368.641 321.298 368.798 321.046 368.86C320.618 368.91 320.319 368.461 320.13 368.081L314.553 356.853C308.412 359.284 301.891 360.609 295.291 360.765C298.215 353.452 301.74 346.395 305.828 339.665" stroke="black" stroke-width="0.5" stroke-miterlimit="10"/>
<path d="M334.741 348.998C339.149 352.47 342.132 357.442 343.127 362.971L344.701 361.354C339.834 360.367 335.029 359.098 330.309 357.551C330.091 357.489 329.86 357.486 329.641 357.544C329.422 357.602 329.222 357.718 329.064 357.881L324.632 363.021L322.411 365.586L321.305 366.874C321.066 367.143 320.14 367.872 320.967 367.682C321.385 367.782 321.475 367.682 321.236 367.433L320.867 366.684L320.12 365.187L318.636 362.193L315.648 356.204C315.507 355.96 315.288 355.769 315.027 355.663C314.765 355.556 314.476 355.539 314.204 355.615C308.167 357.991 301.764 359.298 295.281 359.478L296.526 361.105C299.428 353.9 302.916 346.947 306.953 340.314C307.096 340.022 307.122 339.688 307.029 339.377C306.935 339.066 306.728 338.802 306.448 338.638C306.169 338.474 305.838 338.422 305.521 338.492C305.205 338.562 304.927 338.75 304.742 339.017C300.609 345.849 297.041 353.009 294.076 360.426C294.026 360.617 294.02 360.816 294.058 361.009C294.097 361.202 294.178 361.384 294.297 361.541C294.416 361.698 294.57 361.825 294.745 361.914C294.921 362.003 295.114 362.05 295.311 362.053C302.026 361.871 308.658 360.52 314.911 358.06L313.467 357.472L316.903 364.388L318.666 367.952C319.114 368.84 319.562 369.858 320.658 370.068C321.754 370.277 322.371 369.549 322.999 368.82L325.628 365.766L330.897 359.667L329.652 359.997C334.37 361.548 339.175 362.818 344.043 363.8C344.261 363.855 344.489 363.853 344.705 363.793C344.922 363.733 345.119 363.618 345.278 363.459C345.436 363.3 345.551 363.103 345.611 362.886C345.67 362.669 345.672 362.441 345.617 362.223C344.514 356.273 341.306 350.922 336.584 347.151C335.299 346.153 333.476 347.94 334.761 348.968L334.741 348.998Z" fill="black" stroke="black" stroke-width="0.5" stroke-miterlimit="10"/>
<path d="M335.398 278.681L330.418 277.583" stroke="black" stroke-miterlimit="10"/>
<path d="M335.737 277.443L330.757 276.345C330.591 276.287 330.415 276.263 330.239 276.276C330.064 276.288 329.893 276.337 329.737 276.418C329.581 276.5 329.443 276.613 329.332 276.75C329.221 276.887 329.14 277.045 329.093 277.215C329.046 277.385 329.034 277.563 329.058 277.737C329.082 277.912 329.142 278.08 329.234 278.23C329.325 278.381 329.447 278.511 329.591 278.613C329.734 278.714 329.898 278.785 330.07 278.821L335.05 279.919C335.378 280.003 335.727 279.956 336.022 279.789C336.317 279.621 336.536 279.346 336.633 279.02C336.719 278.692 336.674 278.344 336.506 278.049C336.339 277.754 336.062 277.537 335.737 277.443V277.443Z" stroke="black" stroke-miterlimit="10"/>
<path d="M373.893 323.256C379.835 317.584 387.372 313.877 395.485 312.637C402.726 311.639 412.178 312.098 417.277 318.096C418.545 319.63 419.48 321.412 420.02 323.328C420.56 325.245 420.694 327.253 420.414 329.225C419.817 333.297 417.426 336.791 414.777 339.825C411.72 343.348 408.423 346.692 405.226 350.096L394.987 361.015C392.238 363.939 389.35 366.714 386.581 369.609C383.801 372.568 381.331 375.805 379.211 379.27C378.335 380.678 380.556 381.965 381.432 380.568C383.406 377.321 385.709 374.288 388.304 371.515C390.854 368.84 393.543 366.305 396.063 363.61L407.018 351.912C410.365 348.339 413.861 344.856 416.978 341.123C419.717 337.879 422.157 334.136 422.834 329.904C423.507 325.682 422.564 321.362 420.195 317.807C415.385 310.69 405.993 309.283 398.035 309.822C388.31 310.591 379.146 314.69 372.08 321.43C370.865 322.558 372.678 324.364 373.893 323.247V323.256Z" fill="black" stroke="black" stroke-width="0.75" stroke-miterlimit="10"/>
<path d="M277.363 306.828C275.222 304.796 272.816 303.064 270.212 301.677C267.944 300.595 265.557 299.781 263.101 299.252C259.929 298.397 256.69 297.813 253.42 297.505C249.923 297.215 246.421 298.02 243.401 299.811C240.834 301.456 238.766 303.776 237.425 306.518C235.879 309.858 235.302 313.566 235.762 317.218C236.106 320.949 236.999 324.608 238.411 328.077C239.089 329.748 240.056 331.286 241.269 332.619C242.468 333.832 243.739 334.972 245.074 336.032C250.532 340.693 256.099 345.295 261.079 350.485C261.667 351.104 262.254 351.732 262.832 352.371C263.073 352.611 263.399 352.746 263.738 352.746C264.078 352.746 264.404 352.611 264.645 352.371C264.88 352.127 265.011 351.802 265.011 351.463C265.011 351.124 264.88 350.798 264.645 350.555C259.901 345.505 254.827 340.777 249.456 336.402L245.701 333.198C244.413 332.214 243.252 331.075 242.245 329.804C240.323 327.109 239.496 323.706 238.829 320.522C237.97 317.091 237.946 313.503 238.759 310.062C239.528 307.37 241.061 304.959 243.172 303.125C245.387 301.269 248.146 300.186 251.03 300.041C254.277 299.841 257.414 300.61 260.561 301.288C262.96 301.756 265.315 302.424 267.603 303.284L267.782 303.354C267.782 303.354 267.623 303.294 267.782 303.354L268.19 303.534C268.456 303.654 268.725 303.783 268.997 303.923C269.535 304.193 270.053 304.482 270.571 304.792C271.682 305.471 272.743 306.228 273.748 307.057C274.365 307.566 274.973 308.055 275.571 308.634C275.815 308.867 276.139 308.997 276.477 308.997C276.814 308.997 277.139 308.867 277.383 308.634C277.62 308.392 277.753 308.066 277.753 307.726C277.753 307.386 277.62 307.06 277.383 306.818L277.363 306.828Z" fill="black" stroke="black" stroke-width="0.75" stroke-miterlimit="10"/>
<path d="M392.457 459.777C391.001 462.211 389.077 464.332 386.799 466.018C384.52 467.703 381.931 468.92 379.181 469.599C375.726 470.316 372.225 470.786 368.704 471.006C365.007 471.365 361.285 471.365 357.589 471.006C354.536 470.678 351.517 470.087 348.565 469.239C346.245 468.581 343.585 467.772 342.101 465.706C340.674 463.706 339.736 461.399 339.362 458.969C339.093 456.843 338.834 454.707 338.486 452.591C338.119 449.978 337.498 447.408 336.633 444.916C335.966 443.129 334.95 440.923 332.908 440.364C332.746 440.319 332.575 440.306 332.408 440.327C332.24 440.348 332.078 440.401 331.931 440.485C331.784 440.568 331.655 440.68 331.551 440.813C331.447 440.947 331.37 441.099 331.325 441.263C331.28 441.426 331.267 441.596 331.288 441.764C331.308 441.932 331.362 442.095 331.445 442.242C331.528 442.389 331.64 442.519 331.773 442.623C331.906 442.727 332.058 442.804 332.221 442.85C332.405 442.888 332.574 442.978 332.709 443.109C332.959 443.333 333.171 443.596 333.337 443.888C333.845 444.756 334.243 445.685 334.522 446.652C335.25 449.058 335.786 451.518 336.125 454.008C336.434 456.005 336.623 458.001 336.932 459.997C337.426 462.754 338.574 465.352 340.279 467.573C341.932 469.728 344.631 470.757 347.151 471.565C353.767 473.549 360.696 474.273 367.578 473.701C371.363 473.47 375.131 473.013 378.863 472.334C382.078 471.736 385.132 470.468 387.826 468.611C390.584 466.577 392.925 464.028 394.718 461.105C395.615 459.708 393.394 458.42 392.507 459.807L392.457 459.777Z" fill="black" stroke="black" stroke-width="0.75" stroke-miterlimit="10"/>
<path d="M379.211 379.32C373.843 388.922 374.142 400.6 375.147 411.259C376.283 423.237 379.131 434.775 385.207 445.195C386.89 448.09 388.732 450.894 390.585 453.689C391.013 454.338 391.452 454.986 391.88 455.685C392.429 456.31 392.797 457.072 392.945 457.891C392.882 458.697 392.673 459.485 392.328 460.217C391.79 461.784 394.26 462.452 394.798 460.895C395.465 458.979 395.794 457.232 394.738 455.356C393.244 452.831 391.461 450.455 389.888 447.98C386.602 442.996 383.927 437.634 381.92 432.01C380.055 426.381 378.774 420.575 378.096 414.683C377.37 409.198 377.077 403.665 377.219 398.134C377.428 392.146 378.484 386.017 381.452 380.717C381.537 380.571 381.592 380.41 381.615 380.242C381.638 380.075 381.627 379.904 381.584 379.741C381.541 379.577 381.467 379.423 381.365 379.289C381.262 379.154 381.135 379.041 380.989 378.956C380.843 378.871 380.682 378.815 380.515 378.792C380.347 378.769 380.177 378.78 380.014 378.823C379.851 378.866 379.698 378.941 379.563 379.043C379.429 379.146 379.316 379.274 379.231 379.42L379.211 379.32Z" fill="black" stroke="black" stroke-width="0.75" stroke-miterlimit="10"/>
<path d="M262.473 351.124C260.352 358.799 258.43 366.524 256.876 374.33C255.537 380.951 254.539 387.637 253.888 394.362C253.309 400.432 253.083 406.53 253.211 412.627C253.34 418.615 253.818 424.694 254.536 430.683C254.924 433.926 255.372 437.15 255.87 440.374C256.408 443.888 256.866 447.441 257.683 450.904C258.176 454.385 259.729 457.629 262.13 460.192C264.531 462.756 267.663 464.514 271.099 465.227C274.498 466.078 277.969 466.612 281.467 466.824C285.776 467.19 290.092 467.383 294.414 467.403C296.556 467.403 298.707 467.403 300.848 467.283C302.537 467.302 304.168 466.665 305.4 465.506C306.508 464.393 307.15 462.897 307.192 461.324C307.242 459.468 306.276 457.701 305.569 456.044C304.135 452.651 302.352 448.868 302.731 445.065C302.806 444.298 303.062 443.559 303.478 442.909C303.816 442.439 304.247 442.042 304.742 441.742C305.898 441.076 307.188 440.677 308.517 440.574C311.58 440.357 314.656 440.451 317.7 440.853C321.086 441.186 324.463 441.615 327.829 442.141C329.273 442.36 330.717 442.6 332.151 442.869C332.48 442.948 332.826 442.899 333.12 442.733C333.414 442.566 333.633 442.294 333.735 441.971C333.821 441.642 333.776 441.292 333.609 440.995C333.441 440.699 333.165 440.48 332.839 440.384C326.404 439.158 319.896 438.348 313.358 437.959C310.37 437.799 307.173 437.789 304.394 439.037C302.993 439.648 301.829 440.699 301.077 442.031C300.215 443.83 299.943 445.857 300.3 447.82C300.808 451.733 302.561 455.246 304.015 458.859C304.185 459.278 304.364 459.688 304.493 460.117C304.598 460.415 304.656 460.729 304.663 461.045C304.687 461.593 304.585 462.14 304.364 462.642C304.121 463.192 303.74 463.671 303.258 464.031C302.777 464.391 302.211 464.621 301.615 464.698C300.698 464.778 299.777 464.812 298.856 464.798C297.771 464.798 296.675 464.798 295.589 464.798C293.438 464.798 291.297 464.798 289.155 464.698C285.172 464.548 281.088 464.289 277.094 463.77C273.997 463.448 270.971 462.633 268.131 461.354C265.277 459.987 262.993 457.659 261.677 454.777C260.143 451.493 259.685 447.79 259.117 444.237C258.589 441.013 258.121 437.789 257.643 434.555C256.836 428.666 256.229 422.638 255.95 416.649C255.676 410.699 255.736 404.737 256.129 398.793C256.574 392.434 257.359 386.104 258.48 379.829C259.784 372.433 261.468 365.097 263.35 357.871C263.878 355.875 264.426 353.878 264.973 351.882C265.039 351.562 264.982 351.229 264.812 350.951C264.643 350.672 264.374 350.468 264.06 350.38C263.746 350.293 263.41 350.328 263.121 350.479C262.832 350.63 262.612 350.885 262.503 351.193L262.473 351.124Z" fill="black" stroke="black" stroke-width="0.75" stroke-miterlimit="10"/>
<path d="M335.837 279.04C336.096 274.05 338.416 269.359 341.135 265.157C346.832 256.373 354.73 248.808 364.391 244.805C374.052 240.803 385.516 240.673 394.678 245.684C399.658 248.389 403.961 252.8 405.206 258.32C406.929 265.985 402.477 273.601 397.836 279.929C391.472 288.593 384.364 296.682 376.592 304.103" fill="white"/>
<path d="M335.837 279.04C336.096 274.05 338.416 269.359 341.135 265.157C346.832 256.373 354.73 248.808 364.391 244.805C374.052 240.803 385.516 240.673 394.678 245.684C399.658 248.389 403.961 252.8 405.206 258.32C406.929 265.985 402.477 273.601 397.836 279.929C391.472 288.593 384.364 296.682 376.592 304.103" stroke="black" stroke-width="0.75" stroke-miterlimit="10"/>
<path d="M337.102 279.04C337.41 274.05 339.791 269.489 342.51 265.376C344.983 261.603 347.884 258.13 351.155 255.026C357.718 248.838 366.014 244.326 375.058 243.358C383.892 242.41 393.732 244.646 399.957 251.343C401.503 252.95 402.681 254.875 403.407 256.986C404.133 259.096 404.39 261.34 404.16 263.56C403.622 268.55 400.983 273.062 398.184 277.094C391.595 286.546 384.053 295.292 375.675 303.195C374.48 304.342 376.293 306.189 377.488 305.011C385.476 297.385 392.763 289.054 399.26 280.118C402.357 275.856 405.286 271.135 406.391 265.905C406.932 263.549 406.983 261.107 406.541 258.73C406.099 256.354 405.173 254.094 403.821 252.092C398.314 244.107 388.045 240.464 378.633 240.573C368.753 240.683 359.471 244.696 351.912 250.944C347.808 254.389 344.193 258.378 341.165 262.801C337.799 267.652 334.92 273.042 334.542 279.04C334.442 280.697 337.012 280.687 337.111 279.04H337.102Z" fill="black" stroke="black" stroke-width="0.75" stroke-miterlimit="10"/>
<path d="M291.127 271.664C286.596 255.695 290.62 238.258 298.976 223.975C303.258 216.659 309.822 209.383 318.278 209.273C326.733 209.163 333.865 216.819 336.036 225.093C338.207 233.367 336.623 242.061 335.04 250.515L330.06 277.034" fill="white"/>
<path d="M291.127 271.664C286.596 255.695 290.62 238.258 298.976 223.975C303.258 216.659 309.822 209.383 318.278 209.273C326.733 209.163 333.865 216.819 336.036 225.093C338.207 233.367 336.623 242.061 335.04 250.515L330.06 277.034" stroke="black" stroke-width="0.75" stroke-miterlimit="10"/>
<path d="M292.362 271.315C289.839 261.757 289.946 251.693 292.671 242.19C293.955 237.443 295.738 232.846 297.99 228.476C299.957 224.382 302.488 220.586 305.509 217.198C308.388 214.124 311.913 211.539 316.116 210.76C318.081 210.445 320.09 210.549 322.012 211.065C323.935 211.581 325.726 212.497 327.271 213.754C335.06 219.743 336.444 229.934 335.548 239.156C334.95 245.334 333.556 251.443 332.44 257.541L328.865 276.685C328.556 278.302 331.026 279 331.335 277.374L334.731 259.278C335.827 253.449 337.062 247.63 337.839 241.761C339.153 231.71 338.356 220.801 330.697 213.345C327.645 210.225 323.562 208.326 319.214 208.005C314.667 207.936 310.253 209.537 306.804 212.507C303.245 215.505 300.255 219.123 297.98 223.186C295.316 227.705 293.126 232.488 291.446 237.459C287.721 248.548 286.745 260.665 289.922 272.004C290.031 272.312 290.252 272.567 290.54 272.718C290.829 272.869 291.165 272.904 291.479 272.817C291.793 272.729 292.062 272.525 292.231 272.247C292.401 271.968 292.459 271.635 292.392 271.315H292.362Z" fill="black" stroke="black" stroke-width="0.75" stroke-miterlimit="10"/>
<path d="M291.337 271.884C281.955 276.795 273.678 287.744 274.475 298.324C275.052 304.053 276.984 309.563 280.112 314.393C287.662 326.75 299.982 335.563 313.158 341.532C321.574 345.345 330.707 348.169 339.91 347.451C345.028 346.985 350.004 345.511 354.552 343.113C359.1 340.715 363.131 337.44 366.413 333.477C372.941 325.43 376.463 315.352 376.373 304.981" fill="white"/>
<path d="M291.337 271.884C281.955 276.795 273.678 287.744 274.475 298.324C275.052 304.053 276.984 309.563 280.112 314.393C287.662 326.75 299.982 335.563 313.158 341.532C321.574 345.345 330.707 348.169 339.91 347.451C345.028 346.985 350.004 345.511 354.552 343.113C359.1 340.715 363.131 337.44 366.413 333.477C372.941 325.43 376.463 315.352 376.373 304.981" stroke="black" stroke-width="0.75" stroke-miterlimit="10"/>
<path d="M290.689 270.776C281.098 275.866 272.513 286.646 273.17 298.004C273.877 310.401 282.293 321.6 291.377 329.415C295.948 333.308 300.923 336.697 306.216 339.526C311.961 342.711 318.049 345.229 324.363 347.031C330.772 348.902 337.522 349.291 344.103 348.169C349.929 347.033 355.425 344.601 360.188 341.053C370.217 333.617 376.243 321.969 377.468 309.602C377.624 308.057 377.701 306.505 377.697 304.951C377.669 304.631 377.522 304.332 377.285 304.115C377.048 303.897 376.739 303.777 376.417 303.777C376.096 303.777 375.787 303.897 375.55 304.115C375.313 304.332 375.166 304.631 375.138 304.951C375.138 316.719 370.526 328.467 361.772 336.451C357.671 340.198 352.804 343.001 347.509 344.666C341.597 346.448 335.338 346.746 329.283 345.534C323.057 344.245 317.028 342.134 311.356 339.256C306.298 336.831 301.479 333.933 296.964 330.603C287.881 323.825 279.485 314.333 276.596 303.115C275.733 300.049 275.529 296.834 275.999 293.683C276.524 290.833 277.535 288.094 278.987 285.588C282.067 280.25 286.581 275.886 292.014 272.992C293.478 272.213 292.183 269.998 290.719 270.776H290.689Z" fill="black" stroke="black" stroke-width="0.75" stroke-miterlimit="10"/>
<path d="M324.184 299.841C323.956 299.702 323.779 299.491 323.681 299.242C323.583 298.993 323.569 298.719 323.642 298.461C323.714 298.203 323.868 297.976 324.081 297.814C324.294 297.652 324.554 297.565 324.821 297.565C325.088 297.565 325.348 297.652 325.561 297.814C325.774 297.976 325.928 298.203 326.001 298.461C326.073 298.719 326.059 298.993 325.961 299.242C325.863 299.491 325.687 299.702 325.459 299.841" fill="white"/>
<path d="M324.881 298.723H324.821L325.08 298.923C325.02 298.877 324.966 298.823 324.921 298.763L325.12 299.022C325.067 298.952 325.023 298.875 324.99 298.793L325.12 299.102C325.084 299.012 325.058 298.918 325.04 298.823V299.162C325.02 299.04 325.02 298.915 325.04 298.793V299.132C325.062 298.992 325.098 298.855 325.15 298.723L325.02 299.032C325.068 298.914 325.131 298.803 325.21 298.703L325.01 298.963C325.073 298.88 325.147 298.806 325.23 298.743L324.971 298.943C325.041 298.887 325.118 298.84 325.2 298.803L324.891 298.933C324.968 298.903 325.048 298.883 325.13 298.873H324.791H325.05H324.712C324.793 298.883 324.874 298.903 324.951 298.933L324.642 298.803C324.724 298.84 324.801 298.887 324.871 298.943L324.612 298.743C324.683 298.804 324.75 298.871 324.811 298.943L324.612 298.683C324.683 298.783 324.744 298.89 324.791 299.002L324.662 298.693C324.713 298.822 324.75 298.955 324.771 299.092L324.722 298.753C324.742 298.882 324.742 299.013 324.722 299.142L324.771 298.803C324.755 298.905 324.729 299.006 324.692 299.102L324.821 298.803C324.784 298.879 324.741 298.953 324.692 299.022L324.891 298.763C324.842 298.832 324.781 298.893 324.712 298.943L324.971 298.743L324.861 298.813C324.574 298.983 324.363 299.259 324.273 299.581C324.226 299.748 324.213 299.922 324.235 300.094C324.257 300.266 324.314 300.431 324.403 300.579C324.569 300.869 324.84 301.084 325.16 301.178C325.497 301.256 325.85 301.21 326.156 301.049C326.513 300.83 326.807 300.522 327.008 300.154C327.209 299.786 327.31 299.372 327.301 298.953C327.296 298.578 327.218 298.209 327.072 297.865C327.019 297.715 326.945 297.574 326.853 297.445C326.746 297.269 326.615 297.108 326.465 296.966C326.314 296.827 326.147 296.706 325.967 296.607C325.732 296.489 325.48 296.411 325.22 296.378C324.953 296.328 324.68 296.328 324.413 296.378C324.212 296.425 324.017 296.499 323.835 296.597C323.478 296.807 323.175 297.098 322.949 297.445C322.839 297.628 322.749 297.823 322.68 298.024C322.636 298.124 322.603 298.228 322.58 298.334C322.466 298.779 322.466 299.246 322.58 299.691C322.638 299.902 322.733 300.102 322.859 300.28C323.041 300.552 323.275 300.786 323.546 300.969C323.849 301.14 324.206 301.187 324.542 301.098C324.86 301.005 325.13 300.794 325.299 300.51C325.386 300.36 325.442 300.195 325.465 300.024C325.487 299.852 325.475 299.678 325.429 299.512C325.33 299.194 325.122 298.921 324.841 298.743L324.881 298.723Z" fill="black"/>
<path d="M324.722 299.771C324.74 299.807 324.767 299.838 324.801 299.861C324.834 299.884 324.872 299.899 324.913 299.904C324.953 299.909 324.994 299.904 325.032 299.89C325.069 299.875 325.103 299.851 325.13 299.821C324.86 299.88 324.577 299.841 324.333 299.711C324.403 299.791 324.491 299.853 324.59 299.892C324.688 299.93 324.795 299.943 324.9 299.93C325.006 299.917 325.106 299.879 325.193 299.818C325.28 299.757 325.351 299.676 325.399 299.581" fill="white"/>
<path d="M323.616 300.47L323.815 300.729C323.909 300.82 324.013 300.9 324.124 300.969C324.353 301.106 324.614 301.182 324.881 301.188H325.12H325.349C325.528 301.144 325.692 301.055 325.827 300.929C325.979 300.824 326.108 300.688 326.206 300.53L326.335 300.22V299.881V299.542C326.297 299.378 326.218 299.227 326.106 299.102C326.051 299.007 325.972 298.928 325.877 298.873C325.797 298.792 325.697 298.734 325.588 298.703C325.492 298.645 325.382 298.614 325.269 298.613C325.1 298.568 324.921 298.568 324.751 298.613H324.652L324.99 298.563H324.702L325.04 298.613L324.741 298.523L325.05 298.653H324.951L324.652 298.523C324.483 298.474 324.303 298.474 324.134 298.523C324.021 298.524 323.911 298.555 323.815 298.613C323.655 298.666 323.511 298.759 323.397 298.883L323.198 299.142L323.068 299.452C323.024 299.619 323.024 299.794 323.068 299.961C323.076 300.131 323.128 300.295 323.218 300.44C323.297 300.54 323.377 300.659 323.467 300.759C323.556 300.859 323.686 300.929 323.785 301.009C323.925 301.095 324.076 301.162 324.233 301.208C324.392 301.257 324.556 301.288 324.722 301.298H324.881C325.05 301.288 325.217 301.258 325.379 301.208C325.534 301.16 325.684 301.096 325.827 301.019C325.964 300.93 326.091 300.826 326.206 300.709C326.321 300.591 326.418 300.456 326.494 300.31C326.584 300.166 326.636 300.001 326.644 299.831C326.688 299.664 326.688 299.489 326.644 299.322C326.605 299.159 326.527 299.008 326.415 298.883C326.32 298.745 326.193 298.632 326.046 298.553L325.747 298.424C325.522 298.364 325.285 298.364 325.06 298.424L324.761 298.553C324.571 298.666 324.41 298.824 324.293 299.013C324.277 299.054 324.257 299.094 324.233 299.132L324.433 298.873L324.333 298.973L324.592 298.763C324.55 298.8 324.503 298.83 324.453 298.853L324.751 298.723L324.582 298.773L324.921 298.723H324.731L325.07 298.773L324.901 298.723L325.21 298.853L325.08 298.783L325.339 298.983L325.249 298.893L325.449 299.152L323.686 300.909C323.845 300.987 324.008 301.057 324.174 301.119L324.393 301.168C324.57 301.2 324.75 301.217 324.931 301.218C325.017 301.223 325.103 301.223 325.19 301.218H325.469L324.014 299.332L324.214 299.072L324.473 298.873L324.781 298.743H324.712L325.06 298.693H324.881L325.22 298.743H325.15L325.459 298.873H325.409L325.668 299.072L325.877 299.332C325.877 299.332 325.877 299.332 325.877 299.282C325.794 299.137 325.678 299.014 325.538 298.923C325.419 298.808 325.271 298.729 325.11 298.693C324.94 298.647 324.762 298.647 324.592 298.693C324.422 298.704 324.257 298.759 324.114 298.853L323.855 299.052C323.697 299.21 323.584 299.406 323.526 299.621V299.961C323.527 300.188 323.585 300.411 323.696 300.609L323.616 300.47Z" fill="black"/>
<path d="M337.829 301.049C337.605 300.901 337.436 300.684 337.347 300.431C337.258 300.178 337.254 299.903 337.336 299.648C337.418 299.392 337.581 299.171 337.8 299.017C338.019 298.864 338.283 298.786 338.55 298.797C338.818 298.807 339.074 298.905 339.281 299.076C339.488 299.246 339.633 299.48 339.694 299.741C339.756 300.002 339.731 300.276 339.622 300.521C339.514 300.766 339.328 300.969 339.093 301.099" fill="white"/>
<path d="M338.456 299.941H338.396L338.655 300.14L338.496 299.981L338.695 300.24C338.639 300.17 338.592 300.093 338.556 300.011L338.685 300.31C338.651 300.22 338.628 300.126 338.615 300.031V300.37C338.605 300.247 338.605 300.123 338.615 300.001V300.35C338.631 300.209 338.668 300.071 338.725 299.941L338.595 300.24C338.645 300.126 338.709 300.019 338.785 299.921L338.576 300.18C338.644 300.096 338.721 300.02 338.805 299.951L338.546 300.15C338.616 300.097 338.693 300.053 338.775 300.021L338.466 300.15C338.543 300.118 338.623 300.094 338.705 300.08L338.366 300.13H338.625L338.287 300.08C338.367 300.089 338.445 300.112 338.516 300.15L338.217 300.021C338.295 300.054 338.369 300.098 338.436 300.15L338.177 299.951C338.257 300.01 338.327 300.08 338.386 300.16L338.177 299.901C338.255 299.994 338.319 300.098 338.366 300.21L338.237 299.911C338.288 300.039 338.325 300.173 338.346 300.31V299.971C338.366 300.1 338.366 300.231 338.346 300.36V300.021C338.329 300.123 338.303 300.223 338.267 300.32L338.396 300.011C338.359 300.093 338.313 300.17 338.257 300.24L338.466 299.981C338.411 300.042 338.351 300.099 338.287 300.15L338.546 299.951L338.426 300.031C338.144 300.207 337.935 300.48 337.839 300.799C337.752 301.136 337.799 301.493 337.968 301.797C338.14 302.09 338.421 302.303 338.75 302.389C339.078 302.475 339.427 302.427 339.721 302.256C340.083 302.042 340.381 301.735 340.584 301.366C340.787 300.998 340.888 300.581 340.876 300.16C340.866 299.79 340.788 299.425 340.647 299.082C340.586 298.933 340.513 298.79 340.428 298.653C340.318 298.481 340.188 298.324 340.04 298.184C339.891 298.041 339.724 297.92 339.542 297.825C339.311 297.697 339.057 297.619 338.795 297.595C338.528 297.55 338.255 297.55 337.988 297.595C337.785 297.642 337.59 297.719 337.41 297.825C337.051 298.032 336.747 298.323 336.524 298.673C336.414 298.853 336.324 299.043 336.255 299.242C336.207 299.343 336.173 299.451 336.155 299.561C336.041 300.003 336.041 300.467 336.155 300.909C336.222 301.12 336.315 301.321 336.434 301.508C336.623 301.775 336.859 302.005 337.131 302.186C337.28 302.275 337.445 302.332 337.616 302.355C337.787 302.377 337.961 302.364 338.127 302.316C338.449 302.226 338.724 302.015 338.894 301.727C338.983 301.579 339.04 301.413 339.062 301.242C339.084 301.07 339.071 300.896 339.024 300.729C338.924 300.412 338.716 300.14 338.436 299.961L338.456 299.941Z" fill="black"/>
<path d="M338.346 300.979C338.364 301.015 338.39 301.046 338.422 301.069C338.455 301.093 338.492 301.107 338.532 301.112C338.572 301.117 338.612 301.112 338.649 301.098C338.686 301.083 338.719 301.059 338.745 301.029C338.478 301.093 338.197 301.054 337.958 300.919C338.027 301 338.114 301.062 338.213 301.101C338.311 301.14 338.417 301.154 338.523 301.142C338.628 301.131 338.728 301.093 338.816 301.033C338.903 300.973 338.975 300.893 339.024 300.799" fill="white"/>
<path d="M337.241 301.628L337.44 301.887C337.527 301.981 337.628 302.062 337.739 302.127C337.97 302.268 338.235 302.344 338.506 302.346C338.585 302.356 338.665 302.356 338.745 302.346C338.821 302.356 338.898 302.356 338.974 302.346C339.15 302.3 339.313 302.215 339.452 302.097C339.604 301.989 339.73 301.85 339.82 301.687L339.95 301.388L340 301.039L339.95 300.699C339.914 300.535 339.835 300.383 339.721 300.26C339.666 300.165 339.587 300.086 339.492 300.031C339.415 299.953 339.318 299.898 339.213 299.871C339.114 299.811 339 299.78 338.884 299.781C338.718 299.737 338.543 299.737 338.376 299.781H338.267H338.615C338.52 299.796 338.422 299.796 338.326 299.781H338.665C338.562 299.769 338.462 299.742 338.366 299.701L338.675 299.831L338.575 299.781L338.267 299.651C338.1 299.607 337.925 299.607 337.759 299.651C337.646 299.65 337.536 299.681 337.44 299.741C337.281 299.791 337.137 299.88 337.022 300.001L336.823 300.26L336.693 300.57C336.649 300.736 336.649 300.912 336.693 301.079C336.701 301.248 336.753 301.413 336.843 301.558C336.917 301.67 337.001 301.777 337.092 301.877C337.19 301.969 337.297 302.053 337.41 302.127C337.547 302.214 337.694 302.284 337.848 302.336C338.011 302.381 338.178 302.408 338.346 302.416C338.402 302.426 338.46 302.426 338.516 302.416C338.684 302.409 338.851 302.382 339.014 302.336C339.171 302.288 339.321 302.221 339.462 302.137C339.597 302.054 339.721 301.953 339.83 301.837C339.949 301.722 340.047 301.587 340.119 301.438C340.212 301.295 340.267 301.13 340.279 300.959C340.322 300.792 340.322 300.617 340.279 300.45C340.245 300.285 340.166 300.132 340.049 300.011C339.959 299.873 339.836 299.76 339.691 299.681L339.382 299.551C339.16 299.492 338.927 299.492 338.705 299.551L338.396 299.681C338.206 299.792 338.048 299.95 337.938 300.14C337.921 300.18 337.897 300.218 337.868 300.25L338.078 299.991C338.047 300.026 338.014 300.06 337.978 300.09L338.237 299.891L338.087 299.971L338.396 299.841C338.343 299.867 338.286 299.883 338.227 299.891L338.566 299.841H338.376H338.715H338.546L338.844 299.971L338.725 299.891L338.984 300.1L338.894 300.001L339.093 300.26L337.341 302.017C337.495 302.105 337.658 302.175 337.829 302.226C337.896 302.252 337.966 302.269 338.038 302.276C338.218 302.316 338.401 302.336 338.585 302.336H338.844C338.934 302.336 339.024 302.336 339.123 302.286L337.669 300.4L337.878 300.14L338.137 299.931L338.446 299.801H338.376L338.715 299.751H338.645H338.994H338.924L339.223 299.881L339.482 300.09L339.681 300.35V300.3C339.603 300.155 339.49 300.031 339.352 299.941C339.223 299.832 339.071 299.753 338.907 299.71C338.744 299.666 338.573 299.66 338.406 299.691C338.237 299.699 338.072 299.751 337.928 299.841L337.669 300.041C337.511 300.198 337.398 300.394 337.341 300.609V300.949C337.343 301.177 337.405 301.401 337.52 301.598L337.241 301.628Z" fill="black"/>
<path d="M350.896 310.581L339.94 309.732C339.676 309.722 339.412 309.767 339.166 309.864C338.92 309.961 338.697 310.108 338.51 310.295C338.323 310.482 338.176 310.706 338.08 310.953C337.983 311.2 337.938 311.464 337.948 311.728V313.894C337.949 314.402 337.757 314.891 337.411 315.262C337.065 315.633 336.591 315.857 336.086 315.89H330.349C330.098 315.882 329.852 315.823 329.624 315.717C329.396 315.611 329.192 315.461 329.023 315.275C328.854 315.089 328.724 314.871 328.64 314.634C328.557 314.397 328.521 314.145 328.536 313.894V310.72C328.56 310.236 328.399 309.761 328.087 309.39C327.774 309.02 327.333 308.782 326.853 308.724L303.647 306.938C303.346 306.937 303.049 307.005 302.778 307.136C302.507 307.267 302.269 307.457 302.082 307.694C301.895 307.93 301.764 308.206 301.699 308.5C301.634 308.794 301.636 309.099 301.705 309.393C303.559 317.793 308.17 325.328 314.802 330.792C318.108 333.437 321.953 335.473 326.076 335.783C328.713 335.898 331.351 335.561 333.875 334.785C339.113 333.367 344.292 330.952 348.037 326.71C351.463 322.847 353.475 317.248 352.569 312.098C352.497 311.695 352.294 311.327 351.991 311.052C351.688 310.778 351.303 310.612 350.896 310.581Z" fill="#F4628F" stroke="black" stroke-width="0.5" stroke-miterlimit="10"/>
<path d="M350.896 309.293L341.095 308.544C340.697 308.544 340.299 308.455 339.9 308.445C339.146 308.439 338.413 308.697 337.828 309.174C337.242 309.652 336.841 310.318 336.693 311.06C336.514 311.948 336.693 312.856 336.603 313.735C336.514 314.613 336.125 314.583 335.448 314.583H332.63C331.862 314.673 331.087 314.673 330.319 314.583C329.592 314.403 329.761 313.585 329.761 312.996C329.761 312.187 329.831 311.359 329.761 310.551C329.642 308.484 328.088 307.556 326.235 307.397L322.252 307.087L309.762 306.089L304.991 305.72C303.951 305.492 302.866 305.604 301.894 306.039C300.31 307.037 300.171 308.734 300.569 310.371C300.979 312.067 301.501 313.735 302.133 315.361C303.402 318.668 305.1 321.792 307.183 324.654C311.276 330.223 317.242 335.633 324.273 336.851C328.173 337.362 332.137 336.931 335.837 335.593C339.242 334.58 342.454 333.001 345.338 330.922C350.965 326.72 354.84 319.813 353.913 312.637C353.714 311.06 352.967 309.642 351.254 309.343C349.541 309.043 348.944 311.569 350.567 311.818C351.892 312.028 351.563 314.703 351.453 315.711C351.329 317.376 350.949 319.012 350.328 320.562C349.098 323.636 347.077 326.329 344.472 328.367C341.875 330.382 338.941 331.916 335.807 332.898C332.39 334.046 328.616 334.994 325 334.385C318.537 333.277 312.969 328.267 309.244 323.097C307.304 320.402 305.721 317.466 304.533 314.363C303.958 312.847 303.475 311.297 303.089 309.722C302.91 308.984 302.81 308.245 303.746 308.225C304.683 308.205 305.499 308.365 306.356 308.425L311.485 308.824L322.899 309.702L326.365 309.972C327.47 310.061 327.231 311.07 327.221 312.088C327.142 312.897 327.142 313.713 327.221 314.523C327.343 315.22 327.694 315.856 328.217 316.332C328.74 316.807 329.406 317.094 330.11 317.148C331.604 317.248 333.098 317.148 334.622 317.148C335.226 317.176 335.832 317.16 336.434 317.098C337.111 316.981 337.732 316.651 338.209 316.156C338.685 315.66 338.992 315.025 339.083 314.343C339.203 313.535 339.083 312.716 339.153 311.908C339.153 311.269 339.472 310.99 340.079 311.02C343.366 311.199 346.653 311.529 349.93 311.788L350.866 311.858C352.549 311.998 352.539 309.453 350.896 309.293Z" fill="black" stroke="black" stroke-width="0.5" stroke-miterlimit="10"/>
<path d="M240.224 300.729C241.952 300.991 243.631 301.512 245.203 302.276C245.994 302.67 246.69 303.231 247.243 303.92C247.797 304.61 248.195 305.411 248.41 306.269C249.526 309.822 249.277 314.733 246.369 317.028C245.074 317.844 243.585 318.295 242.056 318.336C239.895 318.393 237.734 318.212 235.612 317.797C230.513 316.938 225.413 315.801 220.334 314.803C198.98 310.371 177.733 305.191 156.592 299.262C144.64 295.895 132.729 292.299 120.857 288.472C115.797 286.846 113.785 294.551 118.865 296.198C141.958 303.65 165.247 310.211 188.732 315.881C200.584 318.748 212.476 321.377 224.408 323.766C234.208 325.762 248.191 330.153 254.496 320.492C257.753 315.501 257.832 308.315 255.342 302.526C252.574 296.118 246.319 293.673 240.104 292.615C237.923 292.235 236.07 294.321 236.12 296.377C236.166 297.475 236.604 298.52 237.353 299.322C238.102 300.124 239.114 300.631 240.204 300.749L240.224 300.729Z" fill="#683D30"/>
<path d="M241.707 327.848C237.036 327.848 232.047 326.75 227.565 325.772C226.409 325.522 225.294 325.273 224.228 325.063C212.057 322.608 200.036 319.953 188.493 317.168C165.217 311.559 141.682 304.921 118.536 297.455C117.599 297.184 116.753 296.663 116.088 295.948C115.423 295.232 114.965 294.349 114.761 293.393C114.549 292.439 114.588 291.446 114.875 290.512C115.161 289.577 115.685 288.734 116.395 288.063C117.066 287.476 117.882 287.081 118.758 286.917C119.634 286.754 120.537 286.829 121.374 287.135C133.326 290.978 145.278 294.601 157.06 297.905C178.055 303.793 199.458 309.014 220.693 313.425L222.884 313.874C227.156 314.763 231.578 315.691 235.921 316.409C237.94 316.813 239.997 316.994 242.056 316.948C243.306 316.921 244.529 316.578 245.612 315.95C247.962 314.104 248.181 309.792 247.195 306.678C247.028 305.997 246.714 305.361 246.275 304.814C245.836 304.268 245.283 303.824 244.656 303.514C243.201 302.816 241.65 302.341 240.054 302.107C238.651 301.928 237.356 301.256 236.4 300.211C235.445 299.165 234.89 297.814 234.835 296.397C234.836 295.626 235.005 294.863 235.33 294.163C235.655 293.463 236.129 292.843 236.718 292.345C237.22 291.9 237.815 291.573 238.459 291.388C239.104 291.203 239.782 291.165 240.443 291.277C248.898 292.724 254.217 296.268 256.707 301.997C259.515 308.485 259.137 316.03 255.711 321.23C252.285 326.43 247.265 327.848 241.707 327.848ZM119.582 289.58C119.082 289.574 118.599 289.756 118.227 290.089C117.874 290.438 117.615 290.871 117.475 291.348C117.336 291.825 117.32 292.33 117.43 292.814C117.54 293.302 117.786 293.748 118.138 294.101C118.491 294.454 118.936 294.7 119.422 294.81C142.499 302.256 165.974 308.874 189.14 314.473C200.644 317.248 212.625 319.893 224.766 322.338C225.852 322.558 226.977 322.807 228.152 323.057C237.116 325.053 248.341 327.478 253.44 319.663C256.298 315.282 256.597 308.594 254.177 303.015C252.056 298.094 247.534 295.2 239.965 293.902C239.697 293.864 239.425 293.885 239.166 293.964C238.908 294.044 238.67 294.179 238.471 294.361C238.188 294.602 237.96 294.9 237.801 295.236C237.641 295.571 237.554 295.936 237.544 296.308C237.606 297.081 237.94 297.808 238.488 298.356C239.036 298.905 239.76 299.24 240.532 299.302C242.415 299.577 244.243 300.146 245.95 300.989C246.896 301.46 247.73 302.129 248.397 302.95C249.064 303.771 249.547 304.726 249.815 305.75C251.07 309.742 250.811 315.232 247.325 317.986C245.811 318.973 244.059 319.528 242.255 319.593C239.987 319.663 237.719 319.476 235.493 319.034C231.1 318.296 226.648 317.368 222.346 316.469L220.165 316.02C198.871 311.609 177.398 306.369 156.343 300.46C144.541 297.146 132.499 293.473 120.558 289.66C120.239 289.58 119.909 289.553 119.582 289.58Z" fill="#422720"/>
</svg>
