<svg width="387" height="553" viewBox="0 0 387 553" fill="none" xmlns="http://www.w3.org/2000/svg">
<path d="M288.71 373.925C336.863 429.03 414.137 342.951 371.72 332.619C338.538 324.533 279.309 242.026 279.309 242.026L98.1229 219.579C98.1229 219.579 81.5658 158.934 37.1067 157.938C-30.8569 156.441 15.8681 256.199 63.7522 307.62C69.391 313.684 70.9913 328.846 71.3877 337.83C74.207 402.331 41.8705 512.968 95.0643 542.227C124.978 558.699 165.084 545.634 183.115 533.946C198.034 524.273 160.979 497.454 176.96 491.315C186.271 487.736 211.129 481.38 218.495 487.781C236.383 503.317 247.384 539.891 290.213 526.108C350.683 506.641 340.692 504.717 322.871 477.636C301.61 445.344 281.65 352.602 278.696 317.765" fill="white"/>
<path d="M288.71 373.925C336.863 429.03 414.137 342.951 371.72 332.619C338.538 324.533 279.309 242.026 279.309 242.026L98.1229 219.579C98.1229 219.579 81.5658 158.934 37.1067 157.938C-30.8569 156.441 15.8681 256.199 63.7522 307.62C69.391 313.684 70.9913 328.846 71.3877 337.83C74.207 402.331 41.8705 512.968 95.0643 542.227C124.978 558.699 165.084 545.634 183.115 533.946C198.034 524.273 160.979 497.454 176.96 491.315C186.271 487.736 211.129 481.38 218.495 487.781C236.383 503.317 247.384 539.891 290.213 526.108C350.683 506.641 340.692 504.717 322.871 477.636C301.61 445.344 281.65 352.602 278.696 317.765" stroke="#141516" stroke-width="5" stroke-linecap="round" stroke-linejoin="round"/>
<path d="M163.11 295.618C162.504 298.201 158.279 314.418 145.91 325.327C145.817 325.408 145.75 325.516 145.717 325.635C145.685 325.755 145.688 325.881 145.727 325.999C145.767 326.117 145.84 326.22 145.937 326.296C146.035 326.372 146.153 326.418 146.276 326.427C151.511 326.757 169.153 327.124 176.998 318.012C177.06 317.934 177.141 317.873 177.233 317.834C177.325 317.794 177.425 317.778 177.524 317.786C177.624 317.794 177.72 317.826 177.804 317.88C177.888 317.934 177.958 318.007 178.007 318.094C179.974 321.591 187.729 336.026 187.153 344.718C187.142 344.835 187.164 344.953 187.218 345.058C187.272 345.162 187.355 345.248 187.458 345.306C187.56 345.364 187.677 345.391 187.794 345.384C187.911 345.376 188.024 345.335 188.118 345.265C192.672 342.015 209.342 329.542 210.837 319.809C210.852 319.686 210.903 319.571 210.983 319.478C211.063 319.384 211.169 319.317 211.288 319.284C211.407 319.251 211.532 319.254 211.649 319.293C211.766 319.332 211.869 319.404 211.944 319.502C215.115 323.627 225.555 335.898 240.1 339.447C240.207 339.475 240.32 339.473 240.426 339.443C240.532 339.413 240.629 339.354 240.705 339.274C240.781 339.194 240.835 339.095 240.86 338.987C240.885 338.879 240.881 338.767 240.848 338.661C239.233 333.42 232.173 309.327 233.729 294.839C233.745 294.69 233.705 294.539 233.616 294.417C233.528 294.296 233.397 294.211 233.25 294.18L196.434 285.758C196.331 285.731 196.223 285.731 196.12 285.758L163.581 295.176C163.47 295.199 163.366 295.252 163.283 295.33C163.2 295.408 163.14 295.508 163.11 295.618Z" fill="#4DBC33" stroke="black" stroke-width="5" stroke-linecap="round" stroke-linejoin="round"/>
<path d="M276.355 162.812C276.984 157.13 282.72 25.1626 203.179 4.74533C121.942 -16.1137 190.264 156.883 190.264 156.883C190.264 156.883 174.604 154.464 160.493 162.992C160.493 162.992 154.847 30.5607 99.3196 17.653C43.7925 4.74533 37.7724 120.226 83.0092 178.857C81.9921 182.151 51.2185 281.887 155.348 297.063C255.536 311.67 358.7 249.909 276.355 162.812Z" fill="white" stroke="#141516" stroke-width="5" stroke-linecap="round" stroke-linejoin="round"/>
<path d="M177.828 211.561C186.435 211.561 186.45 198.174 177.828 198.174C169.205 198.174 169.213 211.561 177.828 211.561Z" fill="#141516"/>
<path d="M204.832 205.264C213.432 205.264 213.447 191.877 204.832 191.877C196.217 191.877 196.21 205.264 204.832 205.264Z" fill="#141516"/>
<path d="M140.982 230.428L190.115 219.437C191.203 219.196 192.342 219.369 193.309 219.923C194.277 220.477 195.004 221.371 195.35 222.432L197.773 229.994C198.141 231.113 198.934 232.042 199.98 232.581C201.027 233.12 202.243 233.226 203.366 232.876L210.957 230.443C212.076 230.074 213.006 229.279 213.544 228.23C214.083 227.181 214.188 225.961 213.836 224.835L212.086 219.385C211.899 218.781 211.841 218.145 211.917 217.517C211.992 216.89 212.199 216.285 212.524 215.743C212.848 215.201 213.284 214.734 213.801 214.372C214.318 214.01 214.906 213.761 215.526 213.642L240.108 209.15C241.203 208.958 242.331 209.181 243.272 209.774C244.213 210.368 244.9 211.29 245.201 212.362C248.94 226.22 257.263 272.505 204.855 279.745C150.718 287.233 141.55 250.119 137.684 235.909C137.536 235.332 137.505 234.732 137.591 234.142C137.678 233.553 137.881 232.988 138.187 232.478C138.494 231.968 138.899 231.524 139.379 231.172C139.859 230.82 140.403 230.567 140.982 230.428Z" fill="#F4628F" stroke="black" stroke-width="5" stroke-linecap="round" stroke-linejoin="round"/>
</svg>
