<svg xmlns="http://www.w3.org/2000/svg" viewBox="0 0 958 604"><defs><style>.cls-1{fill:#fff;stroke:#141516;}.cls-1,.cls-2,.cls-3,.cls-5{stroke-linecap:round;stroke-linejoin:round;stroke-width:5px;}.cls-2{fill:#4dbc33;}.cls-2,.cls-3,.cls-5{stroke:#000;}.cls-3{fill:#f4628f;}.cls-4{fill:#141516;}.cls-5{fill:#db523b;}</style></defs><title>mangto</title><g id="Layer_1" data-name="Layer 1"><path class="cls-1" d="M716.87,334.81s39-17.74,56.6-1.2-4.67,37.79-4.67,37.79l-24.63,17.76-58.72-46.71,31.42-7.64"/><path class="cls-1" d="M743,249.35s-8.53,182.59-2.94,191.8c2.79,4.6,21,7,21.4-.16S766,250.39,766,250.39Z"/><path class="cls-1" d="M709.13,368s26.57-15.1,52.49-7c25.23,7.92,33.47,50.7-54.51,66.09a11.77,11.77,0,0,0-9.47,9.19C692,463.18,695.45,482,708,497.09c10.84,13.09-35.67,35.74-49.83,18.86-5.63-6.7-8.29-11.35-11.13-12.74a6.59,6.59,0,0,0-4.43-.49c-9.51,2.36-11.05,6-7.29,13,2.65,4.93,10.23,13.08,4.72,14.09-6.71,1.24-17.7,1.5-27.41,1.44A37.71,37.71,0,0,1,580,512c-42.35-75.57,21.28-138.45,21.28-138.45"/><path class="cls-2" d="M655.76,395.2s-4,12-6.43,15.19c0,0,15.21-3.58,19.22-10.57,1.65-2.88,6,10.23,9.86,8.91,0,0,2.7-9.54,3.54-10.08,0,0,4.93-8.13,10-15,0,0-12.88-9.34-12.83-12.94l-22.49,10Z"/><path class="cls-1" d="M597,287.09s5.14-80,68-90.28-13,90.38-13,90.38,9-2,18.59,5.23c0,0,15.89-34,51-45.3a58.85,58.85,0,0,1,40.14,1.11c19.48,7.92,37.21,28.1-48.82,76.07,0,0,28.72,46.65-14.3,60.57,0,0-60,19.28-99.21-16.59a51.5,51.5,0,0,1-14.69-52.52A145,145,0,0,1,597,287.09Z"/><path class="cls-3" d="M607.69,320.94l33,8.59a3,3,0,0,1,2.22,3.34l-.87,5.17a3,3,0,0,0,2.49,3.4l5.32.89a3,3,0,0,0,3.46-2.4l.63-3.72a3,3,0,0,1,3.84-2.31L674,338.79a3,3,0,0,1,2.08,3.43c-2,9.26-11.24,38.89-45.09,27.12-35-12.15-29-36.69-27-46.19A3,3,0,0,1,607.69,320.94Z"/><path class="cls-4" d="M615.38,315.54c5.79,0,5.8-9,0-9s-5.8,9,0,9Z"/><path class="cls-4" d="M634.92,321.28c5.79,0,5.8-9,0-9s-5.8,9,0,9Z"/><path class="cls-5" d="M738.39,248.7c26.46-49.42,2.94-82.8,2.94-82.8-9.37-6.44-20.19-2.67-20.19-2.67-9.09-9.76-21-3.11-21-3.11-11-9-24-1-24-1L672,162c-25.58,50-2.79,84.31-2.79,84.31,9.48,6.24,20.23,2.24,20.23,2.24,9.27,9.56,21.11,2.66,21.11,2.66,11.12,8.73,25.79-.25,25.79-.25Z"/><path class="cls-5" d="M700.38,160.12s4.23,51.09-11,87.91"/><path class="cls-5" d="M721.34,163.65s11.59,51.36-11,87.91"/><path class="cls-5" d="M775.8,172.36c-25.54,50-1.39,82.84-1.39,82.84,9.49,6.23,20.24,2.22,20.24,2.22,9.27,9.55,21.1,2.64,21.1,2.64,11.13,8.72,24,.48,24,.48l4.13-3c24.64-50.51,1.21-84.34,1.21-84.34-9.6-6-20.28-1.79-20.28-1.79-9.44-9.34-21.15-2.19-21.15-2.19-11.28-8.47-25.79.82-25.79.82Z"/><path class="cls-5" d="M815.47,260.06s-5.19-51,9.39-88.11"/><path class="cls-5" d="M794.45,257s-12.56-51.08,9.39-88.11"/><path class="cls-5" d="M775,176.91c-.88,16-3.59,55.14-4.62,69.82a8.73,8.73,0,0,1-7.14,8c-5.51,1-11.82.41-16.63-.36a8.79,8.79,0,0,1-7.4-9l2.62-69.15a8.67,8.67,0,0,1,3.74-6.86c4.19-2.85,12.08-5.88,23.88-1.13A8.84,8.84,0,0,1,775,176.91Z"/><path d="M230.75,260.87h18.34V279.6h53.67c1.77,0,2.9.58,3.39,1.73a15.38,15.38,0,0,1,.73,5.58,14.77,14.77,0,0,1-.73,5.51c-.49,1.11-1.62,1.66-3.39,1.66h-110V279.6h38Zm48.76,12.35a21.23,21.23,0,0,1-6.57-.79,3,3,0,0,1-2.33-3.06v-21c0-1.24-.24-2-.73-2.39a3.69,3.69,0,0,0-2.19-.53h-57.8V230.31h61.92a11.43,11.43,0,0,1,5.84,1.93,28.55,28.55,0,0,1,5.45,4.18,28.23,28.23,0,0,1,3.85,4.85,9.27,9.27,0,0,1,1.73,4.72v23.38a3,3,0,0,1-2.32,3.06A22.5,22.5,0,0,1,279.51,273.22Zm4.39,54.21A22,22,0,0,1,281,338.79a27.17,27.17,0,0,1-7.77,8.44,36,36,0,0,1-11.09,5.24,48,48,0,0,1-26,0A35.93,35.93,0,0,1,225,347.23a27.2,27.2,0,0,1-7.78-8.44,23.56,23.56,0,0,1,0-22.72,27.2,27.2,0,0,1,7.78-8.44,35.93,35.93,0,0,1,11.09-5.24,48,48,0,0,1,26,0,36,36,0,0,1,11.09,5.24,27.17,27.17,0,0,1,7.77,8.44A22,22,0,0,1,283.9,327.43Zm-18.07,0a10.34,10.34,0,0,0-4.65-8.7q-4.65-3.39-12-3.39-7.58,0-12.22,3.39a10.46,10.46,0,0,0,0,17.4q4.65,3.39,12.22,3.39t12-3.39A10.38,10.38,0,0,0,265.83,327.43Z"/><path d="M376.37,316.4q-3.19-2.91-6.58-6.37t-6.51-7.24a95,95,0,0,1-5.85-7.91,59,59,0,0,1-4.58-8.24,57.55,57.55,0,0,1-5.11,8.9,103.06,103.06,0,0,1-6.65,8.64c-2.34,2.75-4.76,5.31-7.24,7.71s-4.83,4.47-7,6.24a3.9,3.9,0,0,1-4.12.53,17.39,17.39,0,0,1-5.05-4,21.52,21.52,0,0,1-3.58-4.72,3.11,3.11,0,0,1,.79-3.92A129.27,129.27,0,0,0,325,295.88a95.93,95.93,0,0,0,8.84-11.56A61,61,0,0,0,340,271.83a38.33,38.33,0,0,0,2.33-13.09V238.28h18.86v20.2a36,36,0,0,0,2.46,12.95,69.42,69.42,0,0,0,6.24,12.42,87.84,87.84,0,0,0,8.44,11.23q4.65,5.25,9,9.37c1.32,1.24,1.7,2.45,1.13,3.65a21.82,21.82,0,0,1-3.79,4.85,33.11,33.11,0,0,1-4.52,3.92Q378.36,318.13,376.37,316.4Zm19.79-86H414.5v37.47h20.06v15.55H414.5v56.72a3.05,3.05,0,0,1-2.39,3.06,23.07,23.07,0,0,1-6.91.8,23.92,23.92,0,0,1-6.64-.73,3,3,0,0,1-2.4-3Z"/><path d="M531,328.49a21.08,21.08,0,0,1-2.93,11.1,25.64,25.64,0,0,1-7.77,8.1,36.68,36.68,0,0,1-11.09,4.92,51.89,51.89,0,0,1-26,0,36.63,36.63,0,0,1-11.1-4.92,25.64,25.64,0,0,1-7.77-8.1,21.07,21.07,0,0,1-2.92-11.1,20.82,20.82,0,0,1,2.06-9.36,24.84,24.84,0,0,1,5.51-7.38,29.38,29.38,0,0,1,8.17-5.25,44,44,0,0,1,10-3v-9h-47.3V280h110c1.77,0,2.9.58,3.39,1.73a15.61,15.61,0,0,1,.73,5.58,15,15,0,0,1-.73,5.51c-.49,1.11-1.62,1.66-3.39,1.66H505.51v9a47.82,47.82,0,0,1,10,3.12,30.12,30.12,0,0,1,8.1,5.18,23.13,23.13,0,0,1,5.45,7.31A21.48,21.48,0,0,1,531,328.49ZM456,242.93V229.65H533.8c1.51,0,2.48.48,2.93,1.46a20.93,20.93,0,0,1,0,10.43c-.45.93-1.42,1.39-2.93,1.39H507.63a24.58,24.58,0,0,0,5.91,5.32,74.06,74.06,0,0,0,8.44,4.91q4.51,2.26,9.1,4.19l7.77,3.25a5,5,0,0,1,1.66,1.06,1.81,1.81,0,0,1,.4,1.4,6.24,6.24,0,0,1-.66,2.13c-.4.84-.86,1.88-1.4,3.12a14.32,14.32,0,0,1-2.52,4.58c-.71.67-2,.69-3.72.07-2.22-.8-4.85-1.82-7.91-3.06s-6.22-2.7-9.5-4.38a95.1,95.1,0,0,1-9.63-5.71,48.29,48.29,0,0,1-8.3-7.05,40.64,40.64,0,0,1-7.91,6.71,92,92,0,0,1-10.16,5.92q-5.31,2.66-10.56,4.71t-9,3.26a4.18,4.18,0,0,1-3.66-.27c-.84-.62-1.74-2.12-2.72-4.52-.62-1.41-1.11-2.59-1.46-3.52a9,9,0,0,1-.6-2.26,1.68,1.68,0,0,1,.47-1.39,4.51,4.51,0,0,1,1.73-.93l7.1-2.66q4.59-1.72,9.44-4.05a90,90,0,0,0,9.16-5,21.9,21.9,0,0,0,6.45-5.78Zm57,85.56a9.16,9.16,0,0,0-4.65-8q-4.67-3-12-3-7.57,0-12.22,3a9.26,9.26,0,0,0,0,16.07q4.65,3,12.22,3,7.31,0,12-3A9.17,9.17,0,0,0,513,328.49Z"/></g></svg>